<svg id="Camada_1" data-name="Camada 1" xmlns="http://www.w3.org/2000/svg" xmlns:xlink="http://www.w3.org/1999/xlink" viewBox="0 0 800 303"><defs><style>.cls-1{fill:none;}.cls-2{clip-path:url(#clip-path);}.cls-3{fill:#13002c;}</style><clipPath id="clip-path"><rect class="cls-1" width="800" height="303"/></clipPath></defs><title>Prancheta 1@2xx</title><g class="cls-2"><path class="cls-3" d="M207.73,152.43v47.81a2.42,2.42,0,0,1-2.35,2.35H193.9a2.32,2.32,0,0,1-2.35-2.35V187.59a48.44,48.44,0,0,1-38,17.5c-29.86,0-53.54-23.39-53.54-52.66s23.68-52.66,53.83-52.66,53.84,23.39,53.84,52.66m-16.18,0a37.66,37.66,0,1,0-37.66,37.95,37.8,37.8,0,0,0,37.66-37.95"/><path class="cls-3" d="M226.27,202.59a2.48,2.48,0,0,1-2.5-2.5v-9.71a2.57,2.57,0,0,1,2.5-2.5h52.21c9.42,0,15.6-6.32,15.6-14.27s-6.18-13.38-15.6-14.41L251,156.11c-16.77-1.91-30-12.21-30-28,0-15.59,13.39-28.53,31.77-28.53h45.6a2.48,2.48,0,0,1,2.5,2.5v9.7a2.58,2.58,0,0,1-2.5,2.51h-45.6c-9.41,0-15.59,6.32-15.59,13.67s6.18,12.65,15.59,13.68l27.51,3.09c16.77,1.91,30,12.36,30,28.54,0,16.33-13.39,29.27-31.78,29.27Z"/><path class="cls-3" d="M401.75,99.63a2.39,2.39,0,0,1,2.5,2.5v9.7a2.48,2.48,0,0,1-2.5,2.51H367.18v85.75a2.39,2.39,0,0,1-2.5,2.5H353.5a2.39,2.39,0,0,1-2.5-2.5V114.34H316.44a2.44,2.44,0,0,1-2.5-2.65v-9.56a2.39,2.39,0,0,1,2.5-2.5Z"/><path class="cls-3" d="M513.4,152.43v47.81a2.42,2.42,0,0,1-2.36,2.35H499.57a2.31,2.31,0,0,1-2.35-2.35V187.59a48.47,48.47,0,0,1-38,17.5c-29.86,0-53.54-23.39-53.54-52.66s23.68-52.66,53.83-52.66,53.84,23.39,53.84,52.66m-16.18,0a37.66,37.66,0,1,0-37.66,37.95,37.8,37.8,0,0,0,37.66-37.95"/><path class="cls-3" d="M589.44,102.13v10a2.41,2.41,0,0,1-2.35,2.35C562.67,116,548.7,128.31,548.7,147v53.1a2.48,2.48,0,0,1-2.5,2.5H535a2.39,2.39,0,0,1-2.5-2.5v-98a2.39,2.39,0,0,1,2.5-2.5H546.2a2.48,2.48,0,0,1,2.5,2.5v12.35c9-9,21.62-14.27,38.1-14.85a2.51,2.51,0,0,1,2.64,2.5"/><path class="cls-3" d="M700.06,152.43v47.81a2.42,2.42,0,0,1-2.35,2.35H686.23a2.32,2.32,0,0,1-2.35-2.35V187.59a48.44,48.44,0,0,1-38,17.5c-29.86,0-53.54-23.39-53.54-52.66s23.68-52.66,53.83-52.66,53.84,23.39,53.84,52.66m-16.18,0a37.66,37.66,0,1,0-37.66,37.95,37.8,37.8,0,0,0,37.66-37.95"/></g></svg>