<svg id="Layer_1" data-name="Layer 1" xmlns="http://www.w3.org/2000/svg" viewBox="0 0 967.97 566.93"><defs><style>.cls-1,.cls-2{fill:#0572ba;}.cls-2{font-size:49.67px;font-family:Tahoma;}.cls-3{fill:#faa51d;}.cls-4{fill:#76c043;}</style></defs><title>Artboard 1</title><path class="cls-1" d="M555.09,306.65a37.43,37.43,0,0,1-4,17.69A36.17,36.17,0,0,1,540.21,337a51.52,51.52,0,0,1-17.28,8.44q-9.21,2.47-23.79,2.48h-41V213.6h37.89a200.35,200.35,0,0,1,22.89,1A44.51,44.51,0,0,1,533.57,219a25.71,25.71,0,0,1,11.22,10.13,29.38,29.38,0,0,1,3.55,14.74A28.5,28.5,0,0,1,543,260.82a35.51,35.51,0,0,1-14.73,11.72v.72q12.78,3.24,19.79,11.87t7,21.52m-26.52-60.26a19.13,19.13,0,0,0-1.73-8.43,12.59,12.59,0,0,0-5.57-5.64,27.14,27.14,0,0,0-10.27-3q-5.65-.54-15.64-.54H477.13v39.32h21.59a72.65,72.65,0,0,0,13.15-.86,27.66,27.66,0,0,0,8.73-3.56,14.72,14.72,0,0,0,6.14-6.85,26.41,26.41,0,0,0,1.83-10.46m6.74,61a29.67,29.67,0,0,0-2.3-12.52q-2.31-4.94-9.31-8.37a29.83,29.83,0,0,0-9.85-2.88,134.55,134.55,0,0,0-15.12-.64h-21.6V332.7h15.46a138,138,0,0,0,19.68-1.09,31.8,31.8,0,0,0,12.67-4.6,23.44,23.44,0,0,0,7.87-8q2.51-4.49,2.5-11.62"/><polygon class="cls-1" points="574 347.9 574 213.6 663.49 213.6 663.49 229.49 592.97 229.49 592.97 266.29 658.69 266.29 658.69 282.18 592.97 282.18 592.97 332.01 663.49 332.01 663.49 347.9 574 347.9"/><path class="cls-1" d="M724.08,350.3q-15.54,0-26.42-3a135.69,135.69,0,0,1-20.48-7.43V317.5h1.35a69.48,69.48,0,0,0,21.28,12.83,64.09,64.09,0,0,0,22.92,4.54q15.72,0,23.78-6.17a19.51,19.51,0,0,0,8-16.26q0-8-4.22-13.07t-13.42-7.49q-6.61-1.8-12.08-3t-13.72-3.15a68.85,68.85,0,0,1-13.24-4.6,37.25,37.25,0,0,1-10.36-7.3,31.19,31.19,0,0,1-6.86-10.42,36.41,36.41,0,0,1-2.45-13.84q0-16.32,13.52-27.36t34.52-11a109.23,109.23,0,0,1,22.68,2.26,95.17,95.17,0,0,1,19.81,6.4v21.4H767.3A63.54,63.54,0,0,0,749.85,231a58.11,58.11,0,0,0-22.34-4.38q-13.23,0-21.38,5.81T698,247.72q0,8.55,4.8,13.61t13.9,7.38q6,1.55,14.77,3.47t14.49,3.57q14.77,4.23,21.58,12.8t6.82,21.09a37.89,37.89,0,0,1-3.41,15.51,36.54,36.54,0,0,1-9.54,13,50.56,50.56,0,0,1-15.58,9q-8.68,3.17-21.73,3.16"/><polygon class="cls-1" points="827.15 347.9 827.15 229.49 779.14 229.49 779.14 213.6 894.13 213.6 894.13 229.49 846.12 229.49 846.12 347.9 827.15 347.9"/><text class="cls-2" transform="translate(680.7 400.46)">COIMBRA</text><path class="cls-1" d="M386.86,348.08l-31.48-18.14H273.2l-31.47,18.14c30.11,52.32,120.14,138,217.69,145.4-34-19-88.09-87.45-72.56-145.4"/><path class="cls-3" d="M319.47,249.78h0l-.61-1.06ZM409.08,77.92c.5,39-31.68,120-89.63,135.54l0,36.32L360.56,321,392,339.15c30.26-52.24,59.44-173,17.07-261.23"/><path class="cls-4" d="M268,321h0L267.4,322Zm41.12-107.51c-60.36-.09-179.58,35-234.76,115.84,33.49-19.92,119.77-32.58,162.2,9.86L268,321l41.09-71.18Z"/><path class="cls-1" d="M295,300.22a19.26,19.26,0,1,1,19.26,19.27A19.25,19.25,0,0,1,295,300.22"/></svg>