<?xml version="1.0" encoding="utf-8"?>
<!-- Generator: Adobe Illustrator 23.1.1, SVG Export Plug-In . SVG Version: 6.00 Build 0)  -->
<svg version="1.1" id="Layer_1" xmlns="http://www.w3.org/2000/svg" xmlns:xlink="http://www.w3.org/1999/xlink" x="0px" y="0px"
	 viewBox="0 0 376.1 390" style="enable-background:new 0 0 376.1 390;" xml:space="preserve">
<style type="text/css">
	.st0{fill:#EDA126;}
</style>
<g>
	<path class="st0" d="M130.3,176.5c10.3,0,18.6,8.4,18.6,18.6s-8.3,18.6-18.6,18.6c-10.3,0-18.6-8.3-18.6-18.6
		C111.7,184.8,120,176.5,130.3,176.5 M102.2,134l23.4,17L107,176.5h0c-0.3,0.3-0.5,0.7-0.8,1.1c-5.8,8-7,17.9-4.2,26.7
		c0.1,0.3,0.1,0.5,0.2,0.8c0.2,0.6,0.5,1.1,0.7,1.7c0.1,0.3,0.2,0.6,0.3,0.9c0.1,0.2,0.2,0.3,0.3,0.5c0.3,0.7,0.7,1.3,1,2v0
		c0.2,0.3,0.5,0.7,0.7,1c0.3,0.5,0.7,1.1,1,1.6c0,0,0,0,0,0c0.1,0.1,0.1,0.2,0.2,0.3c0.2,0.2,0.4,0.5,0.6,0.7h0l18.4,25.3L102.1,256
		c-24-28.4-65.1-35.2-97-16.3c-6.9-29.6-6.8-60.3,0-89.5C37,169.2,78.2,162.4,102.2,134"/>
	<path class="st0" d="M193.1,127c3.2,9.8-2.2,20.3-12,23.5c-9.8,3.2-20.3-2.2-23.4-11.9c-3.2-9.8,2.2-20.2,12-23.4
		C179.4,112,189.9,117.3,193.1,127 M224.8,87.2l-8.9,27.5l-30-9.8l0,0c-0.4-0.2-0.9-0.3-1.3-0.4c-9.4-3-19.2-1.1-26.7,4.2
		c-0.2,0.2-0.5,0.3-0.7,0.5c-0.5,0.4-0.9,0.8-1.4,1.2c-0.2,0.2-0.5,0.4-0.7,0.6c-0.2,0.1-0.3,0.3-0.4,0.4c-0.5,0.5-1.1,1-1.6,1.6
		l0,0c-0.3,0.3-0.5,0.6-0.7,0.9c-0.4,0.5-0.8,1-1.2,1.5c0,0,0,0,0,0.1c-0.1,0.1-0.1,0.2-0.2,0.3c-0.2,0.3-0.3,0.5-0.5,0.8v0
		L132,141.8l-23.3-16.9c19.6-31.6,13.4-72.8-14.5-97.3c26-15.7,55.2-25.1,85.1-27.6C171.2,36.1,190.4,73.1,224.8,87.2L224.8,87.2z"
		/>
	<path class="st0" d="M259.5,171.5c-8.3,6-20,4.2-26-4.1c-6-8.3-4.2-20,4.1-26c8.3-6,19.9-4.2,25.9,4.1
		C269.6,153.9,267.8,165.5,259.5,171.5 M307.2,189.4l-28.9,0v-31.6l0,0c0-0.5,0-0.9,0-1.4c0-9.9-4.8-18.6-12.3-24.1
		c-0.2-0.2-0.4-0.4-0.7-0.5c-0.5-0.4-1-0.6-1.6-1c-0.3-0.2-0.5-0.3-0.8-0.5c-0.2-0.1-0.4-0.2-0.5-0.3c-0.7-0.4-1.3-0.7-2-1l0,0
		c-0.3-0.1-0.8-0.3-1.1-0.4c-0.6-0.2-1.2-0.5-1.8-0.6c0,0,0,0-0.1,0c-0.1,0-0.2-0.1-0.3-0.1c-0.3-0.1-0.6-0.2-0.9-0.2l0,0l-29.7-9.7
		l8.9-27.4c36.1,8.9,73.4-9.8,88-43.8c23,19.9,41,44.8,52.6,72.4C339.2,122.6,309.9,152.3,307.2,189.4"/>
	<path class="st0" d="M237.7,248.4c-8.3-6-10.2-17.7-4.1-26c6-8.3,17.7-10.2,26-4.1c8.3,6,10.1,17.6,4.1,26
		C257.6,252.6,246,254.4,237.7,248.4 M235.5,299.3l-8.9-27.5l30-9.8l0,0c0.4-0.1,0.9-0.3,1.3-0.4c9.4-3.1,16.2-10.4,19.1-19.1
		c0.1-0.3,0.2-0.5,0.3-0.8c0.2-0.6,0.3-1.2,0.4-1.8c0.1-0.3,0.2-0.6,0.2-0.9c0-0.2,0-0.4,0.1-0.6c0.1-0.7,0.2-1.5,0.3-2.2l0,0
		c0-0.4,0-0.8,0-1.2c0-0.6,0.1-1.3,0.1-1.9c0,0,0,0,0-0.1c0-0.1,0-0.2,0-0.3c0-0.3,0-0.6,0-0.9l0,0l0-31.3l28.8,0
		c2.7,37.1,32,66.8,68.9,70.2c-11.8,28-29.9,52.8-52.6,72.4C308.8,309.1,271.6,290.5,235.5,299.3L235.5,299.3L235.5,299.3z"/>
	<path class="st0" d="M157.9,251.5c3.2-9.8,13.7-15.1,23.5-12c9.8,3.2,15.1,13.7,12,23.5c-3.2,9.8-13.7,15.1-23.4,11.9
		C160.1,271.7,154.7,261.2,157.9,251.5 M108.7,265.1l23.4-17l18.6,25.5l0,0c0.2,0.4,0.5,0.7,0.8,1.1c5.8,8,14.9,12.2,24.1,12.2
		c0.3,0,0.5,0,0.8,0c0.6,0,1.2-0.1,1.8-0.1c0.3,0,0.6,0,0.9,0c0.2,0,0.4-0.1,0.6-0.1c0.8-0.1,1.5-0.2,2.2-0.4l0,0
		c0.4-0.1,0.8-0.2,1.2-0.3c0.6-0.2,1.2-0.3,1.8-0.5c0,0,0,0,0,0c0.1,0,0.2,0,0.3-0.1c0.3-0.1,0.6-0.2,0.8-0.3l0,0l29.8-9.6l8.9,27.4
		c-34.4,14-53.6,51-45.5,87.2c-30.3-2.5-59.4-12.1-85.1-27.6C122.1,337.9,128.3,296.7,108.7,265.1"/>
</g>
</svg>
