<svg id="Layer_1" data-name="Layer 1" xmlns="http://www.w3.org/2000/svg" viewBox="0 0 608.88 301.04"><defs><style>.cls-1,.cls-3{fill:#eea326;}.cls-2{fill:#676767;}.cls-3{font-size:20.61px;font-family:Tahoma-Bold, Tahoma;font-weight:700;}</style></defs><title>Artboard 1</title><path class="cls-1" d="M117.39,141.49a9.56,9.56,0,1,1-9.53,9.56,9.57,9.57,0,0,1,9.53-9.56M103,119.67l12,8.73-9.53,13.12h0c-.14.18-.28.37-.41.56a15.22,15.22,0,0,0-2.16,13.7c0,.14.07.28.12.42.11.29.24.58.37.87s.1.29.16.43.11.18.15.28c.17.34.34.67.53,1v0c.11.18.23.34.34.51s.35.55.54.8l0,0a.71.71,0,0,0,.1.14l.29.37h0l9.44,13-12,8.68A39.1,39.1,0,0,0,53.17,174a100.79,100.79,0,0,1,0-45.93A39.11,39.11,0,0,0,103,119.67"/><path class="cls-1" d="M149.65,116.12a9.56,9.56,0,1,1-12-6.12,9.56,9.56,0,0,1,12,6.12M166,95.64l-4.59,14.12-15.43-5v0l-.66-.22a15.29,15.29,0,0,0-13.7,2.19c-.12.08-.24.15-.36.24s-.47.4-.71.61-.25.19-.36.3-.14.15-.22.22c-.27.27-.54.53-.8.83h0c-.13.15-.25.33-.38.48a8.59,8.59,0,0,0-.59.76l0,0-.11.13c-.08.13-.17.26-.26.39v0l-9.45,13-12-8.69a39.08,39.08,0,0,0-7.42-49.94A100.78,100.78,0,0,1,142.6,50.88,39.12,39.12,0,0,0,166,95.64Z"/><path class="cls-1" d="M183.75,139a9.55,9.55,0,1,1,2.1-13.33,9.56,9.56,0,0,1-2.1,13.33m24.51,9.18H193.42v-16.2c0-.23,0-.47,0-.7a15.23,15.23,0,0,0-6.31-12.35c-.12-.09-.21-.19-.34-.27s-.53-.32-.81-.49l-.39-.25-.28-.14c-.33-.17-.66-.34-1-.5l0,0c-.18-.08-.38-.14-.57-.22l-.9-.33h0l-.16,0-.45-.13h0l-15.27-5,4.57-14a39.09,39.09,0,0,0,45.19-22.5,100.8,100.8,0,0,1,27,37.16,39.11,39.11,0,0,0-35.37,36"/><path class="cls-1" d="M172.57,178.44a9.56,9.56,0,1,1,13.33-2.13,9.55,9.55,0,0,1-13.33,2.13m-1.15,26.15-4.58-14.13,15.43-5h0l.65-.21a15.25,15.25,0,0,0,9.81-9.82c0-.14.1-.26.15-.41.08-.3.14-.61.21-.92,0-.15.09-.29.12-.45a2.72,2.72,0,0,0,0-.3c.07-.38.13-.75.17-1.14v0c0-.2,0-.41,0-.61s0-.65,0-1c0,0,0,0,0,0s0-.12,0-.18,0-.31,0-.46h0V153.88h14.77a39.09,39.09,0,0,0,35.36,36,100.84,100.84,0,0,1-27,37.17,39.1,39.1,0,0,0-45.19-22.5Z"/><path class="cls-1" d="M131.56,180a9.56,9.56,0,1,1,6.15,12,9.57,9.57,0,0,1-6.15-12m-25.22,7,12-8.72,9.53,13.11v0l.41.57a15.22,15.22,0,0,0,12.36,6.28l.43,0c.31,0,.63-.05.94-.08l.47,0,.3-.06c.38-.05.75-.11,1.13-.19h0c.2,0,.4-.11.59-.16s.64-.16.93-.26c0,0,0,0,0,0l.17,0,.43-.17v0l15.28-4.95L166,206.36a39.11,39.11,0,0,0-23.35,44.77,100.74,100.74,0,0,1-43.68-14.19A39.12,39.12,0,0,0,106.34,187"/><path class="cls-2" d="M548.12,165.18a24,24,0,1,1,0-28.78l10.23-10.24a38.37,38.37,0,1,0,0,49.27Z"/><path class="cls-2" d="M470.31,161.7A24,24,0,0,1,449,174.77a24,24,0,1,1,11.09-45.25L443.87,145.7l5.09,5.09,5.09,5.09,16.17-16.18h0l10.47-10.48a38.36,38.36,0,1,0,.11,43Z"/><path class="cls-2" d="M362.46,112.41a38.17,38.17,0,0,0-10.33,1.41v15.31a24,24,0,1,1-13.65,21.64,5.24,5.24,0,0,1,0-.56v-29.4l0,0V64.44h-14.4v86.35a38.38,38.38,0,1,0,38.38-38.38"/><path class="cls-2" d="M303.84,161.74a24,24,0,0,1-21.36,13.06,23.55,23.55,0,0,1-11.07-2.72,24,24,0,0,1,.17-42.6,23.5,23.5,0,0,1,10.9-2.64,23.9,23.9,0,0,1,11.1,2.71L277.4,145.74l5.09,5.09,5.09,5.09,16.18-16.18h0l10.47-10.48a38.37,38.37,0,1,0,.11,43Z"/><text class="cls-3" transform="translate(457.29 217.6)">COIMBRA</text></svg>