<svg id="Camada_1" data-name="Camada 1" xmlns="http://www.w3.org/2000/svg" xmlns:xlink="http://www.w3.org/1999/xlink" viewBox="0 0 841.89 595.28"><defs><style>.cls-1{fill:none;}.cls-2{clip-path:url(#clip-path);}.cls-3{fill:#e30613;}</style><clipPath id="clip-path"><rect class="cls-1" width="841.89" height="595.28"/></clipPath></defs><title>Prancheta 1</title><g class="cls-2"><path class="cls-3" d="M479.38,396.71h1.52a.17.17,0,0,1,.19.19v12.85a.17.17,0,0,1-.19.19h-1.44a.17.17,0,0,1-.19-.19V398.69a.17.17,0,0,0,0-.07h0l-1.69.44-.07,0c-.08,0-.13-.06-.15-.17l-.08-1.06a.23.23,0,0,1,.13-.23l1.82-.85a.59.59,0,0,1,.22-.05"/><path class="cls-3" d="M489.4,406.8a3.2,3.2,0,0,1-.89,2.39,3.13,3.13,0,0,1-2.34.9,2.91,2.91,0,0,1-2.2-.9,3.26,3.26,0,0,1-.86-2.39v-.42a.17.17,0,0,1,.19-.19h1.43a.17.17,0,0,1,.19.19v.35a2.08,2.08,0,0,0,.36,1.25,1.08,1.08,0,0,0,.89.48,1.25,1.25,0,0,0,1-.47,2,2,0,0,0,.39-1.26v-2.09c0-.06,0-.07-.1,0a1.88,1.88,0,0,1-1.38.55,2.83,2.83,0,0,1-2.08-.81,3.35,3.35,0,0,1-1-2.11,8.82,8.82,0,0,1-.11-1.47,12.77,12.77,0,0,1,.06-1.3,3.13,3.13,0,0,1,.94-2.16,3.22,3.22,0,0,1,2.23-.75,3.12,3.12,0,0,1,2.12.7,3.18,3.18,0,0,1,1,2.06,7.24,7.24,0,0,1,.11,1.32Zm-1.83-5.92a11.58,11.58,0,0,0-.08-1.36c-.17-.93-.61-1.39-1.32-1.39a1.19,1.19,0,0,0-.9.37,2.18,2.18,0,0,0-.46,1.12q-.06.67-.06,1.26a9.72,9.72,0,0,0,.12,1.48c.17.82.61,1.23,1.3,1.23s1.13-.43,1.3-1.29a8.53,8.53,0,0,0,.1-1.42"/><path class="cls-3" d="M496.13,403a2.17,2.17,0,0,1,1,1.07,5.08,5.08,0,0,1,.4,2.1,5.63,5.63,0,0,1-.26,1.79,3.22,3.22,0,0,1-1.13,1.55,3,3,0,0,1-1.82.56,3,3,0,0,1-1.81-.55,3.16,3.16,0,0,1-1.12-1.55,5.31,5.31,0,0,1-.29-1.8,5,5,0,0,1,.35-2,2.13,2.13,0,0,1,1.05-1.19s0-.07,0-.12a2.63,2.63,0,0,1-1-1.07,4.1,4.1,0,0,1-.4-1.85,4,4,0,0,1,.4-1.87,2.68,2.68,0,0,1,1.12-1.21,3.35,3.35,0,0,1,1.7-.43,3.47,3.47,0,0,1,1.67.41,2.86,2.86,0,0,1,1.13,1.18,4.13,4.13,0,0,1,.41,1.92,4,4,0,0,1-.38,1.83,2.45,2.45,0,0,1-1,1.07q-.09.06,0,.12m-3.25-2.87a3,3,0,0,0,.23,1.22,1.37,1.37,0,0,0,.46.67,1.26,1.26,0,0,0,1.48,0,1.42,1.42,0,0,0,.48-.7,3.06,3.06,0,0,0,.2-1.17,2.56,2.56,0,0,0-.26-1.24,1.23,1.23,0,0,0-2.36.07,2.68,2.68,0,0,0-.23,1.17m2.84,6a4.17,4.17,0,0,0-.21-1.4,1.46,1.46,0,0,0-.46-.76,1.11,1.11,0,0,0-.75-.26,1.19,1.19,0,0,0-.78.27,1.65,1.65,0,0,0-.47.81,4.5,4.5,0,0,0-.17,1.32,4.77,4.77,0,0,0,.13,1.21,1.85,1.85,0,0,0,.49.91,1.17,1.17,0,0,0,1.63,0,1.78,1.78,0,0,0,.47-.95,4.78,4.78,0,0,0,.12-1.13"/><path class="cls-3" d="M504.24,403a2.21,2.21,0,0,1,1,1.07,5.08,5.08,0,0,1,.4,2.1,5.35,5.35,0,0,1-.27,1.79,3.21,3.21,0,0,1-1.12,1.55,3,3,0,0,1-1.82.56,3,3,0,0,1-1.81-.55,3.16,3.16,0,0,1-1.12-1.55,5.31,5.31,0,0,1-.29-1.8,5,5,0,0,1,.34-2,2.18,2.18,0,0,1,1.06-1.19c.05,0,.05-.07,0-.12a2.56,2.56,0,0,1-1-1.07,4.1,4.1,0,0,1-.4-1.85,4,4,0,0,1,.4-1.87,2.63,2.63,0,0,1,1.12-1.21,3.35,3.35,0,0,1,1.7-.43,3.5,3.5,0,0,1,1.67.41,2.83,2.83,0,0,1,1.12,1.18,4,4,0,0,1,.42,1.92,4.09,4.09,0,0,1-.38,1.83,2.51,2.51,0,0,1-1,1.07q-.09.06,0,.12M501,400.15a2.8,2.8,0,0,0,.23,1.22,1.37,1.37,0,0,0,.46.67,1.26,1.26,0,0,0,1.48,0,1.41,1.41,0,0,0,.47-.7,3.05,3.05,0,0,0,.21-1.17,2.68,2.68,0,0,0-.26-1.24,1.23,1.23,0,0,0-2.36.07,2.54,2.54,0,0,0-.23,1.17m2.83,6a4.45,4.45,0,0,0-.2-1.4,1.46,1.46,0,0,0-.46-.76,1.11,1.11,0,0,0-.75-.26,1.17,1.17,0,0,0-.78.27,1.65,1.65,0,0,0-.47.81,4.5,4.5,0,0,0-.17,1.32,4.77,4.77,0,0,0,.13,1.21,1.93,1.93,0,0,0,.48.91,1.18,1.18,0,0,0,1.64,0,1.85,1.85,0,0,0,.47-.95,4.81,4.81,0,0,0,.11-1.13"/><path class="cls-3" d="M342.09,398.28h-4.25s-.08,0-.08.07v4.1c0,.06,0,.07.08.07h2.61a.18.18,0,0,1,.19.2v1.19a.17.17,0,0,1-.19.18h-2.61a.07.07,0,0,0-.08.08v4.13a.07.07,0,0,0,.08.07h4.25a.17.17,0,0,1,.19.19v1.19c0,.12-.06.18-.19.18h-5.95c-.13,0-.19-.06-.19-.18V396.89c0-.12.06-.18.19-.18h5.95c.13,0,.19.06.19.18v1.19c0,.14-.06.2-.19.2"/><path class="cls-3" d="M344.58,409.16a3.38,3.38,0,0,1-.92-2.45v-.5a.17.17,0,0,1,.19-.18h1.4c.13,0,.19.06.19.18v.4a2.08,2.08,0,0,0,.43,1.39,1.48,1.48,0,0,0,2.24,0,2.11,2.11,0,0,0,.21-2.28,2.88,2.88,0,0,0-.62-.74c-.26-.22-.68-.55-1.26-1a16.42,16.42,0,0,1-1.51-1.23,4.58,4.58,0,0,1-.93-1.22,3.63,3.63,0,0,1-.37-1.69,3.3,3.3,0,0,1,.9-2.43,3.58,3.58,0,0,1,4.79.06,3.51,3.51,0,0,1,.92,2.54v.47c0,.13-.06.2-.19.2h-1.4a.18.18,0,0,1-.19-.2V400a2.08,2.08,0,0,0-.43-1.37,1.43,1.43,0,0,0-1.14-.51,1.35,1.35,0,0,0-1.07.46,1.84,1.84,0,0,0-.42,1.29,2,2,0,0,0,.42,1.28,9,9,0,0,0,1.6,1.39c.76.57,1.33,1,1.72,1.37a4,4,0,0,1,.88,1.17,3.35,3.35,0,0,1,.32,1.5,3.51,3.51,0,0,1-.93,2.55,3.57,3.57,0,0,1-4.83,0"/><path class="cls-3" d="M358.52,396.89v1.19c0,.13-.06.2-.19.2h-2.48c-.05,0-.07,0-.07.07v11.4c0,.12-.06.18-.19.18h-1.44a.17.17,0,0,1-.19-.18v-11.4c0-.05,0-.07-.07-.07h-2.35c-.12,0-.18-.07-.18-.2v-1.19a.16.16,0,0,1,.18-.18h6.79c.13,0,.19.06.19.18"/><path class="cls-3" d="M326.69,403.07a1.64,1.64,0,1,1-1.64-1.63,1.63,1.63,0,0,1,1.64,1.63"/><path class="cls-3" d="M518.47,403.07a1.64,1.64,0,1,1-1.63-1.63,1.63,1.63,0,0,1,1.63,1.63"/><path class="cls-3" d="M378.63,403.39a4.7,4.7,0,0,0,.77-.76s.11-.27.3-.78a9.68,9.68,0,0,0,.36-2,16.82,16.82,0,0,0,0-3c0-.08-.07-.22-.13-.41s-.11-.3-.17-.48a4.19,4.19,0,0,0-.35-.73l-.06-.08c-.05-.06-.12-.17-.24-.3a3.5,3.5,0,0,1-.29-.34c-.12-.15-.24-.3-.32-.38a1.49,1.49,0,0,0-.61-.35,17.17,17.17,0,0,0-1.68-.52l-.76-.08a.49.49,0,0,1-.19-.05.28.28,0,0,1-.13,0,2.33,2.33,0,0,0-.71,0h-.45a4.49,4.49,0,0,0-.74,0h-1.77l-.82,0-.85,0a2.34,2.34,0,0,0-.63,0l-.05,0v1.32a1.68,1.68,0,0,0,0,.27,3.58,3.58,0,0,1,.06.53V396a2.69,2.69,0,0,0,0,.68v.15c0,.24,0,.72,0,1.15,0,.23,0,.44,0,.57s0,.16,0,.25,0,.18,0,.23,0,.15,0,.25,0,.2,0,.27c0,.28,0,.72,0,1.32,0,.19,0,.52,0,.86s-.05.71-.05.94l0,3a7.14,7.14,0,0,0,0,1,.14.14,0,0,1,0,.06,17.25,17.25,0,0,1,0,2c0,.78,0,1.59,0,2.38a9.75,9.75,0,0,0,.08,1.91c.17,0,.36,0,.57.07a4.71,4.71,0,0,0,.71.09,8.16,8.16,0,0,0,1.8-.25c0-.27,0-.62,0-1s0-.93,0-1.21V409c0-1.88,0-3.08.12-3.9a.28.28,0,0,1,.28-.25c.66,0,2.05,0,2.71-.09a6.7,6.7,0,0,0,2.33-.71Zm-1.76-4.55c-.05.42-.07.65-.1.76a2.85,2.85,0,0,1-.06.68.33.33,0,0,1-.09.22.52.52,0,0,1-.11.41l-.25.34a.28.28,0,0,1-.1.09,4.7,4.7,0,0,1-2.08.42,9.75,9.75,0,0,1-1.46-.13.28.28,0,0,1-.22-.22,13,13,0,0,1-.1-2.56c.05-1,.09-2,.06-2.5a.27.27,0,0,1,.25-.29,7.16,7.16,0,0,1,3.49.26.35.35,0,0,1,.11.1,3.7,3.7,0,0,1,.69,2.13Z"/><path class="cls-3" d="M393.19,404.57a.39.39,0,0,1-.06-.13h0a3,3,0,0,1-.08-.82c0-.43,0-.68,0-.83v-1.35l-.06-3.05a6.66,6.66,0,0,0-.32-2.42,7.6,7.6,0,0,0-1.12-1.94l-.25-.16a8.1,8.1,0,0,0-1.21-.66l-.2,0-.41-.17a3.74,3.74,0,0,0-.67-.26,9.89,9.89,0,0,0-3,.16,9.8,9.8,0,0,1-1.19.52l-.43.17a5.64,5.64,0,0,0-1.16,1l-.47.44a1.45,1.45,0,0,0-.32.62.39.39,0,0,1-.07.16.28.28,0,0,0-.05.09,2.14,2.14,0,0,0-.06.75v.07l0,1.18c0,.57,0,1,0,1.25v2c0,.29,0,.91,0,1.83s0,1.57,0,2.06a2.55,2.55,0,0,1,0,.31c0,.07,0,.26,0,.48s0,.5,0,.61a.2.2,0,0,1,0,.11,2.39,2.39,0,0,0,0,.27,5.69,5.69,0,0,0,.07,1.35,4.78,4.78,0,0,1,.05.5,5.42,5.42,0,0,0,.24,1.33,3.93,3.93,0,0,0,.54,1.06l.37.49a4.77,4.77,0,0,1,.55.46,3.3,3.3,0,0,0,.37.34l.55.35a4.12,4.12,0,0,1,.47.25l.11.06.65.28a5,5,0,0,0,.72.07h0a3.09,3.09,0,0,1,.48.07,1.18,1.18,0,0,0,.29.05,8.62,8.62,0,0,0,1.56-.26,5.58,5.58,0,0,0,1.38-.5,6.56,6.56,0,0,0,.61-.32l.24-.21a5,5,0,0,0,.78-.61,9.57,9.57,0,0,0,.59-.8,1.57,1.57,0,0,0,.24-1,.26.26,0,0,1,0-.15,22.68,22.68,0,0,0,.29-4.85,1,1,0,0,1,0-.19m-3.31,2.9a.75.75,0,0,0,0,.11,2.88,2.88,0,0,1,0,.92.4.4,0,0,1-.1.21l-.06.23a.42.42,0,0,1-.09.14l0,0a.44.44,0,0,1-.15.3.24.24,0,0,1-.09.06,2.37,2.37,0,0,1-1.86.78,4.87,4.87,0,0,1-1-.12l-.11-.05-.4-.33a.35.35,0,0,1-.13-.26,3.79,3.79,0,0,1-.5-2.37c0-.21,0-1.5-.06-2.53,0-.45,0-1.51,0-3.25,0-.78,0-1.43,0-1.94s0-1.07,0-1.32a3,3,0,0,1,.12-1.13,1.62,1.62,0,0,1,.58-.69,2.73,2.73,0,0,1,1.7-.48h0a1.39,1.39,0,0,1,.73.16l.1.08a1.15,1.15,0,0,1,.3.13l.05.07.14,0a.16.16,0,0,1,.08.06,2.15,2.15,0,0,1,.61,1s0,.05,0,.08v.79c0,.27,0,.89,0,1.29v.33a3.61,3.61,0,0,1,0,.95v.9a7.3,7.3,0,0,0,.16,1.91.25.25,0,0,1,0,.19,2.81,2.81,0,0,0,0,.84c0,.58,0,1.07,0,1.44v0a11.09,11.09,0,0,1-.06,1.36Z"/><path class="cls-3" d="M406,395.27a4.9,4.9,0,0,0-1.51-1.62.33.33,0,0,1-.22,0l0,0a5.86,5.86,0,0,0-1-.34,26,26,0,0,0-5.37-.43c-.76,0-1.36,0-1.81,0a.27.27,0,0,1-.08.24l0,0a.27.27,0,0,1-.2.08c0,.39,0,.87,0,1.44,0,.74,0,1.25,0,1.57,0,.63,0,1.39,0,2.26v2.06c0,.15,0,.44,0,.75a12.14,12.14,0,0,0-.05,1.26v4.13c0,.89,0,1.54,0,2v.71a9.49,9.49,0,0,1,0,1.08l0,.55c0,.56,0,1.21,0,1.94a6.43,6.43,0,0,0,1.3.27,5.32,5.32,0,0,0,1.92-.08l.07-.18a.43.43,0,0,0,.05-.13v-.77c0-.45,0-1.1,0-1.93v-.36a1.65,1.65,0,0,1,0-.21c0-.06,0-.11,0-.15,0-1.35,0-2.88.13-4.33a.26.26,0,0,1,.11-.21.23.23,0,0,1,.23,0,2.08,2.08,0,0,0,1.11,0,.36.36,0,0,1,.23,0,.33.33,0,0,1,.13.19,2.52,2.52,0,0,0,.22.64l.22.61c.32.87.62,1.7.85,2.45l.17.57c.13.43.28,1,.38,1.2.17.52.34,1,.49,1.41l.36,1c.24,0,.57.12.81.17l.21,0a4.28,4.28,0,0,0,2.25,0,1,1,0,0,0-.16-.51,2,2,0,0,1-.11-.26c-.38-1.17-.7-2-.9-2.46l-.59-1.63c-.23-.65-.41-1.17-.56-1.66a11.89,11.89,0,0,1-.74-2.08.27.27,0,0,1,.16-.34,3.38,3.38,0,0,0,.59-.47,6.48,6.48,0,0,0,1.41-1.42,4.15,4.15,0,0,0,.49-1.25,8.42,8.42,0,0,0,.27-1.73,2.24,2.24,0,0,0,0-.62v-.13c0-.15,0-.45,0-.9a1.6,1.6,0,0,0,0-.63s0,0,0-.07l0-.16q0-.22-.18-.69a4.69,4.69,0,0,1-.4-.87m-2.64,3.53a7.1,7.1,0,0,1-.1,1.37c-.18.66-.27.82-.36.91a5.93,5.93,0,0,1-3.13.55c-.25,0-.59.05-.66-.2a4.55,4.55,0,0,1,0-1.38V396.3a.27.27,0,0,1,.27-.27h1.24a4.76,4.76,0,0,1,1.9.19,1.52,1.52,0,0,1,.73.68,5,5,0,0,1,.15,1.67Z"/><path class="cls-3" d="M419.2,393.67a.17.17,0,0,1,0-.07A2.15,2.15,0,0,0,419,393h-.16a16.21,16.21,0,0,1-2.32,0c-.53,0-1.73-.06-3.46,0h-5.8a4.82,4.82,0,0,0-.16,3,3.37,3.37,0,0,0,.73.06l.52,0h2.91a.27.27,0,0,1,.27.22,5.21,5.21,0,0,1,0,.94l0,.47a8.41,8.41,0,0,0,0,1.27,8.81,8.81,0,0,1,0,1.32,11.28,11.28,0,0,0,0,1.69c0,.51,0,.91,0,1.2s0,.44,0,.51v1.73c0,.76,0,1.32,0,1.7s0,.63,0,1.06l-.05,1c0,.41,0,.73,0,1v3a3.23,3.23,0,0,0,.83.15l1.15.07h.2a4.68,4.68,0,0,0,.69-.09l.36-.05c0-.24,0-.52,0-.84l0-.94c0-.43,0-.78,0-1.06v-.85a3.78,3.78,0,0,1,0-.89v-1.49c0-.19,0-.54,0-.89s0-.68,0-.87l0-1.8a.63.63,0,0,1,0-.2v-.53a2.14,2.14,0,0,0,0-.42.29.29,0,0,1,0-.16c.07-.94.09-1.31.09-1.44s0-.33,0-.53,0-.4,0-.5,0-.37,0-.62,0-.54,0-.7a12.53,12.53,0,0,1,0-2.32.28.28,0,0,1,.08-.15.45.45,0,0,1,.42-.06l.12,0h3.32l.25,0a3.47,3.47,0,0,0,.34-1.16,3.82,3.82,0,0,0-.11-1.06"/><path class="cls-3" d="M431.48,393a3.53,3.53,0,0,0-1.84-.13.26.26,0,0,1-.15,0,4.12,4.12,0,0,0-.69.07,2.79,2.79,0,0,0-.57.1l-.05,1.58c0,.11,0,.25,0,.41s0,.3,0,.43c0,.3,0,.78,0,1.24s0,.84,0,1.08v2c0,.42,0,1.05-.05,1.68s0,1.14,0,1.51a.36.36,0,0,1,0,.18l0,0a.25.25,0,0,1,0,.08c0,1.07,0,1.84,0,2.34,0,1.18,0,1.95,0,2.34a1.21,1.21,0,0,1,0,.8,1.28,1.28,0,0,1-.13.52,1.66,1.66,0,0,1-1.26.85,1,1,0,0,0-.26,0l-.28.08c-.1,0-.08,0-1-.07a1.77,1.77,0,0,1-1.39-1.08,4.19,4.19,0,0,1-.15-1.61c-.06-1.4-.09-2.24-.06-2.63l.09-3.6c0-.43,0-1.05,0-1.8v-4.18a5.66,5.66,0,0,0-.06-.87.32.32,0,0,1,0-.14.74.74,0,0,1,0-.28,3.35,3.35,0,0,1,0-.45,4,4,0,0,0,0-.49c-.23,0-.55-.06-.89-.12a4.45,4.45,0,0,0-1.14-.06l-1.26.22,0,0c0,.35,0,1.05,0,2.07v9a1.71,1.71,0,0,0,0,.36.28.28,0,0,1,0,.28,2.77,2.77,0,0,0,0,.86c0,.18,0,.35,0,.47-.06.64-.09,1-.1,1a13.25,13.25,0,0,0,.13,2.12,7.5,7.5,0,0,0,.24,1,5.67,5.67,0,0,0,.75,1.1,5.64,5.64,0,0,1,.35.46l.05,0a3.42,3.42,0,0,0,1.26.86l.4.18.36.15a5.21,5.21,0,0,0,1,.19,8.45,8.45,0,0,0,2.79-.14l.52-.09.36-.21.37-.14,0,0a.57.57,0,0,1,.13-.08s.06,0,.08,0a.18.18,0,0,1,.1-.07,1.46,1.46,0,0,0,.27-.11c.06-.06.25-.24.59-.54a2.48,2.48,0,0,0,.63-.74l.15-.18a.45.45,0,0,1,0-.16.37.37,0,0,1,.11-.2h0a10.92,10.92,0,0,0,.23-1.14,2.27,2.27,0,0,0,.15-.43,8.48,8.48,0,0,0-.06-1.15c0-.15,0-.35,0-.63l0-.61a4,4,0,0,0,0-1.05.44.44,0,0,1,0-.16c0-.15,0-1.24,0-2.89v-1.59c0-.74,0-1.29,0-1.67,0-.73,0-1.25,0-1.62a19.81,19.81,0,0,1,.06-2.27,20.39,20.39,0,0,0,0-2.16l0-.1"/><path class="cls-3" d="M444.57,411.48c0-.33,0-.72,0-1.18s0-.73,0-1.16c0-1,0-1.79-.06-2.25a20.67,20.67,0,0,1,0-2.47c0-.88.08-1.52.09-2-.5,0-1.31,0-2.48,0h-.36a8.16,8.16,0,0,0-1,0,6.19,6.19,0,0,1-.75,0h-.47a.39.39,0,0,1-.1.08,5.52,5.52,0,0,0-.15,2.7c.48,0,1.28,0,1.61,0a.29.29,0,0,1,.28.18,8.75,8.75,0,0,1,0,1.5c0,.09,0,.23,0,.4a5,5,0,0,1,0,.92,4.91,4.91,0,0,1-.35,1.08l0,.06a2.42,2.42,0,0,1-1.52.9,1.58,1.58,0,0,1-.63.06,2.73,2.73,0,0,1-1-.19,1.73,1.73,0,0,1-.93-1.27,18.59,18.59,0,0,1-.2-3.36c0-.16,0-.44,0-.74s0-.62,0-.82v-1.73c0-.09,0-.32,0-.69a4.5,4.5,0,0,1,0-1v-.38c0-.42,0-.75,0-1v-1.47a1.55,1.55,0,0,1,.66-1.32,1.89,1.89,0,0,1,.8-.44l.94-.27h.14a3,3,0,0,1,1.27.51,4,4,0,0,1,.75,3.11l.94.08.38,0,.89,0a9.33,9.33,0,0,0,1.05-.08,3.79,3.79,0,0,0,0-.38v-.14a5.9,5.9,0,0,0,0-1.78c0-.12-.12-.4-.27-.83a5.42,5.42,0,0,0-.7-1.49,3.87,3.87,0,0,0-1.25-1.27l-.42-.21A7,7,0,0,1,441,393l-.41-.08-.19-.06a1.58,1.58,0,0,0-.31-.08,19.91,19.91,0,0,0-2.57.11,4.22,4.22,0,0,0-1.8.73l-.61.35-.17.09a.63.63,0,0,0-.12.11,1.06,1.06,0,0,1-.2.17v0c-.07.1-.18.27-.34.48l-.38.52a1.25,1.25,0,0,1-.19.45l-.16.43c0,.07-.08.6-.14,1.62,0,.61,0,1.31,0,2.16l0,.84c0,.61,0,1.15,0,1.53v2.94c0,1.23,0,2.13,0,2.74a2.36,2.36,0,0,1,.1,1.07,2.47,2.47,0,0,0,.16,1,9.67,9.67,0,0,0,1.05,1.47,5.71,5.71,0,0,0,1.28,1.18,1.27,1.27,0,0,1,.24.07l.08,0a.25.25,0,0,1,.17,0,.26.26,0,0,1,.11.07,5.21,5.21,0,0,0,3.15.15c.06,0,.47-.19,1.31-.57s.84-.42.84-.43a.28.28,0,0,1,.24-.13h0a.31.31,0,0,1,.23.14,2.12,2.12,0,0,1,.18.54c0,.08,0,.2.07.29l.08,0a3.67,3.67,0,0,0,1.7.14l.06-.05,0-.13c0-.16,0-.34,0-.54a6.44,6.44,0,0,0,0-.93"/><path class="cls-3" d="M447.9,404.22c0,.2-.06.43-.1.69l-.05.46c0,.26-.05.43-.07.53a2.16,2.16,0,0,0-.18.68s0,.05,0,.08l-.31,1.08c0,.13-.07.35-.11.58-.09.53-.21,1.17-.29,1.5a5.89,5.89,0,0,1-.19.95c-.18,1.17-.3,1.92-.4,2.31a.15.15,0,0,0,0,.06,15.86,15.86,0,0,0,3.22,0,20,20,0,0,0,.52-2c.12-.53.22-1,.29-1.25s.1-.39.11-.47a.27.27,0,0,1,.27-.22l1.12,0,.82,0a22.23,22.23,0,0,1,2.28,0,.27.27,0,0,1,.25.2c0,.05.05.19.1.44.1.41.26,1.12.49,2.13a10.05,10.05,0,0,1,.31,1.26,27.91,27.91,0,0,0,3.24-.08.28.28,0,0,1,0-.09l-.18-1.07-.16-.73c-.08-.34-.21-.84-.37-1.52-.05-.33-.11-.59-.15-.8s-.08-.43-.1-.54-.33-1-.42-1.32c-.08-.59-.18-1-.27-1.43l-.05-.23c-.11-.56-.29-1.44-.58-2.64s-.47-2-.59-2.59a2.16,2.16,0,0,1-.05-.24c0-.2-.1-.51-.2-.93-.15-.67-.27-1.2-.37-1.55l-.24-.84-.16-1c-.27-1.09-.47-2.06-.57-2.63l0,0a17.63,17.63,0,0,0-4.29,0c-.06.15-.18.56-.23.76a11.39,11.39,0,0,0-.25,1.17l-.09.44a14.35,14.35,0,0,1-.25,1.62,1.37,1.37,0,0,1-.17.58,2.23,2.23,0,0,0-.13.64.3.3,0,0,1,0,.1,3.11,3.11,0,0,0-.2.71c0,.25-.1.64-.2,1.17l-.1.53a10,10,0,0,0-.19,1,1.1,1.1,0,0,1-.11.22,1.72,1.72,0,0,1-.18.57l-.09.46-.25.94c0,.08,0,.23-.05.41m4.43-4.47a.28.28,0,0,1,.25-.23.32.32,0,0,1,.28.18,9.74,9.74,0,0,1,.28,1.09l0,.15c.16.51.25.86.28,1l.06.27c.11.5.36,1.64.74,3.4a.27.27,0,0,1-.05.23.29.29,0,0,1-.21.11c-1.28,0-2,.07-2.43.07l-.37,0a.28.28,0,0,1-.19-.12.28.28,0,0,1,0-.22c.66-2.69,1.14-4.72,1.36-5.91"/><path class="cls-3" d="M471.31,411.86a12.22,12.22,0,0,0-.2-1.57l-.35,0-.83,0a10.44,10.44,0,0,0-1.67,0h-.36a10.22,10.22,0,0,0-1.12,0,15.67,15.67,0,0,1-1.67,0,.28.28,0,0,1-.23-.21,9.58,9.58,0,0,1-.07-1.92c0-.5,0-.9,0-1.21s0-.5,0-.6a1.93,1.93,0,0,0,0-.23c0-.08,0-.17,0-.21a3.92,3.92,0,0,0,0-.42,3,3,0,0,1-.07-.52,3.61,3.61,0,0,1,0-.63c0-.06,0-.11,0-.14l-.09-.7v-2.35a5.62,5.62,0,0,0,0-1.13c0-.3,0-.54,0-.73a3.83,3.83,0,0,1,0-.4c0-.05,0-.15,0-.26a4.55,4.55,0,0,0,0-.62v-1a5.35,5.35,0,0,1,0-1.06v-3c-.12,0-.35,0-1.23,0h-.15a7.74,7.74,0,0,0-.88,0,6,6,0,0,0-.81.12.28.28,0,0,1-.1.09c0,.18,0,.41,0,.68l0,.64a10.31,10.31,0,0,0,0,1.59v4.45c0,.76,0,1.5,0,2.25,0,.24,0,.67,0,1.1s0,.83,0,1.06a5.92,5.92,0,0,1-.06.67c0,.18,0,.34,0,.45l.13,1.17v.68c0,.1,0,.23,0,.4l0,.3s0,.3.09.79,0,1.18,0,2.1l0,.8c0,.34,0,.62,0,.83l.1.07a.35.35,0,0,1,.08.13l1.43,0,2.56,0,.68,0,1-.07.48,0h1.11c.58,0,1.15,0,1.68,0l.55.07a.29.29,0,0,1,0-.14,1.27,1.27,0,0,1,.08-.23,3.45,3.45,0,0,0,.11-1"/><path class="cls-3" d="M321.23,355.22c16.44-.18,18.58-39.49,19.12-50.39.71-13,22.33-2.5,22.69,5.19.54,10.54-6.25,55.57,8.76,59.14,9.11,2.14,6.25,9.29-7,7-21.62-3.75-22.34-26.45-22.34-26.45s-7.32,25.38-26.8,22.52c-19.48-3-24.48-20.73-26.09-37.35-1.43-13.22,0-28.23,2.5-30.55,2.68-2.5,21.09-7,20.73,3-.36,7.15-3,48.07,8.4,47.89"/><path class="cls-3" d="M405.41,289c0,1.56.13,5.61.13,5.61s22.39-2,22.21,3.74c.18,5.95-20.32,9.12-20.32,9.12s1.92,32-.23,52.36c-2.5,20.23-10.54,17-16.44,14.79-5.9-1.7-5.13-64.26-5.13-64.26s-17.51,3.91-19.3-4.25c-1.25-6.46,18.23-10.2,18.23-10.2s-.77-11.33.48-16.6c1.61-8.33,20.37-.35,20.37,9.69"/><path class="cls-3" d="M448.26,376.31c-41.46.89-42.89-65.4-8.22-67.72,21.08-1.26,16.08-7.51,21.44-4.47,32.88,20,19.66,71.29-13.22,72.19m-2-8c10.19-1.43,18.77-37.35,9.83-45.93-6.61-7-10.72-7.14-15.54-2.68-4.47,4.47-4.47,49.86,5.71,48.61"/><path class="cls-3" d="M616.85,316.1c-10.18,13.18-8.64,41.5-2.57,41.92,7.68.13,18.15-15.54,18.18-20.91s-.42-20.58,4.59-20.74c5.37-.14,16.52-6.13,14.68,13.11-1.49,19.25.26,29,7.87,30.9,10.29,2.2,17.47-16.29,20.45-14.74,3.32,1.75-2.2,23.52-21.59,29.89-20.66,6.68-25.94-17.67-25.94-17.67S626,372.44,609.4,372.49c-16.8-.14-30.47-24.83-18.14-51.34,8.39-17.67,27.42-23.12,38.62-23.12,13.12,0,16.83,5.42,16.83,8.28,0,1.73-.74,3.45-2.88,3.45s-3.12-2.6-10.5-2.6c-6.23,0-12.86,4.25-16.48,8.94"/><path class="cls-3" d="M196.79,363.21c-5.3-8.56-9.92-27.13-11.77-37.09-2.81-13.25-2.71-20.67-5.65-20.37-6.9.7-26-4.57-15.16-9.89,4.73-1.32,9.67-2.67,14.59-4.22.46-8.08.83-19.11,1.7-27.24,4.19-27.7,23.21-40.4,46.39-39.13,7.83,0,32.39,4.56,36.94,11.93,4.51,11.17-30.61,4.77-34.25,4.29-36.18-6.51-26.82,36.11-26.75,45.19,6.22-1.26,36.39-2,35.93,6.11.25,2.52-28.07,9-33.45,10.14-.62,8.52,8.41,47.79,18.66,67.69-.9,10-20.9,2.53-27.18-7.41"/><path class="cls-3" d="M234.45,309.16a6.46,6.46,0,0,1,1-4.06c1.19-1.93,3.65-2.66,5.78-2.84,2.29-.18,5.38-.12,6.4,2.33a33.89,33.89,0,0,1,2.05,6.91c.29,1.64.26,3.43,2,2.29s3-3.27,4.35-4.65A32.37,32.37,0,0,1,271,299.89c4.47-1.42,9.77-1.63,14.4.7,3.63,2.39-.41,10.15-8.65,12.49-16.32,4.33-17.55,23.4-16.68,37.92.9,15.24-3.72,22.92-11.14,23.63-8.66.94-10.63-6.76-11.59-27-.19-7.52.45-13.06.39-20.58a48.63,48.63,0,0,0-1.64-10.44c-.37-1.61-.8-3.19-1.2-4.78a16.54,16.54,0,0,1-.48-2.7"/><path class="cls-3" d="M487.67,309.16a6.46,6.46,0,0,1,1-4.06c1.19-1.93,3.65-2.66,5.78-2.84s5.38-.12,6.4,2.33a33.25,33.25,0,0,1,2,6.91c.3,1.64.27,3.43,2,2.29s3-3.27,4.35-4.65a32.37,32.37,0,0,1,15.08-9.25c4.47-1.42,9.77-1.63,14.4.7,3.63,2.39-.41,10.15-8.65,12.49-16.32,4.33-17.55,23.4-16.68,37.92.9,15.24-3.72,22.92-11.14,23.63-8.67.94-10.63-6.76-11.59-27-.2-7.52.45-13.06.39-20.58a48.63,48.63,0,0,0-1.64-10.44c-.37-1.61-.8-3.19-1.2-4.78a16.54,16.54,0,0,1-.48-2.7"/><path class="cls-3" d="M543.39,309.16a6.54,6.54,0,0,1,1-4.06c1.18-1.93,3.65-2.66,5.77-2.84,2.29-.18,5.39-.12,6.41,2.33a33.86,33.86,0,0,1,2,6.91c.3,1.64.26,3.43,2,2.29s3-3.27,4.34-4.65A32.37,32.37,0,0,1,580,299.89c4.47-1.42,9.77-1.63,14.4.7,3.63,2.39-.41,10.15-8.65,12.49-16.31,4.33-17.54,23.4-16.68,37.92.9,15.24-3.71,22.92-11.14,23.63-8.66.94-10.62-6.76-11.58-27-.2-7.52.44-13.06.38-20.58a48.63,48.63,0,0,0-1.64-10.44c-.37-1.61-.8-3.19-1.19-4.78a15.6,15.6,0,0,1-.49-2.7"/><path class="cls-3" d="M386.91,257.15c-1.24,1.24-4.87-1.52-8.86-8.08a84.25,84.25,0,0,1-6.15-12.5c-.51-1.27-1-2.59-1.5-4l-.36-1.08c-.19-.56-.37-1.22-.55-1.83-.38-1.26-.71-2.54-1-3.84a40.11,40.11,0,0,1-1.16-7.8,12.69,12.69,0,0,1,1.31-6.3,8.21,8.21,0,0,1,1.95-2.44,9.3,9.3,0,0,1,3.15-1.69,11.41,11.41,0,0,1,6.27,0c5.61,1.87,11.74,7.06,13.16,8,0,0,.87.52,1.15.71a.57.57,0,0,0,.35.13c.23,0,.34-.25.5-.56.45-.91.93-1.92,1.39-2.85.92-1.86,8.65-16.52,9.21-17.48s1-1.79,2.53-4a26.34,26.34,0,0,1,4.4-5,12.49,12.49,0,0,1,5.38-2.79,11.3,11.3,0,0,1,6.05.27,16,16,0,0,1,5.52,4.49c5.72,8.2,14.32,23.85,16.2,26.81a.81.81,0,0,0,1.26.2l1.6-1.06c1.31-.88,8.23-5,10.38-6.16a9.92,9.92,0,0,1,6.67-1.08,10.12,10.12,0,0,1,7.12,5.77,10.7,10.7,0,0,1,.7,4.59c0,3.73-1.18,8.22-2.52,12.46l-.53,1.6-.5,1.45c-.23.62-.46,1.24-.68,1.85-.43,1.13-8,20.42-14.74,28.84-.57.7-2.06,2.72-6.74,3.7a81.59,81.59,0,0,1-13.28,1.31c-4,0-7.66,0-11.11-.2-6.91-.45-12.83-.93-17.64-2.06a44.58,44.58,0,0,1-10.91-3.8c-.6-.34-1.11-.63-1.55-.94a10.81,10.81,0,0,1-1.05-.9c-.52-.55-.71-1-.57-1.3a2.05,2.05,0,0,1,1.46-1,7.33,7.33,0,0,1,1.31-.21c.5-.05,1.08-.12,1.71-.14,2.53-.1,7.59.45,12.21.79,22.29,1.65,34.11-1.16,35-1.33.46-.08.94-.13,1.55-.28a1.57,1.57,0,0,0,1.1-.82c.34-.49,2.25-4,3.14-5.59,1.77-3.25,8.87-22.1,9.8-24.93a17.06,17.06,0,0,0,.49-1.74c.06-.25.18-.87-.23-.87a3,3,0,0,0-1,.51c-.38.24-7,4.24-9.87,5.5a12.89,12.89,0,0,1-2,.66,7.85,7.85,0,0,1-1,.21,9.07,9.07,0,0,1-1,.11,8,8,0,0,1-3.28-.54,8.66,8.66,0,0,1-1.7-.91c-2.22-1.56-3.9-4-5.55-6.61-3.63-5.74-8.38-14.81-10.94-20.07-.93-1.9-1.57-2.51-2.11-2.51s-1,.66-1.35,1.38c-.48,1-1.41,2.82-2,3.73s-1.06,1.82-1.59,2.73c-1,1.84-2.06,3.71-3.08,5.59s-7.77,12.88-11.45,16.19a7.75,7.75,0,0,1-4.23,1.83c-3,.29-4.39-.44-7.31-2.25-.73-.44-7.08-5.16-7.67-5.44a1.62,1.62,0,0,0-.91-.15.67.67,0,0,0-.57.45,7.63,7.63,0,0,0-.31,3,35.73,35.73,0,0,0,.95,5.81c1.08,4.94,2.22,9.2,3.18,12.7,1.9,7,3.3,11,2.47,11.75"/></g></svg>