<svg id="svg2" xmlns="http://www.w3.org/2000/svg" viewBox="0 0 666.67 145.33"><title>Prancheta 1</title><g id="g10"><g id="g12"><path id="path14" d="M303.73.71l-3.06.54v111.6l4.13.8c6.67,1.33,31.2.93,38.4-.67,14.94-3.2,23.47-12.53,24.94-27.46,1.46-13.34-3.47-24.27-13.07-29.21l-4-2.13,3.73-2.4c9.2-5.6,12.53-12.13,12.53-24.13,0-14.67-7.47-23.07-23.73-26.4C336.93-.08,310-.48,303.73.71Zm41.34,7.21a30.61,30.61,0,0,1,10,5.73c4.4,4.13,4.79,5.2,5.2,12.93.66,11.2-2.13,16.8-10.27,20.8-5.2,2.8-7.86,3.07-24.27,3.07h-18.4V6.58l7.74-.53c9.6-.67,23.46.26,30,1.87Zm-1.74,50.66a27.37,27.37,0,0,1,11.34,5.47c8.26,7.2,9.33,24.13,2,34.53-5.34,7.34-20.67,11.2-38.94,9.73l-10.4-.93V57.11H322C330,57.11,339.6,57.78,343.33,58.58Z"/><path id="path16" d="M25.33,6.05C16,9.25,5.86,19.52,2.53,29.11.4,35.38,0,40.31,0,61.78V87.11l4.4,9.07c5.33,10.67,13.07,17.2,24.13,20.53,5.87,1.6,10.54,1.87,22.8,1.21,8.4-.4,17.2-1.34,19.34-1.87l4-1.07.8-14c.39-7.6.8-12.8.93-11.46.93,8.79,12.4,20.79,22.4,23.59,8.67,2.41,22.93,1.07,30-2.8,7.73-4.26,14-12.79,16-21.86l1.6-7.34,2.8,2.54A39.08,39.08,0,0,0,158,89c7.6,3.47,24.27,3.87,31.73.67,5.74-2.4,12.94-8.8,16-14.54,2.27-4,2.27-4,3.07,8.81.53,10.66,1.34,13.86,4.4,19.06,7.47,12.8,20.53,17.07,43.6,14.4,7.47-.93,15.06-2.4,17.06-3.33l3.47-1.6V4.45l-9.6-.4L258,3.65V32.71l-9.73-.66c-17.07-1.07-29.74,4.53-35.6,15.6l-2.53,4.8L210,45.52c-.14-17.74-6-29.07-18.53-35.47-12.27-6.13-29.87-4.67-40.67,3.6-5.2,3.87-10,13.06-11.07,20.8l-.8,5.2-4.13-3.07c-8.66-6.53-13.07-8-24.13-8-17.87,0-28.81,7.47-33.74,23.2l-2.26,7.33h-20l-.4,20.27-.41,20.4H44.4c-11.6,0-16.8-2.8-20.54-10.93-2.13-4.8-2.53-8.8-2.53-28.4,0-20,.27-23.34,2.67-27.87,5.07-10.13,7.33-10.8,30.8-10.4l20.67.4-.4-7.6c-.4-7.33-.67-7.73-4.4-8.8-2.14-.66-11.74-1.47-21.34-1.73C35.2,3.92,30.8,4.18,25.33,6.05ZM183.2,25.92c4.94,3.46,6.8,9.86,6.8,23.46,0,15.07-2.27,20.54-9.86,24.27-4.81,2.27-5.74,2.4-10.67.66-7.2-2.53-10.14-7.86-11.07-20.26-1.47-19.6,4.13-30.27,16.13-30.27C177.6,23.78,181.47,24.71,183.2,25.92ZM119.6,48.71c5.07,4.67,6.4,9.07,6.4,22.4,0,19.2-4,26-15.33,26S94.8,90.05,94.8,71.78c0-15.33,2.27-21.73,8.8-24.67C108.93,44.71,116,45.38,119.6,48.71Zm133.47-.13,4.93.94V101l-7.2.8c-8,1.07-15.2-.67-18.53-4.4-6.54-7.2-6.41-37.46.13-44.8C236.53,48.05,242.53,46.85,253.07,48.58Z"/><path id="path18" d="M172.67,54.45c-5.2,5.2-1.47,14.66,5.73,14.66,3.87,0,8.93-5.19,8.93-9.06s-4.53-8.27-8.66-8.27A9.82,9.82,0,0,0,172.67,54.45Z"/><path id="path20" d="M109.33,76.45c-1.86,1.73-3.33,4.4-3.33,6,0,3.86,4.67,8,9.07,8,7.6,0,11.07-9.2,5.6-14.67C117.07,72.18,113.2,72.45,109.33,76.45Z"/><path id="path22" d="M488,12.18c-.4.8-.53,23.47-.4,50.27l.4,48.66,8,1.74a97.84,97.84,0,0,0,19.6,1.2c9.33-.27,12.26-.94,16-3.47,10.67-7.33,13.6-16.8,12.8-41.73-.54-19.74-2.4-25.47-10.4-32.14-5.33-4.53-10.67-5.46-26.8-4.66l-13.2.66V21.52c0-10.27-.27-11.07-2.67-11.07C489.86,10.45,488.27,11.25,488,12.18Zm40.27,28.4c8,6,9.06,9.87,9.06,31.87,0,22.93-1.47,27.73-9.73,32.93-4.13,2.54-6.67,2.93-15.2,2.8-5.73-.13-12.26-.53-14.4-1.07l-4-.93.27-33.47.4-33.6,4.66-.93a108,108,0,0,1,14.94-.66C522.27,37.78,525.33,38.45,528.27,40.58Z"/><path id="path24" d="M382.67,33.52c-4.94,3.73-1.07,4.93,13.73,4,22.13-1.21,27.6,2.4,28.53,19.06l.4,7.87-16,.66c-18.13.81-24.53,3.07-29.6,10.67-4,5.87-4.26,21.07-.53,28,6.4,12,22.4,13.87,42.94,4.8,1.59-.66,2.39-.13,2.93,1.87s1.6,2.8,3.86,2.4l3.07-.4v-32c0-29.34-.27-32.4-2.67-37.34a24.2,24.2,0,0,0-7.19-8.26c-4.14-2.8-6.14-3.07-20.81-3.07C389.86,31.78,384.4,32.31,382.67,33.52ZM425.73,85c.27,8.8-.13,14.4-1.2,15.6-2.39,2.94-15.86,7.34-23.33,7.6-12.27.4-17.87-5.6-17.87-19.47,0-5.86.67-8.26,3.07-10.93,4.13-4.8,13.74-7.2,27.6-6.93l11.33.26Z"/><path id="path26" d="M446,72.45v40.66h6.67V43.65l6.13-2.8a61.72,61.72,0,0,1,12.4-3.6c4.27-.54,6.27-1.47,6.53-3.2s-.53-2.27-6.4-2.27a30.09,30.09,0,0,0-12.26,2.67c-3.07,1.47-5.74,2.66-5.87,2.66a9.78,9.78,0,0,1-.93-2.66,3.58,3.58,0,0,0-3.47-2.67C446,31.78,446,32.05,446,72.45Z"/><path id="path28" d="M572.8,34.58c-11.73,6-16.94,20-15.87,43.2.67,15.6,3.47,23.2,10.8,29.6,6.94,6,13.74,7.6,29.6,6.54,16.27-.94,19.34-1.74,19.34-4.94,0-2.93-1.47-3.06-16-1.2-20.4,2.67-32.67-3.6-35.87-18.4a71.11,71.11,0,0,1-1.47-10.93v-4l27.07-.27,26.93-.4-.26-10.4c-.27-12.67-3.74-20.67-11.47-26.8-4.67-3.73-6.27-4.13-16-4.53C580.4,31.65,577.73,32.18,572.8,34.58ZM597.07,39c8.13,3.47,11.86,9.33,13.6,21.73l.93,7.07H563.07l.79-6.4a53.37,53.37,0,0,1,3.87-12.27C572.67,39,586.14,34.31,597.07,39Z"/><path id="path30" d="M634.93,32.71c-.53.4-.93,18.81-.93,40.67v39.73h6.67V44.05L646.8,41a50.3,50.3,0,0,1,12.67-3.6c5.33-.53,6.53-1.07,6.53-3.07s-1.07-2.53-6.67-2.53a28.86,28.86,0,0,0-12,2.67,55.38,55.38,0,0,1-5.73,2.66c-.4,0-.93-1.19-1.33-2.66C639.6,31.92,636.67,30.85,634.93,32.71Z"/><path id="path32" d="M107.6,129.25c-14.93,1.2-27.6,2.67-28,3.06-1.87,1.87,3.2,3.34,28.13,8.14,28.8,5.47,31.74,5.33,34.27-1.34,1.6-4.13-.14-9.33-3.86-11.19a13,13,0,0,0-3.07-1.34C134.8,126.71,122.4,127.92,107.6,129.25Z"/><path id="path34" d="M152.67,128.71c-4.27,2.94-3.34,12.27,1.47,14.94,3.19,1.73,6,1.46,33.19-4.67,16.4-3.6,30-7.2,30.27-8,.4-1.2-6.4-1.87-23.2-2.4-13.07-.4-27.2-1.06-31.33-1.33C157.86,126.85,154.67,127.38,152.67,128.71Z"/></g></g></svg>