<?xml version="1.0" encoding="utf-8"?>
<!-- Generator: Adobe Illustrator 16.0.0, SVG Export Plug-In . SVG Version: 6.00 Build 0)  -->
<!DOCTYPE svg PUBLIC "-//W3C//DTD SVG 1.1//EN" "http://www.w3.org/Graphics/SVG/1.1/DTD/svg11.dtd">
<svg version="1.1" id="Layer_1" xmlns="http://www.w3.org/2000/svg" xmlns:xlink="http://www.w3.org/1999/xlink" x="0px" y="0px"
	 width="595.28px" height="841.89px" viewBox="0 0 595.28 841.89" enable-background="new 0 0 595.28 841.89" xml:space="preserve">
<g>
	<path d="M255.462,406.975c0,0,7.438,4.961,18.229,4.961c26.04,0,34.599-27.529,34.599-43.774c0-16.245-6.947-41.046-32.491-41.046
		c-25.544,0-30.631,23.81-30.631,23.81h-2.479l2.356-28.274h2.605c0,0,0,5.705,3.099,5.705c5.705,0,7.936-6.076,25.67-6.076
		c24.537,0,47.493,18.775,47.493,48.855c0,34.845-29.493,45.512-50.015,45.512c-19.18,0-31.497-8.02-31.497-8.02v-29.924
		c0-11.287-6.86-10.664-6.86-10.664h-3.309v-2.896h35.26v2.896h-3.309c0,0-8.721-0.425-8.721,10.664V406.975L255.462,406.975z"/>
	<path d="M339.371,406.975c0,0-7.438,4.961-18.228,4.961c-26.041,0-34.599-27.529-34.599-43.774
		c0-16.245,6.947-41.046,32.491-41.046c25.547,0,30.631,23.81,30.631,23.81h2.479l-2.356-28.274h-2.605c0,0,0,5.705-3.096,5.705
		c-5.708,0-7.939-6.076-25.673-6.076c-24.538,0-47.49,18.775-47.49,48.855c0,34.845,29.489,45.512,50.012,45.512
		c19.181,0,31.496-8.02,31.496-8.02v-29.924c0-11.287,6.864-10.664,6.864-10.664h3.306v-2.896h-35.258v2.896h3.306
		c0,0,8.721-0.425,8.721,10.664V406.975L339.371,406.975z"/>
	<path d="M161.08,487.027h6.933c0,0-0.695,18.713-13.446,18.713c-6.237,0-12.478-7.622-12.478-26.615
		c0-18.989,4.579-30.081,12.338-30.081c13.586,0,13.308,18.438,13.308,18.438h9.567V443.36l-9.289-1.527v6.654
		c0,0-3.744-10.811-17.188-10.811c-13.446,0-19.824,18.851-19.824,40.753c0,38.678,18.575,38.542,18.575,38.542h4.852
		c7.764,0,14.002-10.399,14.002-10.399v6.517l8.872-1.387v-25.505h4.99v-9.567h-21.07L161.08,487.027L161.08,487.027z"/>
	<path d="M210.294,499.502c-3.605,0-12.892-2.219-12.892-23.288c0-21.07,10.951-22.181,13.724-22.181
		c2.772,0,14.691,1.11,14.691,22.322C225.818,497.562,214.313,499.502,210.294,499.502L210.294,499.502z M224.844,449.736
		c-5.354-3.92-11.208-4.714-16.11-4.714c-8.736,0-22.008,5.684-22.008,32.299c0,26.616,14.003,31.33,21.762,31.33
		c11.092,0,28.004-7.211,28.004-32.854C236.493,462.866,231.083,454.297,224.844,449.736L224.844,449.736z"/>
	<path d="M269.763,457.222h6.516v25.924c0,4.157-0.97,12.892-11.088,12.892c-10.119,0-9.43-12.062-9.43-12.062v-26.891h6.516v-8.041
		l-22.177-0.691l0.278,8.316h4.989v25.644c0,2.915-1.527,21.903,18.991,21.903c20.516,0,20.653-18.575,20.653-18.575v-28.419h5.27
		v-8.178h-20.518V457.222L269.763,457.222z"/>
	<path d="M329.784,484.532c0,0,0.558,11.367-10.255,11.367c-10.812,0-14.416-11.088-14.416-19.824
		c0-8.734,3.743-20.239,13.724-20.239c11.227,0,11.643,13.308,11.643,13.308h9.011v-20.237h-9.148v5.818
		c0,0-4.301-6.788-13.308-6.788c-9.011,0-22.734,5.821-22.734,28.139c0,22.315,15.107,28.278,25.504,28.278
		c21.21,0,19.824-19.821,19.824-19.821H329.784L329.784,484.532z"/>
	<path d="M363.516,478.911l7.025-21.688l6.983,22.393L363.516,478.911L363.516,478.911z M377.195,447.104l-12.476,0.551
		l-16.356,48.177l-4.159-0.21v8.316l19.268,1.386l0.278-8.453l-5.822-0.488l2.843-8.989l19.485,0.979l3.039,9.747l-6.376-0.416
		l0.417,9.008l19.962,1.941v-9.287l-3.885-0.347L377.195,447.104L377.195,447.104z"/>
	<polygon points="463.833,447.656 463.833,435.601 442.488,439.757 432.369,495.898 422.526,442.529 401.037,444.887 
		401.037,454.311 406.722,453.894 406.722,500.337 400.896,499.92 400.896,508.931 420.723,511.563 420.723,501.582 
		414.486,500.959 414.486,452.648 426.683,512.671 437.08,514.339 448.863,450.432 448.863,505.463 443.317,504.631 
		443.317,515.998 463.695,520.02 463.695,507.544 458.29,506.711 458.29,448.768 463.833,447.656 	"/>
</g>
</svg>
