<svg xmlns="http://www.w3.org/2000/svg" viewBox="0 0 841.89 893.47"><defs><style>.cls-1{fill:#232e5c;}.cls-2{fill:#53ad32;}</style></defs><title>Artboard 1</title><g id="Logos"><path class="cls-1" d="M326.78,501.05l.39-1.88H339.9l-.4,1.88h-5.36l-3.3,15.68h-2l3.3-15.68Z"/><path class="cls-1" d="M345.31,504.23a3.78,3.78,0,0,1,2.6.91l-.82,1.65a3.84,3.84,0,0,0-2.36-.8,4.15,4.15,0,0,0-4,3.21l-1.59,7.53h-1.91c1-4.62.94-4.64,1.93-9.26.25-1.1.37-1.78-1.09-1.66l.27-1.3c1.94-.33,3.15-.13,2.88,1.73A4.55,4.55,0,0,1,345.31,504.23Z"/><path class="cls-1" d="M358.63,513.44c-.28,1.21-.4,1.88,1.06,1.76l-.29,1.48c-1.94.33-3-.15-2.63-2.06l.1-.42a5.78,5.78,0,0,1-5,2.71c-3.62,0-4.81-3-4.1-6.35a7.73,7.73,0,0,1,8-6.18,10.68,10.68,0,0,1,4.54,1.13Zm-.45-6.75a6.5,6.5,0,0,0-2.9-.65,5.82,5.82,0,0,0-5.61,4.72c-.52,2.53.2,4.34,2.73,4.34s4.37-1.88,5-4.54Z"/><path class="cls-1" d="M365.79,498.54h1.81l-1.66,7.95a6,6,0,0,1,4.59-2.08c2.76,0,5.09,2,4.1,6.37s-4.05,6.28-8,6.28a9.87,9.87,0,0,1-4.51-1.13ZM364.3,514.7a6.81,6.81,0,0,0,2.81.67,5.75,5.75,0,0,0,5.53-4.56c.7-3-.1-4.69-2.88-4.69-2.55,0-4.16,2.48-4.64,4.69Z"/><path class="cls-1" d="M387.7,513.44c-.28,1.21-.4,1.88,1.06,1.76l-.29,1.48c-1.94.33-3-.15-2.63-2.06l.1-.42a5.78,5.78,0,0,1-5,2.71c-3.62,0-4.81-3-4.09-6.35a7.71,7.71,0,0,1,8-6.18,10.65,10.65,0,0,1,4.54,1.13Zm-.45-6.75a6.5,6.5,0,0,0-2.9-.65,5.82,5.82,0,0,0-5.61,4.72c-.52,2.53.2,4.34,2.73,4.34s4.37-1.88,5-4.54Z"/><path class="cls-1" d="M396.85,498.34l-3,14c-.55,2.36-.15,3.19,2.4,2.86l-.27,1.56c-3.75.6-4.89-.65-4.09-4.42l2.95-14Z"/><path class="cls-1" d="M399.83,516.78h-2l3.87-18.37h2L402,506.32a5.85,5.85,0,0,1,4.47-1.89c3.62.08,4.24,2.87,3.57,5.95l-.67,3.29c-.27,1.2-.3,1.75,1.24,1.55l-.3,1.51c-2.85.48-3.44-.53-2.92-2.94l.72-3.41c.59-2.83,0-4.21-2.48-4.21a4.49,4.49,0,0,0-4.35,3.68Z"/><path class="cls-1" d="M423.86,513.44c-.27,1.21-.39,1.88,1.07,1.76l-.3,1.48c-1.93.33-3-.15-2.63-2.06l.1-.42a5.77,5.77,0,0,1-5,2.71c-3.62,0-4.81-3-4.09-6.35a7.73,7.73,0,0,1,8-6.18,10.68,10.68,0,0,1,4.54,1.13Zm-.44-6.75a6.54,6.54,0,0,0-2.91-.65,5.8,5.8,0,0,0-5.6,4.72c-.52,2.53.2,4.34,2.73,4.34s4.36-1.88,5-4.54Z"/><path class="cls-1" d="M428.7,504.58c2.08-.55,3.27.38,2.95,2a5.73,5.73,0,0,1,4.69-2.18,2.62,2.62,0,0,1,2.93,2.73,5.87,5.87,0,0,1,5.13-2.76c3.18,0,3.58,2.44,3,5.22l-.84,4c-.28,1.3-.4,1.88,1.29,1.68l-.33,1.45c-2.58.53-3.57-.15-3-2.78l.92-4.37c.4-2,.05-3.56-2-3.56a4.26,4.26,0,0,0-4,3.71l-1.49,7h-2l1.49-7c.47-2.08,0-3.68-2.09-3.68a4.37,4.37,0,0,0-4.22,3.68l-1.48,7h-1.94l1.79-8.46c.39-1.85.52-2.53-1.12-2.33Z"/><path class="cls-1" d="M455.29,516.93c-2.75,0-5.19-1.68-5.19-5a7.53,7.53,0,0,1,7.72-7.55,4.91,4.91,0,0,1,5.23,5C463.05,514.3,459.33,516.93,455.29,516.93Zm.2-1.68a5.55,5.55,0,0,0,5.68-5.57,3.38,3.38,0,0,0-3.5-3.69,5.63,5.63,0,0,0-5.68,5.65A3.33,3.33,0,0,0,455.49,515.25Z"/><path class="cls-1" d="M466.25,513.32c-.2,1.83,1.42,2.13,3,2.13s3.52-.63,3.84-2.11-.82-1.75-2.92-2.08-4.37-.8-4.37-2.89c0-2.78,3-4,5.76-4,2.5,0,4.78,1.16,4.24,3.47H474c.2-1.41-1.15-1.91-2.76-1.91s-3.57.65-3.57,2.21c0,1,1,1.28,3,1.58,2.43.33,5,.88,4.29,3.74-.52,2.48-3.22,3.49-6,3.56-2.58,0-4.93-.95-4.54-3.71Z"/><path class="cls-1" d="M482.69,522.9l3.23-15.38c.2-1,.4-1.68-1-1.61l.27-1.43c1.91-.32,3,.18,2.63,2.06l-.07.35a5.69,5.69,0,0,1,4.46-2.58c3.85-.2,5,2.83,4.67,6-.4,3.61-3.2,6.75-6.8,6.75-1.76,0-3.2-.63-3.77-2.51l-1.76,8.33Zm7.25-7.58c2.93,0,4.76-2.66,5-5.19s-.65-4-3.11-4c-2.85.08-4.83,2.89-4.83,5.77C487,513.79,487.88,515.32,489.94,515.32Z"/><path class="cls-1" d="M509.81,513.44c-.27,1.21-.4,1.88,1.07,1.76l-.3,1.48c-1.94.33-3-.15-2.63-2.06l.1-.42a5.78,5.78,0,0,1-5,2.71c-3.62,0-4.81-3-4.09-6.35a7.72,7.72,0,0,1,8-6.18,10.61,10.61,0,0,1,4.54,1.13Zm-.45-6.75a6.5,6.5,0,0,0-2.9-.65,5.82,5.82,0,0,0-5.61,4.72c-.52,2.53.2,4.34,2.73,4.34s4.37-1.88,5-4.54Z"/><path class="cls-1" d="M521.62,504.23a3.78,3.78,0,0,1,2.6.91l-.82,1.65a3.83,3.83,0,0,0-2.35-.8,4.15,4.15,0,0,0-4,3.21l-1.59,7.53h-1.91c1-4.62.94-4.64,1.93-9.26.25-1.1.38-1.78-1.09-1.66l.27-1.3c1.94-.33,3.16-.13,2.88,1.73A4.55,4.55,0,0,1,521.62,504.23Z"/><path class="cls-1" d="M534.94,513.44c-.28,1.21-.4,1.88,1.07,1.76l-.3,1.48c-1.94.33-3-.15-2.63-2.06l.1-.42a5.78,5.78,0,0,1-5,2.71c-3.62,0-4.81-3-4.09-6.35a7.71,7.71,0,0,1,8-6.18,10.65,10.65,0,0,1,4.54,1.13Zm-.45-6.75a6.5,6.5,0,0,0-2.9-.65,5.82,5.82,0,0,0-5.61,4.72c-.52,2.53.2,4.34,2.73,4.34s4.37-1.88,5-4.54Z"/><path class="cls-2" d="M550.12,517a4.87,4.87,0,0,1-5.14-5.07c0-5,4.22-7.63,7.92-7.63a4.84,4.84,0,0,1,5.11,5.07C558,514.52,553.91,517,550.12,517Zm.42-3.14a3.88,3.88,0,0,0,4-3.76,2.22,2.22,0,0,0-2.08-2.66,3.86,3.86,0,0,0-4,3.76A2.22,2.22,0,0,0,550.54,513.84Z"/><path class="cls-2" d="M569,498.54h3.2l-1.63,7.78a4.47,4.47,0,0,1,3.94-1.86c2.58,0,4.69,1.91,3.85,6.3-1,4.79-4.57,6.4-8.21,6.32a11.36,11.36,0,0,1-4.82-1.13Zm.18,15.28a5.42,5.42,0,0,0,1.91.38c1.78,0,3.07-1.08,3.77-3.42.57-1.93,0-3.38-1.91-3.38s-2.88,1.93-3.13,3.38Z"/><path class="cls-2" d="M590.38,516a10.23,10.23,0,0,1-4.49,1c-3.6.13-6-1.63-5.91-5a7.51,7.51,0,0,1,7.57-7.63c2.7-.08,5.56,1,4.76,4.16-.59,2.49-3.1,3.64-5.26,3.72a6.4,6.4,0,0,1-3.67-.78c-.4,2.08,1.17,2.86,3.32,2.79a11.7,11.7,0,0,0,4.12-.93Zm-3.53-6.18a2,2,0,0,0,2.14-1.33c.27-1.1-1-1.45-1.86-1.45a3.37,3.37,0,0,0-3.08,2.16A5.18,5.18,0,0,0,586.85,509.8Z"/><path class="cls-2" d="M594.71,504.58c1.82-.45,4.79-.55,4.27,1.94a4.72,4.72,0,0,1,4.17-2.16c2.06,0,2.93.78,3.2,2.26a5.46,5.46,0,0,1,4.57-2.26c3.37,0,3.62,2.36,3,5.34l-.72,3.32c-.27,1.08-.22,1.65,1.05,1.58l-.43,2c-2.75.65-4.93.28-4.26-2.81l.86-4.12c.38-1.6-.22-2.56-1.41-2.56a3,3,0,0,0-2.73,2.59l-1.49,7h-3.37l1.46-7c.38-1.63-.29-2.59-1.56-2.59a3.06,3.06,0,0,0-2.85,2.66L597,516.73H593.5l1.76-8.33c.27-1.31.3-1.86-1-1.78Z"/><path class="cls-2" d="M634.16,512.84c-.2,1-.43,1.58.82,1.51l-.48,2.25c-1.68.36-4,.48-3.52-2a5.25,5.25,0,0,1-4.29,2.33c-3.67-.07-4.81-3-4.07-6.4a7.81,7.81,0,0,1,8.21-6.17,11.8,11.8,0,0,1,4.86,1.13ZM632,507.52a4.75,4.75,0,0,0-1.91-.35,4.07,4.07,0,0,0-4,3.36c-.52,2.13-.13,3.31,1.76,3.29,1.66,0,2.9-1.33,3.37-3.16Z"/><path class="cls-2" d="M644.05,498.36l-2.9,13.78c-.4,1.85.22,2.23,2,2l-.42,2.63c-3.82.65-5.88-.25-5-4.59l2.9-13.78Z"/><path class="cls-2" d="M648,516.73H644.5l2.5-11.94h3.48Zm1.94-17.59a1.55,1.55,0,0,1,1.68,1.61,2.34,2.34,0,0,1-2.48,2.35,1.49,1.49,0,0,1-1.68-1.55A2.44,2.44,0,0,1,649.91,499.14Z"/><path class="cls-2" d="M652.83,504.58c1.81-.45,4.79-.55,4.27,1.94a4.71,4.71,0,0,1,4.17-2.16c2.06,0,2.93.78,3.2,2.26a5.46,5.46,0,0,1,4.56-2.26c3.38,0,3.63,2.36,3,5.34l-.72,3.32c-.27,1.08-.22,1.65,1,1.58l-.42,2c-2.75.65-4.94.28-4.27-2.81l.87-4.12c.38-1.6-.22-2.56-1.41-2.56a3,3,0,0,0-2.73,2.59l-1.49,7h-3.37l1.46-7c.37-1.63-.3-2.59-1.56-2.59a3.07,3.07,0,0,0-2.86,2.66l-1.46,6.93h-3.47l1.76-8.33c.27-1.31.3-1.86-1-1.78Z"/><path class="cls-2" d="M684.86,516a10.23,10.23,0,0,1-4.49,1c-3.6.13-6-1.63-5.91-5a7.51,7.51,0,0,1,7.57-7.63c2.7-.08,5.56,1,4.76,4.16-.59,2.49-3.1,3.64-5.26,3.72a6.4,6.4,0,0,1-3.67-.78c-.4,2.08,1.17,2.86,3.33,2.79a11.8,11.8,0,0,0,4.12-.93Zm-3.52-6.18a2,2,0,0,0,2.13-1.33c.27-1.1-.94-1.45-1.86-1.45a3.37,3.37,0,0,0-3.08,2.16A5.2,5.2,0,0,0,681.34,509.8Z"/><path class="cls-2" d="M689.2,504.58c1.88-.32,4.61-.47,4.17,1.84a5.12,5.12,0,0,1,4.21-2.06c3.35,0,4.27,2.33,3.6,5.34l-.69,3.29c-.28,1.13-.33,1.68.91,1.61l-.42,2c-2.46.61-4.81.31-4.14-2.71l.89-4.24c.37-1.68-.52-2.58-1.78-2.58a3.21,3.21,0,0,0-3.06,2.66l-1.46,7H688l1.76-8.36c.27-1.33.39-1.8-1-1.73Z"/><path class="cls-2" d="M709.88,504.66h3.9l-.55,2.64h-3.89l-1,4.69c-.52,2.51,1.51,2.66,3.64,1.9l-.22,2.66c-4.34,1.13-7.89.51-6.82-4.49l1-4.76-2.21-.23.5-2.41h2.5l1.17-3.76h2.78Z"/><path class="cls-2" d="M726,512.84c-.2,1-.42,1.58.82,1.51l-.47,2.25c-1.69.36-4,.48-3.53-2a5.25,5.25,0,0,1-4.29,2.33c-3.67-.07-4.81-3-4.07-6.4a7.81,7.81,0,0,1,8.21-6.17,11.85,11.85,0,0,1,4.87,1.13Zm-2.19-5.32a4.75,4.75,0,0,0-1.91-.35,4.08,4.08,0,0,0-4,3.36c-.52,2.13-.12,3.31,1.76,3.29,1.66,0,2.9-1.33,3.38-3.16Z"/><path class="cls-2" d="M738.36,504.26a3.52,3.52,0,0,1,2.38.78L739.35,508a3.19,3.19,0,0,0-2.08-.65,3.58,3.58,0,0,0-3.43,3l-1.36,6.45h-3.4c1-4.82.8-3.74,1.79-8.53.2-1,.27-1.68-.87-1.48l.45-2.16c1.81-.4,4.39-.4,4.11,1.76A4.36,4.36,0,0,1,738.36,504.26Z"/><path class="cls-2" d="M738.68,515.53a2.4,2.4,0,0,1,2.51-2.29,1.56,1.56,0,0,1,1.71,1.58,2.44,2.44,0,0,1-2.51,2.29A1.58,1.58,0,0,1,738.68,515.53Z"/><path class="cls-2" d="M109.45,370.57l1.72,3.48c3.74,8,7.57,14.72,7.89,23.37.22,5.54-1.35,8.81-3.16,13.42l-.23.59c-5.36,13.24-13.62,25.05-11.67,44a26.44,26.44,0,0,0,1.23,4.67c-2.45-4.83-3.81-10.35-5.35-15.85-2-7.31-.18-15,1.62-21.61,2.52-9.12,6.13-16.88,9.6-24.93l.19-.5a31.08,31.08,0,0,0-.59-23.5l-1.39-3.05Z"/><path class="cls-2" d="M119.3,386.93l1.73,3.48c3.74,8,7.57,14.73,7.89,23.38.22,5.54-1.35,8.81-3.17,13.41l-.22.59c-5.36,13.25-13.63,25.06-11.67,44a25.35,25.35,0,0,0,1.23,4.66c-2.46-4.82-3.81-10.34-5.35-15.85-2-7.3-.19-15,1.62-21.6,2.51-9.13,6.13-16.88,9.6-24.94l.18-.5a31.06,31.06,0,0,0-.59-23.49L119.16,387Z"/><path class="cls-2" d="M129,402.43l1.72,3.47c3.75,8,7.58,14.73,7.9,23.38.22,5.54-1.35,8.81-3.17,13.41l-.22.6c-5.36,13.24-13.63,25-11.67,44a25.35,25.35,0,0,0,1.23,4.66c-2.46-4.82-3.81-10.34-5.35-15.84-2-7.31-.19-15,1.62-21.61,2.51-9.13,6.13-16.88,9.6-24.94l.18-.49a31.08,31.08,0,0,0-.59-23.5l-1.39-3.05Z"/><path class="cls-1" d="M114.7,460.24a22.45,22.45,0,0,1-11.81-9.56c-2.26-3-3.55-8.72-3.55-8.72s1.67,7.46,2.53,9.45c1.34,3.12,6.15,11.88,12.63,16.73,4.14,3.12,7.86,3.59,12.79,4.58l.63.13c14.3,2.74,29.66,2.38,42.91,14a19.24,19.24,0,0,1,2.7,3.46c-1.91-4.53-5.19-8.54-8.31-12.7-4.15-5.51-11.54-8.12-18-10.17-9-2.83-21-4.54-24.13-5.13a55.16,55.16,0,0,1-8.39-2.06"/><path class="cls-1" d="M125.4,477.85c-7.66-1.66-14.64-6.26-17.81-13L104.25,458l3.26,7.44c3.42,7.25,5.77,13.89,12.25,18.74,4.14,3.11,7.85,3.59,12.79,4.58l.63.13c14.3,2.73,29.66,2.37,42.9,14a18.41,18.41,0,0,1,2.7,3.46c-1.91-4.53-5.18-8.55-8.3-12.7-4.15-5.52-11.54-8.13-18-10.17-9-2.83-17.7-4-26.55-5.54Z"/><path class="cls-1" d="M127.51,494.22c-7.66-1.66-14.64-6.26-17.81-13l-3.34-6.87,3.26,7.44c3.42,7.25,5.77,13.89,12.25,18.74,4.14,3.11,7.86,3.59,12.79,4.58l.63.13c14.3,2.74,29.66,2.37,42.91,14a18.65,18.65,0,0,1,2.69,3.46c-1.9-4.53-5.18-8.54-8.3-12.7-4.15-5.52-11.54-8.13-18-10.17-9-2.83-17.7-4-26.55-5.54Z"/><polygon class="cls-1" points="210.59 406.67 200.46 406.67 200.46 476.13 238.88 476.13 238.88 466.19 210.59 466.19 210.59 406.67"/><path class="cls-1" d="M342.89,423.7a24.05,24.05,0,0,1,7.52-5.39,21.69,21.69,0,0,1,9.23-2,22,22,0,0,1,11.12,2.89,24.18,24.18,0,0,1,8.28,7.71l8.23-6.15a34.64,34.64,0,0,0-11.87-10.22,34.23,34.23,0,0,0-29.1-1,34.88,34.88,0,0,0-10.89,7.42,35.28,35.28,0,0,0-7.33,11,35,35,0,0,0,0,27,34.62,34.62,0,0,0,18.22,18.41,34.23,34.23,0,0,0,29.1-1A34.64,34.64,0,0,0,387.27,462L379,455.88a24.18,24.18,0,0,1-8.28,7.71,22.64,22.64,0,0,1-20.35.9,24.05,24.05,0,0,1-7.52-5.39,26,26,0,0,1-5.11-8,26.09,26.09,0,0,1,0-19.5,25.89,25.89,0,0,1,5.11-7.95"/><polygon class="cls-1" points="402.23 416.41 419.36 416.41 419.36 475.94 429.39 475.94 429.39 416.41 446.52 416.41 446.52 406.67 402.23 406.67 402.23 416.41"/><path class="cls-1" d="M518.31,416.6a34.92,34.92,0,0,0-11-7.47,34.56,34.56,0,0,0-27,0,34.57,34.57,0,0,0-18.36,18.59,34.78,34.78,0,0,0-2.69,13.68,34.18,34.18,0,0,0,2.69,13.53,34.68,34.68,0,0,0,18.36,18.55,34.68,34.68,0,0,0,27,0,34.55,34.55,0,0,0,18.41-18.55,34.19,34.19,0,0,0,2.7-13.53,34.78,34.78,0,0,0-2.7-13.68,35.19,35.19,0,0,0-7.38-11.12m-2.42,34.56a25.33,25.33,0,0,1-5.15,8,24.44,24.44,0,0,1-7.67,5.38,22.44,22.44,0,0,1-9.32,2,22.19,22.19,0,0,1-9.28-2,24.41,24.41,0,0,1-7.61-5.38,25.46,25.46,0,0,1-7.05-17.72,26,26,0,0,1,7.05-17.87,24.2,24.2,0,0,1,7.61-5.42,22.19,22.19,0,0,1,9.28-2,22.44,22.44,0,0,1,9.32,2,24.23,24.23,0,0,1,7.67,5.42,25.8,25.8,0,0,1,5.15,8.06,25.48,25.48,0,0,1,1.9,9.81,25.12,25.12,0,0,1-1.9,9.76"/><path class="cls-1" d="M613,437.52H578v8.89h24.23a26,26,0,0,1-3,7.95,25.2,25.2,0,0,1-5.21,6.39,23.13,23.13,0,0,1-6.95,4.21,22.6,22.6,0,0,1-17.42-.47,24,24,0,0,1-7.57-5.39,26.19,26.19,0,0,1-5.11-8,26.09,26.09,0,0,1,0-19.5,26.07,26.07,0,0,1,5.11-7.95,24,24,0,0,1,7.57-5.39,22,22,0,0,1,9.28-2,21.72,21.72,0,0,1,11.59,3.22,24.3,24.3,0,0,1,8.38,8.51h11.64a36.74,36.74,0,0,0-5.16-8.56,35.18,35.18,0,0,0-7.24-6.77,34,34,0,0,0-32.6-3.21,34.72,34.72,0,0,0-10.93,7.42,35.13,35.13,0,0,0-7.34,11,35,35,0,0,0,0,27,34.57,34.57,0,0,0,18.27,18.41,34.14,34.14,0,0,0,25.69.47,34.27,34.27,0,0,0,10.27-6.24A34.7,34.7,0,0,0,609,458.1a33.66,33.66,0,0,0,3.83-11.69c.12-.82.22-1.64.28-2.46s.1-1.67.1-2.55c0-.63,0-1.26-.05-1.89s-.08-1.3-.14-2"/><polygon class="cls-1" points="710.46 466.19 710.46 406.67 700.34 406.67 700.34 476.13 738.76 476.13 738.76 466.19 710.46 466.19"/><path class="cls-1" d="M285.42,406.38l-3.88,9.12-25.72,60.44h10.66l7.94-18.65h24.91l7.94,18.65h10.66l-29.61-69.56Zm-7.12,41.79L286.87,428l8.57,20.14Z"/><path class="cls-1" d="M653.29,406.38l-3.88,9.12-25.73,60.44h10.67l7.93-18.65h24.91l7.94,18.65h10.66l-29.6-69.56Zm-7.12,41.79L654.74,428l8.57,20.14Z"/></g></svg>