<svg id="Ebene_1" data-name="Ebene 1" xmlns="http://www.w3.org/2000/svg" viewBox="0 0 841.89 595.28"><defs><style>.cls-1{fill:#164194;}.cls-2{fill:#fbba00;}</style></defs><title>Prancheta 2</title><polygon class="cls-1" points="176.57 230.3 212.26 230.3 212.26 296.65 257.12 296.65 257.12 315.94 176.57 315.94 176.57 230.3 176.57 230.3"/><path class="cls-1" d="M628.83,319.37c-27.81,0-51.21-8.27-51.21-31.07v-58h34.53v55.36c0,10.71,7.92,15.6,16.68,15.6s16.66-4.89,16.66-15.6V230.3H680v58c0,22.8-23.39,31.07-51.2,31.07Z"/><path class="cls-1" d="M752.38,253.07h36.5c-1.91-19.67-29.6-25.54-51-25.54s-49.38,7-49.38,28.47c0,15.68,15.34,20.69,26.09,22.87,7.64,1.54,20.36,3.71,26.73,5.11,8.86,1.94,13.44,3.74,13.44,9,0,5.58-5.15,8.43-15.72,8.43-10,0-16-3.11-17.68-10.17H684.13c2.18,23.32,32.06,28.43,55.65,28.43,23.74,0,52.11-5.65,52.11-28.77,0-12.55-8.09-20.91-28-24.89-10.42-2.08-24.86-4.79-30.41-5.75-7.36-1.28-10-3.93-10-7.55s3.57-7.64,13.88-7.64c8.72,0,13.44,2.55,15,8Z"/><path class="cls-1" d="M538.87,284.4c25.7,0,32.24-16.34,32.24-26.78,0-9.61-5.52-27.32-32.19-27.32H469.83v85.64h33.91V284.41Zm-35.13-18.69V249h22.64c5.63,0,10.46,2.63,10.46,8.07,0,4.8-2.76,8.63-10.51,8.63Z"/><path class="cls-1" d="M300.05,232.38l1-2.08h35.79l-37.24,56.8v28.84H265.7V287.1l-37.13-56.8h35.67l1,2.08,16.15,28.36c1.07,1.82,1.38,1.82,2.56,0l16.1-28.36Z"/><path class="cls-1" d="M408.33,315.94l.64-1.71,18.2-42.31c.46-1.11,1.55-.81,1.57.17v43.85H458V230.3H422.65l-.65,1.84-21.76,49.13c-.8,1.86-1.55,1.85-2.35,0l-21.75-49.13-.65-1.84H340.18v85.64H369.4V272.09c0-1,1.11-1.28,1.58-.17l18.19,42.31.63,1.71Z"/><path class="cls-1" d="M168.51,273.12c0,28.77-25,46.1-59.76,46.1S49,301.89,49,273.12,74,227,108.75,227s59.76,17.32,59.76,46.1Zm-35.93,0c0-17.32-9-28-23.83-28s-23.82,10.69-23.82,28,8.95,28,23.82,28,23.83-10.69,23.83-28Z"/><polygon class="cls-2" points="47.21 358.63 420.94 368.26 794.68 358.63 794.68 354.23 420.94 344.59 47.21 354.23 47.21 358.63 47.21 358.63"/></svg>