<svg xmlns="http://www.w3.org/2000/svg" viewBox="0 0 514.51 507.36"><defs><style>.cls-1{fill:#fff;}.cls-2{fill:#fae600;}.cls-3{fill:#2a2623;}.cls-4{fill:#e70033;}.cls-5,.cls-6{fill:#f6f6f6;}.cls-6{fill-rule:evenodd;}</style></defs><title>Artboard 2</title><g id="flattened_grouped" data-name="flattened grouped"><path class="cls-1" d="M79.65,398.92c4.54-8,15.22-20,40.34-32.12,41-20.69,103.3-41.72,158.28-60.26,22.58-7.61,43.9-14.81,60.94-21.07.84-.27,78.45-25.09,91.75-52.45-16.29,26.87-92,49.27-92,49.27-57.72,20-161.85,48.86-220.66,77.18C88.93,372.92,80.58,390,77.78,397.58a35,35,0,0,0-1.56,9v.09l0,.63A32,32,0,0,1,79.65,398.92Z"/><path class="cls-1" d="M230.49,212.63l-1.41.55c-24,9.44-46.64,18.36-64.7,26-1,.36-93.22,35-97.84,66.86l-.09.75a.4.4,0,0,1-.09.21l.27,3h0a16.26,16.26,0,0,1,0-3.17c4-32.63,99.46-66.11,99.46-66.11,18.45-7.44,41.4-16,66.15-25.19C231.65,214.6,231.05,213.63,230.49,212.63Z"/><path class="cls-1" d="M438.65,102.71c-4.47,8.86-15.35,22.45-41.83,36.87-29.81,17-70.62,34.65-112.27,51.54a45.94,45.94,0,0,1-.34,4.88c42.74-16.36,85.45-33.83,116.16-50.54,20.62-11.76,28.69-20.94,35.4-31.54a38.66,38.66,0,0,0,5.79-14.31L442.1,92A32.77,32.77,0,0,1,438.65,102.71Z"/><path class="cls-2" d="M400.37,145.46C369.66,162.18,326.94,179.64,284.2,196c-2.24,18.47-14.58,32.6-29.51,32.6-8.92,0-16.92-5.07-22.4-13.09-24.75,9.22-47.71,17.76-66.16,25.2,0,0-95.49,33.48-99.46,66.11a16.26,16.26,0,0,0,0,3.17h0l4.14,45,5.45,51.57a34.48,34.48,0,0,1,1.56-9c2.8-7.55,11.15-24.67,40.48-38.12,58.81-28.32,162.94-57.18,220.66-77.18,0,0,75.75-22.4,92.05-49.27a20.19,20.19,0,0,0,1.63-4.76c0-.24.07-.46.12-.7a.44.44,0,0,1,.44-.37h.08a.34.34,0,0,1,.2.09c.85-6.62,2.22-21.12,3.71-51.82,1.71-35.3,3.5-62.75,4.41-75.86a38.59,38.59,0,0,1-5.79,14.31C429.06,124.52,421,133.7,400.37,145.46Z"/><path class="cls-3" d="M433.16,227.19a.44.44,0,0,0-.44.37c-.05.24-.09.46-.12.7A20.19,20.19,0,0,1,431,233c-13.31,27.36-90.92,52.18-91.76,52.45-17,6.26-38.36,13.46-60.94,21.07C223.29,325.08,161,346.11,120,366.8,94.87,378.89,84.19,391,79.65,398.92a32,32,0,0,0-3.39,8.36,16.41,16.41,0,0,0-.47,6.42.46.46,0,0,0,.45.38h0a.48.48,0,0,0,.45-.4c4.74-30.11,96-61.08,139.88-76,5.29-1.79,9.86-3.34,13.39-4.59,7.14-2.54,17.25-5.89,29-9.77,40.8-13.52,102.47-33.94,133.71-51.36,37.31-20.79,39.22-33.11,40.62-42.1.08-.5.15-1,.24-1.48l.12-.7a.47.47,0,0,0-.18-.43.34.34,0,0,0-.2-.09Z"/><path class="cls-3" d="M442,86.57a.46.46,0,0,0-.45-.34h0a.44.44,0,0,0-.43.41c-1.5,14.07-20.91,31-57.68,50.28-30.68,16.1-66,30.08-89.37,39.33-3.88,1.53-7.4,2.92-10.44,4.15l0-.19a53.31,53.31,0,0,1,.29,5.4c0,21.59-13.54,39.09-30.25,39.09-11.92,0-22.23-8.92-27.15-21.88-41.14,16.12-91.6,36.72-119.1,53.9-39.17,24.45-40.57,37.86-41.6,47.64,0,.54-.11,1.08-.17,1.6,0,.26-.07.51-.09.77a.45.45,0,0,0,.4.5h0a.47.47,0,0,0,.47-.4l.09-.75c4.62-31.84,96.88-66.5,97.84-66.86,18.06-7.68,40.72-16.6,64.7-26l1.41-.55c5.43,9.68,14.24,16,24.2,16,16.22,0,29.41-16.68,29.86-37.49,41.65-16.89,82.46-34.58,112.27-51.54,26.48-14.41,37.36-28,41.83-36.87A32.77,32.77,0,0,0,442.1,92h0A15.85,15.85,0,0,0,442,86.57Z"/><path class="cls-3" d="M421.25,149.14a7,7,0,0,0-6.9,6.75,6.42,6.42,0,0,0,6.69,6.46A7,7,0,0,0,428,155.6,6.42,6.42,0,0,0,421.25,149.14Zm-.19,12.24a5.47,5.47,0,0,1-5.71-5.5,6,6,0,0,1,5.88-5.79,5.49,5.49,0,0,1,5.7,5.53A5.92,5.92,0,0,1,421.06,161.38Z"/><path class="cls-3" d="M424.15,158.76a2,2,0,0,1-.08-.63l0-1a1.36,1.36,0,0,0-.25-.91,1.42,1.42,0,0,0-.66-.48,2,2,0,0,0,.82-.68,2.54,2.54,0,0,0,.3-1.09,1.66,1.66,0,0,0-1.07-1.73,3.53,3.53,0,0,0-1.43-.22l-3.53.07-.11,7.39,1.05,0,.05-3.15,2.32,0a2.37,2.37,0,0,1,.92.11,1,1,0,0,1,.56,1l0,1.24c0,.29,0,.49,0,.59s0,.15.08.23l1.26,0v-.16A.5.5,0,0,1,424.15,158.76Zm-1.4-3.65a2.07,2.07,0,0,1-1.16.32l-2.36,0,0-2.52,2.5,0a2.05,2.05,0,0,1,.82.14,1,1,0,0,1,.57,1.06A1.11,1.11,0,0,1,422.75,155.11Z"/><path class="cls-3" d="M105.43,303.36c-2.77-3.22-4.78-6.69-4.45-11a10.61,10.61,0,0,1,2.92-6.8l.27-.27a11.05,11.05,0,0,1,3.91-2.44,20.61,20.61,0,0,1,7.77-1.49,21.34,21.34,0,0,1,5.39.66c0-3,.06-6.18.06-6.84-7.58-.12-14.65,2-19.31,5.08-6.88,4.53-11.07,10.93-10.37,19.25.63,7.39,5.74,12.55,7.74,14.65,2.18,2.28,5.33,5.55,7.55,8.08,3.82,4.37,6.63,8.62,6.26,14.64a13.36,13.36,0,0,1-6.7,11.22c-.25.15-.52.29-.79.43l-.05,0h0l-.61.28a10.66,10.66,0,0,1-1.26.5,21.13,21.13,0,0,1-6.83,1.19,20.59,20.59,0,0,1-5.88-.74c.25,3,.5,5.93.54,6.64a39.53,39.53,0,0,0,19.87-5.13,23.51,23.51,0,0,0,11.73-18.69c.36-7.34-2.69-12.5-7.16-17.43C114.21,313.13,108.58,307.1,105.43,303.36Z"/><path class="cls-3" d="M139.8,327.19c-4.22.38-6.62-4.11-6.82-17.43-.13-6.33,1.21-16,6.11-18.9a9.18,9.18,0,0,1,2.2-1.07,10.07,10.07,0,0,1,8.5,1c0-3-.08-6.22-.08-6.8a23.44,23.44,0,0,0-12.47,2c-7.55,3.55-13.55,12.11-13.35,27.38.22,15,9,19.95,16.57,18.19s11.61-9.24,12.59-13.61c-1-.4-3.28-1.51-4.18-1.93C147.36,321,144.68,326.8,139.8,327.19Z"/><path class="cls-3" d="M223.42,248.81c1.76,0,2.48,1.72,2.13,4.11s-4.12,29.3-4.12,29.3l-6.93-29.29L207,256.42c-.88,6.22-4.59,32.61-4.59,32.61-.25-1.28-4.79-19.9-5.46-22.54-.47-1.93-.85-4,.68-5.76l-11.16,5.14c.81.19,1.54.89,2,2.45.89,3.15,9.56,38.37,9.76,39.16.63-.25,6.19-2.45,7.74-3.11.12-.81,4.21-32.54,4.21-32.54l7,28.11c1-.36,6.57-2.64,7.68-3.06.14-.93,5.22-38.6,5.57-41a44.69,44.69,0,0,1,1.69-8,11.13,11.13,0,0,1,2.84-4.38Z"/><path class="cls-3" d="M184.85,307.75c0-1.84-.36-24.82-.33-28.3,0-2.8-.14-5.44-1.46-7.39a6.89,6.89,0,0,0-6.33-3c-3.94.27-9,2.93-11.86,9-.14-10.88-.28-20.09-.33-23.44l-11,4.92c1.44.17,2.24,1.35,2.26,3.65,0,4,.7,53.38.68,55-.07,2.72-.28,4.72-2.82,6.24,0,.2,0,.62,0,.81,2.56-1,11.23-4.51,14.49-5.77,0-.07,0-.6,0-.8-1.63.45-3-.34-2.93-3.16,0-2-.14-14.59-.28-27,.66-4.54,3.9-10.8,7.74-10.39,2.29.28,2.87,1.87,2.91,5.86,0,4.36.3,25.05.29,25.82,0,2.76-.21,5.51-2.94,6.95a5.11,5.11,0,0,0,.05.75c2.49-1,11.4-4.54,14.74-5.88,0-.23,0-.64,0-.79C186.14,311.33,184.87,310.58,184.85,307.75Z"/><path class="cls-3" d="M259.25,275.07a16.46,16.46,0,0,1-4.57,5.16,5.24,5.24,0,0,1-3.11,1.4h-.06a3.44,3.44,0,0,1-2.48-.46,3.17,3.17,0,0,1-.67-.6c-3.37-2.9-4-11-3.86-16,18.71-8,18.76-8,21.66-9.27.07-9.21-1.14-16.36-5.89-19.62-4.6-3.16-11.35-1.91-16.31,3.8-5.33,6.1-9.5,16.89-9.14,29.62.36,13.79,7.49,19.92,16.77,17.7,6.26-1.46,12.35-6.43,14.93-14.86-1-.58-3.27-1.72-5-2.6A18,18,0,0,1,259.25,275.07Zm-7.7-34.22c4.7-1.29,5.21,8.55,4.87,13.14-2.38,1.06-8.88,3.79-11.75,5.05C245,252.64,246.6,242.19,251.55,240.85Z"/><path class="cls-3" d="M378.12,182.34c-5.5-4-14.07-1.7-19.71,4.8-6,6.91-10.47,18.59-10.11,33.1.42,15.7,9.05,22.7,19.62,20.26,7-1.61,13.62-7.22,16.54-17L379.7,221a18.18,18.18,0,0,1-2.71,6.84,17,17,0,0,1-7,6.47,5.47,5.47,0,0,1-2.4.68c-7.13.3-7.87-12.23-8-20,7.22-3,20.67-8.84,25.07-10.76C384.78,193.78,382.78,185.75,378.12,182.34Zm-18.23,26.58c.19-7,1.72-19.46,7.62-21.1s5.76,10.14,5.84,15.31C371.23,204,362.21,208,359.89,208.92Z"/><path class="cls-3" d="M399.2,186.66c-3-2.9-4.49-5.53-4.17-8.9a8.17,8.17,0,0,1,5.34-7.07,17,17,0,0,1,7.16-1.87,18.09,18.09,0,0,1,4,.23c.11-2.68.22-5.33.22-5.83a31.43,31.43,0,0,0-17.36,5.39c-5.31,3.79-8.79,9.47-8.1,16.28.57,5.68,4.64,9.59,6.83,11.72,2.31,2.31,4.88,4.68,6.9,6.67,3.42,3.41,5.82,6.46,5.55,11.36a11.93,11.93,0,0,1-1.55,5.23,6.19,6.19,0,0,1-2.16,2.53,8.9,8.9,0,0,1-3.17,1.62,18.41,18.41,0,0,1-5.19,1,16.6,16.6,0,0,1-6.21-.78c-.21,2.89-.44,5.72-.5,6.4a36.33,36.33,0,0,0,17.11-4.39,20.36,20.36,0,0,0,10.59-15.31c.67-6.63-1.82-11.11-5.67-15.16C407,193.85,402.09,189.37,399.2,186.66Z"/><path class="cls-3" d="M288.92,218.12c-4.69.57-8.25,4.81-10,9.27a7.87,7.87,0,0,0-.91-2.33l-9.15,4.09a6.23,6.23,0,0,1,2,4.37,7.76,7.76,0,0,1,.12,1.34c.12,4,.6,52,.61,53.64,0,2.58-.08,4.92-1.86,6.41L282.3,290c-1-.23-1.7-1.05-1.69-3.2,0-1.39-.18-9-.27-18a10,10,0,0,0,9.51,2.08c9.21-2.76,13.5-14.49,13.77-28.83S298.47,216.91,288.92,218.12Zm5.12,28c-.19,7.68-2.43,19.13-7.8,19.64-3.24.28-5.07-2.15-5.87-3.91-.06-7.69-.16-16.76-.21-23.28.46-5.58,2.7-11.7,7.06-11.73C291.89,226.85,294.35,235,294,246.15Z"/><path class="cls-3" d="M328.74,199.28c-5.7.77-10.57,6.49-12,11.95a11.7,11.7,0,0,0-1.38-3.42L306.14,212a6.24,6.24,0,0,1,2.05,4.45,7.24,7.24,0,0,1,.21,1.75c0,4,.69,54.87.67,56.48,0,2-.08,3.82-.92,5.23L319,275.62a3.38,3.38,0,0,1-.94-2.68c0-1.45-.11-10.05-.2-20.42a12.05,12.05,0,0,0,11.41,2.68c9.75-2.92,15-15.63,15.1-30.42C344.43,209,339.21,197.91,328.74,199.28Zm-3.53,50.12c-3.42.36-6.3-1.94-7.54-5-.05-6.87-.05-14.67-.11-20.51.56-6.25,3.8-15,9.21-15,4.91,0,7.13,8.67,7,20.4C333.74,236.48,331.86,248.66,325.21,249.4Z"/><path class="cls-4" d="M283.9,185.61c0,21.59-13.54,39.09-30.25,39.09s-30.24-17.5-30.24-39.09,13.54-39.08,30.24-39.08S283.9,164,283.9,185.61Z"/><path class="cls-5" d="M226.54,184c.89-20,12.45-35.62,27.32-34.92C243.84,152.19,231.89,158.1,226.54,184Z"/><path class="cls-6" d="M263.91,176.71l3.33,12.21c-.23,0-2.42-1.07-2.73-2.21-1.59-5.47-1.78-6.46-2.79-9.81a4.78,4.78,0,0,0-1.59-2.3,3,3,0,0,0-3.39.32,3.28,3.28,0,0,1,2.58-1.63c3.24-.06,4.14,1.79,4.59,3.42M235,197.23s.94-1.53,2.21-1.53l13.83,0s2.36-.06,3-.87c.57.81,3.09.87,3.09.87l13.09,0c1,0,2.08,1.51,2.08,1.51l-37.33,0m21-5.66c-.46,0-1.89-1.41-1.87-3.94,0,2.53-1.64,3.94-2,3.94-1.39-.46-3.39.27-2.92.26a5.36,5.36,0,0,1,3.93,1.36c.58.45.47.56,0,.74a5.78,5.78,0,0,1-2.42.46c-1.86.08-3-1-3.33-.93a6.69,6.69,0,0,1-3.16.72l-5,.28c-.94,0-.82-.56,0-.56a6.52,6.52,0,0,0,2.42-.71s-3.35,0-4.27-.64c-1-.45,0-.55.1-.55s1.51-.18,2-.17.35,0,.33-.17v-.4c0-1.45,2.68-1.82,4.42-2.17s1.51-.82,1.52-1.18a4.34,4.34,0,0,1,2-3.56c.69-.24,1,.1.91.45-.52,2.35,1.25,1.43,1.4,1.12s2.9-3.47,2.58-5.56c-.1-2.3-1.87-.84-2.44-.57-.82.92-2.34.92-1.4-.27,0,0,2-2.11,0-3.28,0,0-1.85-.73.8-.73s4.55,2.94,4.54,5.3c0-2.36,2.07-5.3,4.85-5.29,2.54,0,.69.73.69.73-1.73,1.18,0,3.28,0,3.28,1.06,1.19-.45,1.19-1.38.27-.56-.28-2.45-1.74-2.55.55-.14,2.1,2.54,5.21,2.77,5.57,0,0,1.15,1,1.49-.27v-.83c-.1-.37.12-.74.73-.45a4.78,4.78,0,0,1,2.16,3.54c0,.38-.22.74,1.51,1.22,1.42.34,4.17.7,4.17,2.17v.37c0,.18,0,.18.35.17s1.64.18,2,.18c.11,0,1.05.1.1.55-.68.64-4.62.64-4.51.73A5.51,5.51,0,0,0,269,194c1,0,1,.53,0,.54l-4.64-.31a6.41,6.41,0,0,1-3.47-.5c-.22-.12-1.27.8-3.23.7a5.47,5.47,0,0,1-2.55-.47c-.48-.15-.59-.27,0-.72.45-.27,1.16-1.35,4.27-1.36a5.82,5.82,0,0,0-3.4-.26m1.56-32.48a4.45,4.45,0,0,1,4.49,3.49c1.11,4,2.11,7.38,2.16,7.37-1.11-.71-2.17-1.17-2.5-2.1-.93-2.76-1-3.42-1.57-5.07a3.06,3.06,0,0,0-2.81-2.34,3,3,0,0,0-3.15,1.91,3,3,0,0,0-3.2-1.9,3.1,3.1,0,0,0-2.8,2.31c-.57,1.64-.66,2.32-1.6,5.08-.33.95-1.4,1.39-2.49,2.08-.07,0,1-3.4,2.17-7.35a4.49,4.49,0,0,1,4.51-3.49c2.3-.07,3.39,1.29,3.43,2.31,0-1,1.07-2.37,3.36-2.3m-9.48,11c4.3,0,6.06,4.55,6.06,4.72,0-.17,1.9-4.7,6.18-4.72,6.57,0,7.64,5.34,7.64,5.34.58,1.65,3.91,15.42,3.91,15.42s-2.47-1.16-2.85-2.4c-2.07-6.77-2.34-9.21-3.47-13.11,0,0-.87-3.51-5.49-3.55-4.23,0-5.93,5.09-5.93,5.09s-1.55-5.12-5.8-5.11c-4.6,0-5.46,3.56-5.46,3.56-1.18,3.89-1.47,6.32-3.55,13.08-.38,1.26-2.89,2.4-2.89,2.4s3.41-13.77,4-15.4c0,0,1.1-5.33,7.64-5.32m6.27-14.46a1.11,1.11,0,0,1,1.22-1.15,1.3,1.3,0,0,1,1.29.93c.35,1,1.34,3.34,1.34,3.34-.3-.06-1.37-.44-1.6-1-.34-.76-.66-1.63-.73-1.82-.42-1.11-1.32-.72-1.52-.26m.41,7.85a1.65,1.65,0,0,1,2-1.49,2.48,2.48,0,0,1,2,1.75c.46,1.66,1.71,5.51,1.71,5.51-.47-.11-2.11-.8-2.46-1.78-.43-1.22-.35-1.29-.91-3.11-.62-2.43-2.33-.88-2.33-.88m-1,0s-1.76-1.55-2.4.88c-.54,1.8-.46,1.89-.91,3.12-.33,1-2,1.63-2.47,1.76,0,0,1.27-3.86,1.75-5.5a2.49,2.49,0,0,1,2-1.77,1.71,1.71,0,0,1,2,1.51m-9.36,13.19c.47-1.62,1.37-3.46,4.63-3.4a3.18,3.18,0,0,1,2.55,1.63,3,3,0,0,0-3.38-.32,4.68,4.68,0,0,0-1.58,2.28c-1,3.37-1.25,4.35-2.85,9.83-.31,1.13-2.52,2.21-2.75,2.21,0,0,2.93-10.48,3.38-12.23m9.81-11.9a16,16,0,0,0,2.69,4.08,4.77,4.77,0,0,0-2.71,1.8,4.28,4.28,0,0,0-2.55-1.8,11.6,11.6,0,0,0,2.57-4.08m-.08-9.16c-.19-.45-1.08-.83-1.53.28-.09.19-.4,1.06-.73,1.81-.25.6-1.28,1-1.58,1,0,0,.94-2.33,1.33-3.34a1.34,1.34,0,0,1,1.31-.94,1.14,1.14,0,0,1,1.2,1.14m.13.62a9.86,9.86,0,0,0,1.45,1.79c-1.27.39-1.47,1.09-1.47,1.09s-.19-.71-1.39-1.12a6.15,6.15,0,0,0,1.41-1.76"/><path class="cls-6" d="M240.54,200v8.58c0,.84-.08,1.75.9,2.18l-4.56,0c1.08-.61,1.09-1.3,1.11-2.28v-5.46l-1.79-.43a8.19,8.19,0,0,0,4.28-2.62h.06"/><path class="cls-6" d="M243.32,200.37h7.88l-3.52,11.06a7.9,7.9,0,0,0-.45,1.83,1.48,1.48,0,0,0,.56,1.17l-4,.06,4-11.82a7.46,7.46,0,0,0-2.13-.27,4.91,4.91,0,0,0-3.25,1l.88-3"/><path class="cls-6" d="M264.46,205.77v-1.46c1.55,0,2.92-.16,2.94-1.46,0-.92-.85-1.28-1.75-1.28a6.26,6.26,0,0,0-2.46.66l.61-1.8a13.79,13.79,0,0,1,3-.38,4.77,4.77,0,0,1,2.18.53,2.33,2.33,0,0,1,1.44,2,2,2,0,0,1-1.59,2.17,2.66,2.66,0,0,1,2.34,2.8c0,2.51-2.61,3.53-5,3.52a14.32,14.32,0,0,1-2.76-.31l-.31-2a5.74,5.74,0,0,0,2.61.73c1.32,0,2.66-.62,2.67-1.8,0-1.78-2.27-1.92-3-1.91h-.87"/><path class="cls-6" d="M259.6,206.63a3,3,0,0,0,1.75-2.86,3.82,3.82,0,0,0-1.58-3.13,4.93,4.93,0,0,0-2.69-.72,5.27,5.27,0,0,0-3.08.83,3.87,3.87,0,0,0-1.52,3.2,4.14,4.14,0,0,0,1.81,3.48,3.5,3.5,0,0,0-2.19,3.42,4.14,4.14,0,0,0,1.72,3.39,6,6,0,0,0,3.24.86c2.35,0,4.73-1.26,4.73-4.58a4.16,4.16,0,0,0-2.19-3.89m-2.84-5.54c1.26,0,2.09,1.25,2.1,2.73a2.47,2.47,0,0,1-.68,1.81l-.51-.28c-.9-.5-2.47-1.2-2.47-2.65a1.54,1.54,0,0,1,1.56-1.61m.16,12.45a2.6,2.6,0,0,1-2.38-2.87,2.82,2.82,0,0,1,1-2.29l1.23.71c.81.48,2.12,1.07,2.1,2.47a1.91,1.91,0,0,1-2,2"/></g></svg>