<svg id="Camada_1" data-name="Camada 1" xmlns="http://www.w3.org/2000/svg" xmlns:xlink="http://www.w3.org/1999/xlink" viewBox="0 0 841.89 595.28"><defs><style>.cls-1,.cls-5{fill:none;}.cls-2{clip-path:url(#clip-path);}.cls-3{fill:#1d1d1b;}.cls-4{fill:#fff;}.cls-5{stroke:#1d1d1b;stroke-width:1.84px;}.cls-6{fill:#cdd500;}</style><clipPath id="clip-path"><rect class="cls-1" width="841.89" height="595.28"/></clipPath></defs><title>Prancheta 1</title><g class="cls-2"><path class="cls-3" d="M648.34,218.14c-.94.29-1.89.55-2.85.77l-1.52.32-.73.13-.38.06c-2.36.34-4.74.56-7.12.67a119,119,0,0,1-16.48-.4c-14.75-1.16-29.39-3.6-44-6.15-17.84-3.13-35.63-6.57-53.46-9.79-19.86-3.58-39.78-6.92-59.79-9.54A614.92,614.92,0,0,0,399.8,189a346.47,346.47,0,0,0-59.88,3c-19.05,2.77-37.87,7.53-55.5,15.36a148.33,148.33,0,0,0-46,31.66c-14.21,14.54-24.95,32.21-32.41,51.08-9.47,23.94-14,49.65-15.68,75.26-.5,7.42-.75,14.85-.82,22.28a1.83,1.83,0,0,0,1.79,1.83,2.9,2.9,0,0,0,1.7-.14,3.59,3.59,0,0,0,1.18-.62c.71-.38,1.43-.75,2.16-1.09.51-.24,1-.47,1.55-.68l.75-.31.32-.13s-.09,0,0,0a56.9,56.9,0,0,1,7.13-2,58.46,58.46,0,0,1,7.43-1.21c3-.34,5.94-.55,8.92-.66,14-.53,27.92.82,42.13,2.54,17.39,2.1,34.7,4.91,52,7.66,19.09,3,38.18,6.07,57.35,8.54,19.84,2.56,39.78,4.55,59.78,5.34a364.56,364.56,0,0,0,58.91-2c18.73-2.31,37.25-6.53,54.78-13.59a151.84,151.84,0,0,0,46.44-29A157.91,157.91,0,0,0,629,313.38c10.71-22.64,16.82-47.28,20.23-72q1.47-10.71,2.31-21.49c.13-1.66-2-2.13-3.23-1.74"/><path class="cls-4" d="M428.57,305.93v30.42c0,.75,0,1.5.07,2.25s-.16,1-.88.95c-4,0-7.92,0-11.88,0-1.09,0-1.25-.1-1.35-1.25-.17-1.88-.31-3.77-.49-5.65a2,2,0,0,0-.23-.57c-.16.1-.39.16-.49.31a19,19,0,0,1-6,5.38,19.31,19.31,0,0,1-6,2.38,30.47,30.47,0,0,1-10.34.54,27.27,27.27,0,0,1-9-2.65,27.87,27.87,0,0,1-9.1-7.75,33.53,33.53,0,0,1-5.24-9.73,48.45,48.45,0,0,1-2-9.27,47.48,47.48,0,0,1,.83-15.82,48.11,48.11,0,0,1,1.63-5.33,27.67,27.67,0,0,1,4.63-8.42,26.87,26.87,0,0,1,8.61-7.59A26.54,26.54,0,0,1,393.12,271a27.55,27.55,0,0,1,11.33,1.68,19.67,19.67,0,0,1,8.85,6.67,1.7,1.7,0,0,0,.48.35,2,2,0,0,0,.27-.59c.19-2,.37-3.95.51-5.93.05-.73.38-.93,1.05-.92q6.11,0,12.22,0c.66,0,.79.33.79.9q0,7.28-.05,14.55,0,9.13,0,18.26m-15.38-.08h0c0-3.37,0-6.74,0-10.12a2.31,2.31,0,0,0-.36-1.2,36.81,36.81,0,0,0-2.51-3.4,16.92,16.92,0,0,0-6.35-4.82,16.23,16.23,0,0,0-10.61-.64,14.46,14.46,0,0,0-7.12,4.43,20.33,20.33,0,0,0-5,12.89c-.11,1.91-.06,3.83,0,5.75a20.55,20.55,0,0,0,1.8,7.94c2.26,5,5.8,8.52,11.27,9.66a15.55,15.55,0,0,0,11.27-1.71,21.07,21.07,0,0,0,7.23-7.39,2.43,2.43,0,0,0,.35-1.2c0-3.4,0-6.8,0-10.19"/><path class="cls-5" d="M428.57,305.93v30.42c0,.75,0,1.5.07,2.25s-.16,1-.88.95c-4,0-7.92,0-11.88,0-1.09,0-1.25-.1-1.35-1.25-.17-1.88-.31-3.77-.49-5.65a2,2,0,0,0-.23-.57c-.16.1-.39.16-.49.31a19,19,0,0,1-6,5.38,19.31,19.31,0,0,1-6,2.38,30.47,30.47,0,0,1-10.34.54,27.27,27.27,0,0,1-9-2.65,27.87,27.87,0,0,1-9.1-7.75,33.53,33.53,0,0,1-5.24-9.73,48.45,48.45,0,0,1-2-9.27,47.48,47.48,0,0,1,.83-15.82,48.11,48.11,0,0,1,1.63-5.33,27.67,27.67,0,0,1,4.63-8.42,26.87,26.87,0,0,1,8.61-7.59A26.54,26.54,0,0,1,393.12,271a27.55,27.55,0,0,1,11.33,1.68,19.67,19.67,0,0,1,8.85,6.67,1.7,1.7,0,0,0,.48.35,2,2,0,0,0,.27-.59c.19-2,.37-3.95.51-5.93.05-.73.38-.93,1.05-.92q6.11,0,12.22,0c.66,0,.79.33.79.9q0,7.28-.05,14.55Q428.56,296.8,428.57,305.93Zm-15.38-.08h0c0-3.37,0-6.74,0-10.12a2.31,2.31,0,0,0-.36-1.2,36.81,36.81,0,0,0-2.51-3.4,16.92,16.92,0,0,0-6.35-4.82,16.23,16.23,0,0,0-10.61-.64,14.46,14.46,0,0,0-7.12,4.43,20.33,20.33,0,0,0-5,12.89c-.11,1.91-.06,3.83,0,5.75a20.55,20.55,0,0,0,1.8,7.94c2.26,5,5.8,8.52,11.27,9.66a15.55,15.55,0,0,0,11.27-1.71,21.07,21.07,0,0,0,7.23-7.39,2.43,2.43,0,0,0,.35-1.2C413.2,312.64,413.19,309.24,413.19,305.85Z"/><path class="cls-4" d="M313.71,279.79a9.53,9.53,0,0,0,.72-.73,20.41,20.41,0,0,1,9.93-6.78,30.08,30.08,0,0,1,11.88-1.17A21.22,21.22,0,0,1,348,275.59a23.66,23.66,0,0,1,7.31,10.06,37.38,37.38,0,0,1,2.47,13.7q0,19,0,37.91c0,.44,0,.88,0,1.31,0,.79-.17,1-1,1-1.71,0-3.42,0-5.13,0-2.83,0-5.67,0-8.5,0-.93,0-1.06-.16-1-1.12,0-.46.07-.92.07-1.38q0-17.82,0-35.65a17.19,17.19,0,0,0-1.9-8.69,11.7,11.7,0,0,0-9.81-6.46c-6.45-.44-11.24,2.55-15,7.74a5.28,5.28,0,0,0-1,3.34c0,13.46,0,26.92,0,40.38,0,1.79.42,1.87-1.81,1.84-4.26-.05-8.53,0-12.79,0-1.06,0-1.19-.15-1.12-1.22.06-.82.1-1.64.1-2.47q0-30.19,0-60.39c0-.78,0-1.56-.09-2.33s.21-.85.82-.84c3.79,0,7.59,0,11.38.05q.31,0,.63,0c1.3-.1,1.32-.1,1.42,1.28.14,1.84.26,3.68.39,5.51,0,.18.08.36.16.72"/><path class="cls-5" d="M313.71,279.79a9.53,9.53,0,0,0,.72-.73,20.41,20.41,0,0,1,9.93-6.78,30.08,30.08,0,0,1,11.88-1.17A21.22,21.22,0,0,1,348,275.59a23.66,23.66,0,0,1,7.31,10.06,37.38,37.38,0,0,1,2.47,13.7q0,19,0,37.91c0,.44,0,.88,0,1.31,0,.79-.17,1-1,1-1.71,0-3.42,0-5.13,0-2.83,0-5.67,0-8.5,0-.93,0-1.06-.16-1-1.12,0-.46.07-.92.07-1.38q0-17.82,0-35.65a17.19,17.19,0,0,0-1.9-8.69,11.7,11.7,0,0,0-9.81-6.46c-6.45-.44-11.24,2.55-15,7.74a5.28,5.28,0,0,0-1,3.34c0,13.46,0,26.92,0,40.38,0,1.79.42,1.87-1.81,1.84-4.26-.05-8.53,0-12.79,0-1.06,0-1.19-.15-1.12-1.22.06-.82.1-1.64.1-2.47q0-30.19,0-60.39c0-.78,0-1.56-.09-2.33s.21-.85.82-.84c3.79,0,7.59,0,11.38.05q.31,0,.63,0c1.3-.1,1.32-.1,1.42,1.28.14,1.84.26,3.68.39,5.51C313.57,279.25,313.63,279.43,313.71,279.79Z"/><path class="cls-4" d="M457.68,302.28c0,4.82,0,9.65,0,14.48a9.3,9.3,0,0,0,3.42,7.48,9,9,0,0,0,5.7,2,18.91,18.91,0,0,0,8.1-1.42c.28-.13.54-.3.81-.44.56-.3.88-.19,1.08.44.86,2.68,1.7,5.38,2.55,8.07.35,1.08.69,2.16,1.1,3.21a.89.89,0,0,1-.44,1.3,23.9,23.9,0,0,1-8.29,3,35.84,35.84,0,0,1-8.27.35,23.46,23.46,0,0,1-12.39-4.21,20.67,20.67,0,0,1-7.05-9,29.39,29.39,0,0,1-2-10.86c-.12-9.92,0-19.84,0-29.76,0-.86-.19-1-1.06-1-3.46,0-.11,0-3.58,0-.58,0-.83-.29-.82-.91,0-3.91,0-7.81,0-11.71,0-.92.09-1,1-1,3.49,0,.16,0,3.65,0,.56,0,.8-.26.8-.84q0-9.79,0-19.58c0-.36,0-.73,0-1.09,0-.93,0-1,1-1h3.94c3.35,0,6.7,0,10.05,0,.73,0,.77.42.77,1,0,5.58,0,11.16,0,16.74,0,1.31,0,2.62,0,3.93,0,.66.2.92.84.92,3.23,0,6.46,0,9.7,0,2.74,0,2.67-.05,5.41-.09.62,0,.82.28.82.89q0,5.44,0,10.91c0,.34,0,.68.05,1,0,.59-.23.89-.84.89l-15.19-.07c-.56,0-.73.22-.73.77q0,7.83,0,15.65Z"/><path class="cls-5" d="M457.68,302.28c0,4.82,0,9.65,0,14.48a9.3,9.3,0,0,0,3.42,7.48,9,9,0,0,0,5.7,2,18.91,18.91,0,0,0,8.1-1.42c.28-.13.54-.3.81-.44.56-.3.88-.19,1.08.44.86,2.68,1.7,5.38,2.55,8.07.35,1.08.69,2.16,1.1,3.21a.89.89,0,0,1-.44,1.3,23.9,23.9,0,0,1-8.29,3,35.84,35.84,0,0,1-8.27.35,23.46,23.46,0,0,1-12.39-4.21,20.67,20.67,0,0,1-7.05-9,29.39,29.39,0,0,1-2-10.86c-.12-9.92,0-19.84,0-29.76,0-.86-.19-1-1.06-1-3.46,0-.11,0-3.58,0-.58,0-.83-.29-.82-.91,0-3.91,0-7.81,0-11.71,0-.92.09-1,1-1,3.49,0,.16,0,3.65,0,.56,0,.8-.26.8-.84q0-9.79,0-19.58c0-.36,0-.73,0-1.09,0-.93,0-1,1-1h3.94c3.35,0,6.7,0,10.05,0,.73,0,.77.42.77,1,0,5.58,0,11.16,0,16.74,0,1.31,0,2.62,0,3.93,0,.66.2.92.84.92,3.23,0,6.46,0,9.7,0,2.74,0,2.67-.05,5.41-.09.62,0,.82.28.82.89q0,5.44,0,10.91c0,.34,0,.68.05,1,0,.59-.23.89-.84.89l-15.19-.07c-.56,0-.73.22-.73.77q0,7.83,0,15.65Z"/><path class="cls-4" d="M485.45,303V286.81c0-.82-.17-1-.94-.95-3.54,0-.26,0-3.8.05-.57,0-.7-.34-.7-.85,0-3.57.06-7.13.08-10.7,0-.46,0-.92-.07-1.38s.14-.74.67-.74c3.56,0,.31,0,3.87.05.66,0,.91-.22.91-.93q0-10,0-20c0-1.58,0-1.58,1.57-1.59l13.28,0c.54,0,.77.23.77.78,0,6.7,0,13.4-.05,20.09,0,1.42-.38,1.7,1.58,1.7l14.41-.05c.72,0,.88.13.88.94,0,3.57,0,7.14,0,10.7,0,.39,0,.78,0,1.16,0,.61-.24.89-.84.88-1.15,0-2.3,0-3.45,0l-11.74,0c-.55,0-.9.14-.9.81q0,7.53.05,15.07c0,4.58,0,9.17,0,13.75a11.64,11.64,0,0,0,1.52,6.41,8.46,8.46,0,0,0,6.09,4.14,18,18,0,0,0,9.58-1.21,6.39,6.39,0,0,0,.93-.5c.5-.32.83-.23,1,.36l1.63,5,1.74,5.3a7.69,7.69,0,0,1,.44,1.44,1,1,0,0,1-.4.78,34.84,34.84,0,0,1-4.71,2.23,30.56,30.56,0,0,1-13.13,1.15A22.92,22.92,0,0,1,495.22,337a20,20,0,0,1-7.94-10.16,31.71,31.71,0,0,1-1.84-10.89c0-4.29,0-8.58,0-12.88"/><path class="cls-5" d="M485.45,303V286.81c0-.82-.17-1-.94-.95-3.54,0-.26,0-3.8.05-.57,0-.7-.34-.7-.85,0-3.57.06-7.13.08-10.7,0-.46,0-.92-.07-1.38s.14-.74.67-.74c3.56,0,.31,0,3.87.05.66,0,.91-.22.91-.93q0-10,0-20c0-1.58,0-1.58,1.57-1.59l13.28,0c.54,0,.77.23.77.78,0,6.7,0,13.4-.05,20.09,0,1.42-.38,1.7,1.58,1.7l14.41-.05c.72,0,.88.13.88.94,0,3.57,0,7.14,0,10.7,0,.39,0,.78,0,1.16,0,.61-.24.89-.84.88-1.15,0-2.3,0-3.45,0l-11.74,0c-.55,0-.9.14-.9.81q0,7.53.05,15.07c0,4.58,0,9.17,0,13.75a11.64,11.64,0,0,0,1.52,6.41,8.46,8.46,0,0,0,6.09,4.14,18,18,0,0,0,9.58-1.21,6.39,6.39,0,0,0,.93-.5c.5-.32.83-.23,1,.36l1.63,5,1.74,5.3a7.69,7.69,0,0,1,.44,1.44,1,1,0,0,1-.4.78,34.84,34.84,0,0,1-4.71,2.23,30.56,30.56,0,0,1-13.13,1.15A22.92,22.92,0,0,1,495.22,337a20,20,0,0,1-7.94-10.16,31.71,31.71,0,0,1-1.84-10.89C485.48,311.63,485.45,307.34,485.45,303Z"/><path class="cls-4" d="M569.91,270.84a47.4,47.4,0,0,1,12.7,1.92,32,32,0,0,1,9.34,4.63c.34.25.52.5.27,1-.94,1.75-1.86,3.52-2.78,5.29s-1.73,3.38-2.61,5.06c-.45.86-.57.77-1.39.31a52.71,52.71,0,0,0-5.82-3A25.54,25.54,0,0,0,568.28,284a12.3,12.3,0,0,0-6.34,1.64,5.26,5.26,0,0,0-2.44,4.11c-.28,3.14.65,4.79,3.41,6.15a35.22,35.22,0,0,0,6.91,2.36c2.54.66,5,1.44,7.56,2.23a32.24,32.24,0,0,1,8,3.91,17.58,17.58,0,0,1,6.62,7.71,16.94,16.94,0,0,1,1.3,6.8,19.94,19.94,0,0,1-2.69,10.61,20.47,20.47,0,0,1-5.26,5.78,25.36,25.36,0,0,1-10.78,4.72,41.08,41.08,0,0,1-7.82.72,60.85,60.85,0,0,1-9.45-.66,32.39,32.39,0,0,1-12.07-4.34c-1.15-.71-2.23-1.52-3.35-2.27-.46-.31-.52-.62-.24-1.14,1.92-3.55,3.8-7.12,5.69-10.69.24-.46.48-.72,1-.3a25.28,25.28,0,0,0,9.25,5.07,27.41,27.41,0,0,0,11.16,1.23,28.32,28.32,0,0,0,4.47-.9,5.94,5.94,0,0,0,3.76-3,6.54,6.54,0,0,0-2.89-9,44.88,44.88,0,0,0-6.52-2.44c-4.51-1.29-9.1-2.31-13.35-4.42a19.92,19.92,0,0,1-7.34-5.72A15.33,15.33,0,0,1,544,295a21.82,21.82,0,0,1,.85-9.9,17.45,17.45,0,0,1,5.23-8,22.67,22.67,0,0,1,9.45-4.93,22.26,22.26,0,0,1,3-.7c2.44-.28,4.89-.47,7.34-.7"/><path class="cls-5" d="M569.91,270.84a47.4,47.4,0,0,1,12.7,1.92,32,32,0,0,1,9.34,4.63c.34.25.52.5.27,1-.94,1.75-1.86,3.52-2.78,5.29s-1.73,3.38-2.61,5.06c-.45.86-.57.77-1.39.31a52.71,52.71,0,0,0-5.82-3A25.54,25.54,0,0,0,568.28,284a12.3,12.3,0,0,0-6.34,1.64,5.26,5.26,0,0,0-2.44,4.11c-.28,3.14.65,4.79,3.41,6.15a35.22,35.22,0,0,0,6.91,2.36c2.54.66,5,1.44,7.56,2.23a32.24,32.24,0,0,1,8,3.91,17.58,17.58,0,0,1,6.62,7.71,16.94,16.94,0,0,1,1.3,6.8,19.94,19.94,0,0,1-2.69,10.61,20.47,20.47,0,0,1-5.26,5.78,25.36,25.36,0,0,1-10.78,4.72,41.08,41.08,0,0,1-7.82.72,60.85,60.85,0,0,1-9.45-.66,32.39,32.39,0,0,1-12.07-4.34c-1.15-.71-2.23-1.52-3.35-2.27-.46-.31-.52-.62-.24-1.14,1.92-3.55,3.8-7.12,5.69-10.69.24-.46.48-.72,1-.3a25.28,25.28,0,0,0,9.25,5.07,27.41,27.41,0,0,0,11.16,1.23,28.32,28.32,0,0,0,4.47-.9,5.94,5.94,0,0,0,3.76-3,6.54,6.54,0,0,0-2.89-9,44.88,44.88,0,0,0-6.52-2.44c-4.51-1.29-9.1-2.31-13.35-4.42a19.92,19.92,0,0,1-7.34-5.72A15.33,15.33,0,0,1,544,295a21.82,21.82,0,0,1,.85-9.9,17.45,17.45,0,0,1,5.23-8,22.67,22.67,0,0,1,9.45-4.93,22.26,22.26,0,0,1,3-.7C565,271.26,567.46,271.07,569.91,270.84Z"/><path class="cls-6" d="M264.58,270.84a47.4,47.4,0,0,1,12.7,1.92,32,32,0,0,1,9.34,4.63c.34.25.53.5.27,1-.94,1.75-1.86,3.52-2.78,5.29s-1.73,3.38-2.61,5.06c-.45.86-.57.77-1.39.31a52.71,52.71,0,0,0-5.82-3A25.54,25.54,0,0,0,263,284a12.3,12.3,0,0,0-6.34,1.64,5.26,5.26,0,0,0-2.44,4.11c-.28,3.14.65,4.79,3.41,6.15a35.45,35.45,0,0,0,6.91,2.36c2.54.66,5.05,1.44,7.56,2.23a32.24,32.24,0,0,1,8.05,3.91,17.52,17.52,0,0,1,6.62,7.71A16.94,16.94,0,0,1,288,319a19.94,19.94,0,0,1-2.69,10.61,20.47,20.47,0,0,1-5.26,5.78,25.36,25.36,0,0,1-10.78,4.72,41.08,41.08,0,0,1-7.82.72,60.94,60.94,0,0,1-9.45-.66A32.39,32.39,0,0,1,240,335.78c-1.14-.71-2.22-1.52-3.34-2.27-.47-.31-.53-.62-.25-1.14q2.88-5.33,5.69-10.69c.25-.46.48-.72,1-.3a25.28,25.28,0,0,0,9.25,5.07,27.41,27.41,0,0,0,11.16,1.23,28.09,28.09,0,0,0,4.47-.9,5.94,5.94,0,0,0,3.76-3,6.54,6.54,0,0,0-2.88-9,45,45,0,0,0-6.53-2.44c-4.51-1.29-9.1-2.31-13.34-4.42a19.88,19.88,0,0,1-7.35-5.72A15.44,15.44,0,0,1,238.7,295a21.82,21.82,0,0,1,.85-9.9,17.53,17.53,0,0,1,5.23-8,27.38,27.38,0,0,1,12.46-5.63c2.44-.28,4.89-.47,7.34-.7"/><path class="cls-5" d="M264.58,270.84a47.4,47.4,0,0,1,12.7,1.92,32,32,0,0,1,9.34,4.63c.34.25.53.5.27,1-.94,1.75-1.86,3.52-2.78,5.29s-1.73,3.38-2.61,5.06c-.45.86-.57.77-1.39.31a52.71,52.71,0,0,0-5.82-3A25.54,25.54,0,0,0,263,284a12.3,12.3,0,0,0-6.34,1.64,5.26,5.26,0,0,0-2.44,4.11c-.28,3.14.65,4.79,3.41,6.15a35.45,35.45,0,0,0,6.91,2.36c2.54.66,5.05,1.44,7.56,2.23a32.24,32.24,0,0,1,8.05,3.91,17.52,17.52,0,0,1,6.62,7.71A16.94,16.94,0,0,1,288,319a19.94,19.94,0,0,1-2.69,10.61,20.47,20.47,0,0,1-5.26,5.78,25.36,25.36,0,0,1-10.78,4.72,41.08,41.08,0,0,1-7.82.72,60.94,60.94,0,0,1-9.45-.66A32.39,32.39,0,0,1,240,335.78c-1.14-.71-2.22-1.52-3.34-2.27-.47-.31-.53-.62-.25-1.14q2.88-5.33,5.69-10.69c.25-.46.48-.72,1-.3a25.28,25.28,0,0,0,9.25,5.07,27.41,27.41,0,0,0,11.16,1.23,28.09,28.09,0,0,0,4.47-.9,5.94,5.94,0,0,0,3.76-3,6.54,6.54,0,0,0-2.88-9,45,45,0,0,0-6.53-2.44c-4.51-1.29-9.1-2.31-13.34-4.42a19.88,19.88,0,0,1-7.35-5.72A15.44,15.44,0,0,1,238.7,295a21.82,21.82,0,0,1,.85-9.9,17.53,17.53,0,0,1,5.23-8,27.38,27.38,0,0,1,12.46-5.63C259.68,271.26,262.13,271.07,264.58,270.84Z"/><path class="cls-6" d="M567.43,217.11c-9.06,15.62-31.39,34.23-51.3,41.21-2-6.17,1.34-16.81,3.12-23,2.16-7.53,5.43-14.89,10.49-20.94,12.77-15.28,38.73-15.1,57.78-18.38-3.28,16.53-7.75,39.28-20,53.22-13.37,15.2-34.3,12.59-51.91,9.71"/><path class="cls-3" d="M563.48,217.78c-4,6.88-9.51,12.88-15.34,18.27a115.81,115.81,0,0,1-20.84,15.39q-3.24,1.84-6.61,3.42c-1.15.53-1.85.84-2.54,1.12-1.13.47-2.28.9-3.44,1.31l5.42,0c-1-3.14-.69-6.58-.15-9.77a92.86,92.86,0,0,1,2.53-10.41c2.18-7.55,4.85-15,9.66-21.37A31.25,31.25,0,0,1,539,209c.57-.41,1.17-.8,1.77-1.17l.56-.34.1-.06c.38-.22.77-.43,1.16-.63.64-.34,1.29-.65,1.94-1l1.07-.48c-.71.31.44-.17.64-.25.74-.29,1.49-.57,2.24-.83l1.14-.38c.59-.21-.67.2-.07,0l.66-.2c1.63-.49,3.27-.91,4.91-1.3l.85-.2c-.42.1.63-.13.85-.17.88-.18,1.75-.35,2.63-.51,1.71-.32,3.42-.6,5.13-.86,7.41-1.12,14.88-1.81,22.27-3.07l-3.24-.93c-2.82,14.18-5.72,28.7-12.35,41.68-3.17,6.21-7.3,12.33-13.17,16.28-.39.26-.79.52-1.19.76-.15.09-.3.19-.46.27-.5.3.35-.18-.16.09-.77.42-1.55.8-2.34,1.16-.12.06-.68.28,0,0l-.48.2-1.13.43c-.13,0-1.27.42-.79.27s-.17.05-.3.09l-.83.23-1.18.3-.51.11c.86-.19.24-.05.06,0-.86.16-1.72.32-2.58.44-.2,0-1.26.16-.57.08l-1.23.12c-.94.09-1.88.14-2.82.18s-1.75.06-2.34.05c-1,0-2,0-3-.08-2-.09-3.94-.24-5.91-.44-3.81-.39-7.59-1-11.35-1.58a9.31,9.31,0,0,0-5.6,1c-.61.3-2.82,1.94-.94,2.25,15.59,2.55,32.1,4.36,46.87-2.64s22-22.85,26.49-37.74c2.44-8.15,4.13-16.49,5.79-24.83.29-1.47-2.55-1.05-3.25-.94-14.37,2.46-29.09,3-43,7.94-6.72,2.39-13.31,5.89-18.2,11.18-5.8,6.28-9.42,14.35-11.79,22.48-1.1,3.79-2.23,7.59-3,11.47s-1.37,8.09-.18,11.89c.49,1.57,4.65.24,5.42,0A102.87,102.87,0,0,0,542.6,246a118.12,118.12,0,0,0,20.73-18.52,73.08,73.08,0,0,0,8.06-11c.78-1.33-2.83-1-3.25-.93-1.51.27-3.8.8-4.66,2.27"/></g></svg>