<svg id="Layer_1" data-name="Layer 1" xmlns="http://www.w3.org/2000/svg" viewBox="0 0 748.52 748.52"><defs><style>.cls-1,.cls-2{fill:#f26922;}.cls-1{opacity:0.45;}.cls-2,.cls-3{stroke:#f26922;stroke-miterlimit:10;}.cls-3{fill:none;stroke-width:2px;}.cls-4{fill:blue;}.cls-5{fill:#000036;}</style></defs><title>Artboard 1@2xx</title><circle class="cls-1" cx="185.76" cy="489.55" r="111.91" transform="translate(-291.76 274.74) rotate(-45)"/><circle class="cls-2" cx="184.48" cy="489.69" r="71.9" transform="translate(-292.23 273.87) rotate(-45)"/><line class="cls-3" x1="237.27" y1="537.13" x2="442.31" y2="284.64"/><line class="cls-3" x1="149.24" y1="428.21" x2="432.58" y2="256.9"/><circle class="cls-4" cx="433.76" cy="272.4" r="16.69" transform="translate(-71.82 354.48) rotate(-41.35)"/><path class="cls-5" d="M161.57,296.55l2.79-4.86c4.85,4.13,13.47,7.65,22.81,7.65,13.34,0,18.68-4.73,18.68-11.89,0-18.44-42-4.86-42-29.73,0-9.58,8-17.35,24-17.35,8,0,16.74,2.43,21.71,6.19l-2.79,4.85c-5.34-3.88-12.25-5.7-19-5.7-12.37,0-17.83,5.1-17.83,11.89,0,19,42,5.58,42,29.73,0,10.31-8.86,17.34-25,17.34C176.49,304.67,166.54,301.16,161.57,296.55Z"/><path class="cls-5" d="M301.09,272.52c0,19.05-13.46,32.15-31.3,32.15-11.16,0-20.62-5.45-25.72-14.92V318H238V240.86h5.82v14.92c5-9.7,14.56-15.41,26-15.41C287.63,240.37,301.09,253.6,301.09,272.52Zm-6.06,0c0-15.89-11-26.69-25.6-26.69S244,256.63,244,272.52s10.92,26.7,25.48,26.7S295,288.42,295,272.52Z"/><path class="cls-5" d="M374.5,264v40.16h-5.82V292.91c-4,7.28-11.77,11.76-22.81,11.76-14.2,0-22.81-7.27-22.81-18.07,0-9.59,6.07-17.72,23.66-17.72h21.71v-5.09c0-11.77-6.43-18.08-18.8-18.08a32.88,32.88,0,0,0-21.84,8l-3-4.37c6.31-5.58,15.53-9,25.35-9C365.76,240.37,374.5,248.38,374.5,264Zm-6.07,21.48V273.62H346.84c-13.1,0-17.71,5.46-17.71,12.74,0,8.25,6.43,13.34,17.59,13.34C357.39,299.7,364.8,294.61,368.43,285.51Z"/><path class="cls-5" d="M401.8,272.52c0-18.92,13.47-32.15,32-32.15,10.07,0,18.81,3.89,24,11.65l-4.49,3.28c-4.6-6.43-11.64-9.47-19.53-9.47-14.92,0-25.84,10.68-25.84,26.69s10.92,26.7,25.84,26.7c7.89,0,14.93-3,19.53-9.47l4.49,3.28c-5.21,7.64-14,11.64-24,11.64C415.27,304.67,401.8,291.33,401.8,272.52Z"/><path class="cls-5" d="M537.57,274H483.1c.6,15,11.64,25.24,26.81,25.24,8,0,15.41-2.92,20.26-8.86l3.52,4c-5.58,6.8-14.32,10.31-23.9,10.31-19.17,0-32.64-13.34-32.64-32.15s13-32.15,30.33-32.15,30.21,13.11,30.21,31.91C537.69,272.77,537.57,273.37,537.57,274Zm-54.35-4.73h48.53c-.85-13.71-10.8-23.54-24.27-23.54S484.19,255.42,483.22,269.25Z"/><path class="cls-5" d="M124.61,378v37h-6.06V378.52c0-14.32-7.65-21.84-20.51-21.84-14.92,0-24,9.58-24,24.63V415H68V336.71H74v28.22c4.37-8.61,13.1-13.71,24.87-13.71C114.3,351.22,124.61,360.32,124.61,378Z"/><path class="cls-5" d="M214.15,351.71V415h-5.82V401.45c-4.12,8.86-12.74,14.07-23.9,14.07-16.13,0-26.45-9.1-26.45-26.81v-37h6.07v36.51c0,14.32,7.64,21.84,20.87,21.84,14.31,0,23.17-9.58,23.17-24.63V351.71Z"/><path class="cls-5" d="M312.07,383.37c0,18.93-13.47,32.15-31.3,32.15-11.41,0-21-5.7-26-15.41V415H249V336.71h6.07v29.43c5.09-9.46,14.56-14.92,25.72-14.92C298.6,351.22,312.07,364.32,312.07,383.37Zm-6.07,0c0-15.89-11-26.69-25.6-26.69s-25.47,10.8-25.47,26.69,10.92,26.69,25.47,26.69S306,399.27,306,383.37Z"/><path class="cls-5" d="M330.64,407.39l2.79-4.85c4.85,4.13,13.46,7.64,22.81,7.64,13.34,0,18.68-4.73,18.68-11.89,0-18.44-42-4.85-42-29.72,0-9.59,8-17.35,24-17.35,8,0,16.75,2.43,21.72,6.19l-2.79,4.85c-5.34-3.88-12.25-5.7-19.05-5.7-12.37,0-17.83,5.09-17.83,11.89,0,19.05,42,5.58,42,29.72,0,10.32-8.86,17.35-25,17.35C345.56,415.52,335.61,412,330.64,407.39Z"/><path class="cls-5" d="M214.64,481.39v37h-6.07V481.88c0-14.32-7.64-21.84-20.5-21.84-14.92,0-24,9.58-24,24.63v33.72H158V455.06h5.83v13.71c4.24-8.85,13.1-14.19,25.11-14.19C204.33,454.58,214.64,463.68,214.64,481.39Z"/><path class="cls-5" d="M302.36,488.18H247.89c.6,15.05,11.64,25.24,26.81,25.24,8,0,15.41-2.91,20.26-8.86l3.52,4c-5.58,6.79-14.32,10.31-23.9,10.31-19.17,0-32.64-13.35-32.64-32.15s13-32.15,30.33-32.15,30.21,13.1,30.21,31.91C302.48,487,302.36,487.58,302.36,488.18ZM248,483.45h48.53c-.85-13.71-10.8-23.53-24.27-23.53S249,469.62,248,483.45Z"/><path class="cls-5" d="M361.81,514.39c-3.15,3-8.25,4.49-13,4.49-11.16,0-17.22-6.55-17.22-17.23V460.28H320v-5.22h11.65V441.23h6.06v13.83h20.14v5.22H337.67v40.77c0,8.12,4,12.61,11.77,12.61a14.55,14.55,0,0,0,9.83-3.52Z"/><path class="cls-5" d="M477.08,455.06l-24,63.33h-5.7l-21.35-55-21.48,55h-5.58l-24-63.33h5.82l21.12,56.54,21.59-56.54h5.22l21.47,56.42,21.35-56.42Z"/><path class="cls-5" d="M491.52,486.73c0-18.81,13.47-32.15,31.67-32.15s31.66,13.34,31.66,32.15-13.46,32.15-31.66,32.15S491.52,505.53,491.52,486.73Zm57.14,0c0-15.89-10.91-26.69-25.47-26.69s-25.48,10.8-25.48,26.69,10.92,26.69,25.48,26.69S548.66,502.62,548.66,486.73Z"/><path class="cls-5" d="M612.73,454.58v5.94c-.49,0-1-.12-1.46-.12-14.07,0-22.44,9.34-22.44,25v33h-6.07V455.06h5.83v13.83C592.47,459.67,600.84,454.58,612.73,454.58Z"/><path class="cls-5" d="M661.14,484.54l-16.5,15v18.8h-6.06v-90h6.06v63.7l40.52-37h7.77l-27.3,25.6,30,37.73h-7.52Z"/></svg>