<svg id="Camada_1" data-name="Camada 1" xmlns="http://www.w3.org/2000/svg" xmlns:xlink="http://www.w3.org/1999/xlink" viewBox="0 0 2337.74 954.19"><defs><style>.cls-1{fill:none;}.cls-2{clip-path:url(#clip-path);}.cls-3{fill:#666;}.cls-4{fill:#122d35;}.cls-5{fill:#0e5258;}.cls-6{fill:#ad333d;}.cls-7{fill:#eda326;}.cls-8{fill:#edc726;}</style><clipPath id="clip-path"><rect class="cls-1" width="2337.74" height="954.19"/></clipPath></defs><title>Prancheta 1</title><g class="cls-2"><path class="cls-3" d="M757.25,838.39h-69q-63.09,0-95.89-32.39t-32.82-77.32V507.79H512.61V434.9h46.88V352.43H670.31V434.9h78.41v72.89H670.31v215q0,34.61,38.35,34.6h48.59Z"/><path class="cls-3" d="M1036,839.13l-96.32-.74q-63.93,0-96.75-32.39t-32.82-77.32v-444H920.9V470.24l132.12-53q75.87,0,111.67,35.35,31.53,31.67,39.21,102.35,2.55,29.45,2.56,72.89,0,211.34-170.48,211.32m-87-82.47h54.56q92.05,0,92.06-128.85,0-65.52-14.07-91.3t-60.94-25.78L920.9,557.12V722.8q0,29.44,28.13,33.86"/><path class="cls-3" d="M1648.85,650.64H1365q0,57.42,20.88,83.93t84,26.51q40.9,0,60.52-22.46t19.6-43.07h99.73q0,78.8-49,115.6T1471.12,848q-80.55,0-124.87-19.88-91.21-40.49-91.21-215,0-103.82,52-152.05t158.55-48.22q185,0,185,177.45,0,19.15-1.71,60.38M1367.56,585.1H1550q0-48.58-21.31-70.68t-65.21-22.09q-43.9,0-69.89,22.45t-26,70.32"/><path class="cls-3" d="M1978.72,684.5l100.58-.73c-.57,3.94-1.14,11-1.7,21.35s-1,17.31-1.28,21-1,9.45-2.13,17.3-2.43,13.62-3.84,17.3l-5.54,14.36q-15.34,38.29-83.53,60.38a309.79,309.79,0,0,1-90.78,13.26q-47.31,0-85.67-13.26t-60.52-33.87Q1694,755.94,1694,630.39t50.29-171.2q22.15-20.6,60.52-33.87t85.24-13.25q92.06,0,139.79,39.76t47.74,110.45H1977q0-32.4-18.76-48.23t-69.47-15.83q-50.71,0-67.34,27.24t-16.62,81.73v38.29q0,87.63,39.21,107.5,17.89,9.59,46.88,9.58t47.31-4.79q18.33-4.78,26.43-16.57T1975.31,718q2.57-11.41,3.41-33.51"/><path class="cls-4" d="M444.09,234.79l67.9,160,0,0,0,0c29.21,12.7,49.82,20.51,109.89-5s68.84-45.78,80-75.61v-.05l-67.9-160Z"/><polygon class="cls-5" points="584.97 302.59 303.2 323.63 299.37 314.6 514.05 135.54 791.99 105.48 795.82 114.51 584.97 302.59"/><polygon class="cls-4" points="580.52 292.12 299.37 314.6 510.84 127.97 791.99 105.48 580.52 292.12"/><path class="cls-6" d="M317.64,521.93c-9.94-23.41-10.35-64.5-10.75-104.22-.36-35.65-.73-72.51-8-95.59A10.72,10.72,0,0,1,305,309L544.51,207.29l2.34,5.51L307.3,314.49a4.76,4.76,0,0,0-2.66,5.84c7.5,23.93,7.87,61.24,8.24,97.32.39,39.14.79,79.62,10.27,101.94Z"/><path class="cls-7" d="M401.3,558l-12.85,5.32a59.84,59.84,0,0,0-7.88-11.58l9.66-10a2.27,2.27,0,0,0-.66-3.15L361.29,520a2.27,2.27,0,0,0-3.15.66l-5.33,12.84a60.08,60.08,0,0,0-13.76-2.6L338.8,517a2.29,2.29,0,0,0-2.7-1.77L303,522.13a2.29,2.29,0,0,0-1.77,2.7l5.32,12.86A59.8,59.8,0,0,0,295,545.56l-10-9.64a2.3,2.3,0,0,0-3.18.65l-18.52,28.28a2.28,2.28,0,0,0,.66,3.15l12.84,5.33a60.88,60.88,0,0,0-2.62,13.76l-13.9.25a2.27,2.27,0,0,0-1.76,2.7l6.88,33.1a2.28,2.28,0,0,0,2.7,1.77l12.85-5.31a61,61,0,0,0,7.88,11.57l-9.64,10a2.27,2.27,0,0,0,.65,3.15l28.27,18.54a2.29,2.29,0,0,0,3.17-.66l5.32-12.85A59.79,59.79,0,0,0,330.33,652l.26,13.92a2.27,2.27,0,0,0,2.69,1.77l33.11-6.89a2.3,2.3,0,0,0,1.77-2.7l-5.33-12.86a60.36,60.36,0,0,0,11.58-7.89l10,9.67a2.29,2.29,0,0,0,3.16-.66l18.53-28.28a2.27,2.27,0,0,0-.65-3.15l-12.86-5.33a59.7,59.7,0,0,0,2.62-13.76l13.9-.25a2.29,2.29,0,0,0,1.78-2.7L404,559.76A2.29,2.29,0,0,0,401.3,558M342,626.39a35.69,35.69,0,1,1,27.67-42.22A35.68,35.68,0,0,1,342,626.39"/><path class="cls-8" d="M326.33,551.29a41,41,0,1,0,48.52,31.8,41,41,0,0,0-48.52-31.8m14.56,70a30.48,30.48,0,1,1,23.64-36.06,30.48,30.48,0,0,1-23.64,36.06"/></g></svg>
