<svg id="Camada_1" data-name="Camada 1" xmlns="http://www.w3.org/2000/svg" viewBox="0 0 461 668.01"><defs><style>.cls-1{fill:#676767;}.cls-1,.cls-2{stroke:#fff;stroke-miterlimit:10;}.cls-2{fill:none;}.cls-3{font-size:15.67px;font-family:OpenSans, Open Sans;}.cls-3,.cls-6{fill:#fff;}.cls-4{opacity:0.54;}.cls-5{fill:#eda126;}.cls-6{font-size:121.44px;font-family:OpenSans-CondensedBold, Open Sans Condensed;font-weight:700;}</style></defs><title>Prancheta 1</title><rect class="cls-1" x="16" y="13.01" width="429" height="642"/><line class="cls-2" x1="15.5" y1="57.5" x2="444.5" y2="58.5"/><text class="cls-3" transform="translate(42.61 31.28)">FRIDAY<tspan x="5.33" y="15.03">04/03</tspan></text><text class="cls-3" transform="translate(138.09 31.72)">SATURDAY<tspan x="18.4" y="15.03">05/03</tspan></text><text class="cls-3" transform="translate(252.57 31.72)">SUNDAY<tspan x="10.17" y="15.03">06/03</tspan></text><text class="cls-3" transform="translate(344.68 31.72)">WEDNESDAY<tspan x="26.15" y="15.03">09/03</tspan></text><g class="cls-4"><path class="cls-5" d="M181.74,330.81a16.49,16.49,0,1,1-16.45,16.5,16.5,16.5,0,0,1,16.45-16.5m-24.91-37.66,20.72,15.06-16.44,22.65h0c-.24.31-.48.64-.71,1a26.28,26.28,0,0,0-3.72,23.65c.08.23.12.47.21.71.18.51.41,1,.63,1.5.1.25.17.5.29.76s.17.3.25.46c.29.59.59,1.17.92,1.75v0c.18.3.39.59.58.88.3.45.61.95.93,1.39l0,0a1.84,1.84,0,0,0,.17.25l.49.62h0l16.29,22.44-20.64,15a67.48,67.48,0,0,0-85.92-14.44,173.93,173.93,0,0,1,0-79.26,67.51,67.51,0,0,0,85.92-14.44"/><path class="cls-5" d="M237.39,287a16.49,16.49,0,1,1-20.76-10.54A16.5,16.5,0,0,1,237.39,287m28.13-35.32-7.92,24.36L231,267.4l0,0c-.38-.14-.77-.25-1.15-.38a26.37,26.37,0,0,0-23.64,3.77c-.2.15-.41.27-.61.42-.43.33-.82.7-1.24,1.06-.2.18-.43.33-.62.52s-.24.26-.37.37c-.47.46-.93.92-1.38,1.43h0c-.23.26-.43.56-.65.82-.34.42-.72.87-1,1.31l0,.05-.19.23c-.14.23-.29.45-.44.67v0l-16.31,22.4-20.62-15a67.48,67.48,0,0,0-12.82-86.19,174,174,0,0,1,75.39-24.49,67.5,67.5,0,0,0,40.29,77.25Z"/><path class="cls-5" d="M296.25,326.42a16.49,16.49,0,1,1,3.61-23,16.51,16.51,0,0,1-3.61,23m42.28,15.84-25.61,0v-28l0,0c0-.4,0-.81,0-1.21A26.27,26.27,0,0,0,302,291.77c-.2-.16-.37-.32-.58-.46-.45-.31-.92-.57-1.4-.85-.23-.14-.43-.3-.68-.43s-.31-.15-.47-.24c-.59-.31-1.16-.6-1.77-.87l0,0c-.31-.14-.66-.23-1-.37-.5-.18-1-.4-1.55-.57h-.06c-.1,0-.19-.08-.29-.1-.25-.08-.52-.14-.77-.21l0,0L267.09,279,275,254.77a67.47,67.47,0,0,0,78-38.83,173.87,173.87,0,0,1,46.6,64.12,67.53,67.53,0,0,0-61,62.2"/><path class="cls-5" d="M277,394.57a16.5,16.5,0,1,1,23-3.68,16.49,16.49,0,0,1-23,3.68m-2,45.11-7.9-24.37,26.62-8.65,0,0c.37-.1.75-.24,1.13-.35a26.33,26.33,0,0,0,16.92-16.95c.08-.24.18-.45.25-.7.15-.52.26-1.05.38-1.58.06-.27.15-.51.2-.78s0-.36.07-.53c.12-.65.22-1.28.29-2l0,0c0-.35,0-.71,0-1.06,0-.53.08-1.12.08-1.65,0,0,0,0,0-.06s0-.2,0-.3c0-.27,0-.54,0-.81l0,0V352.17h25.49a67.46,67.46,0,0,0,61,62.19A174,174,0,0,1,353,478.51a67.51,67.51,0,0,0-78-38.83Z"/><path class="cls-5" d="M206.19,397.28A16.49,16.49,0,1,1,216.79,418a16.5,16.5,0,0,1-10.6-20.74m-43.52,12.05,20.73-15.05,16.45,22.64,0,0c.22.33.46.65.7,1A26.25,26.25,0,0,0,221.9,428.7c.25,0,.49,0,.74,0,.54,0,1.08-.08,1.63-.13.27,0,.54,0,.81,0s.34-.08.51-.1a19.56,19.56,0,0,0,2-.33h0c.33-.07.67-.19,1-.28.51-.14,1.09-.29,1.6-.45,0,0,0,0,.05,0a1.38,1.38,0,0,0,.29-.08l.76-.28v0l26.36-8.54,7.87,24.24A67.5,67.5,0,0,0,225.23,520a173.91,173.91,0,0,1-75.38-24.49,67.51,67.51,0,0,0,12.82-86.18"/></g><line class="cls-2" x1="123.5" y1="13.5" x2="123.5" y2="655.5"/><line class="cls-2" x1="230.5" y1="13.5" x2="230.5" y2="655.5"/><line class="cls-2" x1="337.5" y1="13.5" x2="337.5" y2="655.5"/><text class="cls-6" transform="translate(55 385.49) scale(0.81 1)">LOADING</text></svg>