<svg id="Camada_1" data-name="Camada 1" xmlns="http://www.w3.org/2000/svg" viewBox="0 0 530.33 162.38"><defs><style>.cls-1{fill:#6b9740;}.cls-2{fill:#65913c;}.cls-3{fill:#fff;stroke:#feffff;stroke-miterlimit:10;stroke-width:0.5px;}</style></defs><title>pyramid</title><polygon class="cls-1" points="177.31 0.05 92.07 162.38 265.16 162.38 265.16 0.05 177.31 0.05"/><polygon class="cls-2" points="265.16 0.05 265.16 162.38 438.26 162.38 353.01 0.05 265.16 0.05"/><path class="cls-3" d="M183,79V69l-5.65,1.76V68.46l6-2.09h2.1V79h4.09v2.23H178V79Z"/><path class="cls-3" d="M205.27,73.81a9.89,9.89,0,0,1-.46,3.08,7.38,7.38,0,0,1-1.33,2.48A6.28,6.28,0,0,1,201.34,81a6.56,6.56,0,0,1-2.86.59,6.79,6.79,0,0,1-2.93-.59,6,6,0,0,1-2.14-1.64,7.19,7.19,0,0,1-1.32-2.48,10.52,10.52,0,0,1-.44-3.08,9.93,9.93,0,0,1,.46-3.1,7.27,7.27,0,0,1,1.34-2.49,6.12,6.12,0,0,1,2.14-1.65,6.75,6.75,0,0,1,2.87-.59,6.87,6.87,0,0,1,2.91.59,6.16,6.16,0,0,1,2.15,1.65,7.39,7.39,0,0,1,1.31,2.49A10.56,10.56,0,0,1,205.27,73.81Zm-2.53,0a9,9,0,0,0-.3-2.42,5.74,5.74,0,0,0-.86-1.81,3.89,3.89,0,0,0-1.35-1.14,4.12,4.12,0,0,0-3.54,0,3.89,3.89,0,0,0-1.35,1.14,5.16,5.16,0,0,0-.86,1.81,9.83,9.83,0,0,0,0,4.82,5.58,5.58,0,0,0,.86,1.8,3.7,3.7,0,0,0,1.36,1.13,4.14,4.14,0,0,0,3.55,0A3.72,3.72,0,0,0,201.59,78a5.38,5.38,0,0,0,.86-1.8A9.4,9.4,0,0,0,202.74,73.81Z"/><path class="cls-3" d="M226.48,72c1.28,1.85,2.54,3.74,3.79,5.69h.1q-.21-3-.21-6.22V60.31h2.57v20.9h-2.55L222,69.56q-2.13-3-3.8-5.69h-.09q.19,2.87.2,6.67V81.21h-2.55V60.31h2.53Z"/><path class="cls-3" d="M246.4,79.57h-.06a4.79,4.79,0,0,1-.75.74,5.51,5.51,0,0,1-1.05.66,6.43,6.43,0,0,1-1.3.46,6,6,0,0,1-1.5.17,5.62,5.62,0,0,1-2-.32,4.25,4.25,0,0,1-1.55-.93,4.4,4.4,0,0,1-1-1.51,5.39,5.39,0,0,1-.36-2,4.64,4.64,0,0,1,.4-2,4.25,4.25,0,0,1,1.12-1.49,5,5,0,0,1,1.72-.93,7.19,7.19,0,0,1,2.23-.33,12.87,12.87,0,0,1,2.14.2,11.29,11.29,0,0,1,1.75.47h.06v-1a6.91,6.91,0,0,0-.07-1.08,3.24,3.24,0,0,0-.27-.83,3.13,3.13,0,0,0-1.3-1.24,4.93,4.93,0,0,0-2.4-.49,10.23,10.23,0,0,0-2.12.21,13.46,13.46,0,0,0-2,.58v-2a7.2,7.2,0,0,1,.89-.35,9.78,9.78,0,0,1,1.07-.28,10.42,10.42,0,0,1,1.18-.18c.42,0,.84-.06,1.25-.06a7.41,7.41,0,0,1,3.68.8,4.74,4.74,0,0,1,2.06,2.1,4.34,4.34,0,0,1,.33,1.11,7.66,7.66,0,0,1,.11,1.32v9.9h-2Zm-.13-4.87a15.21,15.21,0,0,0-1.58-.36,11.48,11.48,0,0,0-2-.19,3.92,3.92,0,0,0-2.41.66,2.35,2.35,0,0,0-.87,2A3,3,0,0,0,239.6,78a2.51,2.51,0,0,0,.6.85,2.47,2.47,0,0,0,.9.5,3.68,3.68,0,0,0,1.11.16,4.28,4.28,0,0,0,1.45-.23,6.56,6.56,0,0,0,1.19-.53,6.85,6.85,0,0,0,.89-.63c.24-.21.42-.37.53-.48Z"/><path class="cls-3" d="M261.21,81.24a4.43,4.43,0,0,1-.95.24,10.81,10.81,0,0,1-1.53.12,6.17,6.17,0,0,1-2-.29,3.71,3.71,0,0,1-1.43-.82,3.33,3.33,0,0,1-.86-1.31,5.09,5.09,0,0,1-.28-1.7v-9h-2.86V66.37h2.86V62.31h2.42v4.06H261v2.08h-4.44V77.1a2.93,2.93,0,0,0,.15,1,2,2,0,0,0,.47.75,2.1,2.1,0,0,0,.82.5,3.59,3.59,0,0,0,1.21.18,7.39,7.39,0,0,0,1-.07,8.16,8.16,0,0,0,1-.21Z"/><path class="cls-3" d="M264.59,62.92V60.21H267v2.71Zm.06,18.29V66.37h2.42V81.21Z"/><path class="cls-3" d="M285.15,73.81a9.69,9.69,0,0,1-.5,3.18,7.4,7.4,0,0,1-1.42,2.47A6.17,6.17,0,0,1,281,81a7.11,7.11,0,0,1-2.9.56,7.3,7.3,0,0,1-3-.56,6.21,6.21,0,0,1-2.22-1.58,7,7,0,0,1-1.4-2.47,10,10,0,0,1-.49-3.18,9.83,9.83,0,0,1,.5-3.21A7.5,7.5,0,0,1,273,68.13a6.36,6.36,0,0,1,2.22-1.59A7.37,7.37,0,0,1,278.1,66a7.46,7.46,0,0,1,2.95.56,6.18,6.18,0,0,1,2.22,1.59,7.11,7.11,0,0,1,1.39,2.47A9.83,9.83,0,0,1,285.15,73.81Zm-2.53,0a8.33,8.33,0,0,0-.34-2.45,5.35,5.35,0,0,0-.94-1.81,3.9,3.9,0,0,0-1.43-1.13,4.5,4.5,0,0,0-3.62,0,4,4,0,0,0-1.43,1.13,5.53,5.53,0,0,0-.94,1.81,9.19,9.19,0,0,0,0,4.88,5.31,5.31,0,0,0,.95,1.8,4.07,4.07,0,0,0,1.43,1.12,4.39,4.39,0,0,0,1.82.38,4.3,4.3,0,0,0,1.8-.38A4,4,0,0,0,281.34,78a5.3,5.3,0,0,0,.94-1.8A8.29,8.29,0,0,0,282.62,73.81Z"/><path class="cls-3" d="M291.32,68.43h.05a8.13,8.13,0,0,1,.9-1,5.19,5.19,0,0,1,1.1-.78,5.58,5.58,0,0,1,1.33-.52,6.19,6.19,0,0,1,1.59-.19,6.26,6.26,0,0,1,1.91.28,3.94,3.94,0,0,1,1.54.91,4.2,4.2,0,0,1,1,1.63,6.92,6.92,0,0,1,.38,2.48v9.93h-2.42V71.67A4.18,4.18,0,0,0,298,68.9a2.74,2.74,0,0,0-2.16-.84,4.75,4.75,0,0,0-2.43.69,6.43,6.43,0,0,0-2,1.92V81.21H289V66.37h1.87Z"/><path class="cls-3" d="M314.54,79.57h-.06a4.79,4.79,0,0,1-.75.74,5.51,5.51,0,0,1-1.05.66,6.43,6.43,0,0,1-1.3.46,6,6,0,0,1-1.5.17,5.62,5.62,0,0,1-2-.32,4.25,4.25,0,0,1-1.55-.93,4.4,4.4,0,0,1-1-1.51,5.39,5.39,0,0,1-.36-2,4.64,4.64,0,0,1,.4-2,4.25,4.25,0,0,1,1.12-1.49,5,5,0,0,1,1.72-.93,7.19,7.19,0,0,1,2.23-.33,12.76,12.76,0,0,1,2.14.2,11.29,11.29,0,0,1,1.75.47h.06v-1a6.91,6.91,0,0,0-.07-1.08,2.89,2.89,0,0,0-.27-.83,3.13,3.13,0,0,0-1.3-1.24,4.93,4.93,0,0,0-2.4-.49,10.23,10.23,0,0,0-2.12.21,13.46,13.46,0,0,0-2,.58v-2a7.2,7.2,0,0,1,.89-.35,9.78,9.78,0,0,1,1.07-.28,10.42,10.42,0,0,1,1.18-.18c.42,0,.84-.06,1.25-.06a7.41,7.41,0,0,1,3.68.8,4.74,4.74,0,0,1,2.06,2.1,4.34,4.34,0,0,1,.33,1.11,7.66,7.66,0,0,1,.11,1.32v9.9h-2Zm-.13-4.87a15.21,15.21,0,0,0-1.58-.36,11.37,11.37,0,0,0-2-.19,3.93,3.93,0,0,0-2.42.66,2.35,2.35,0,0,0-.87,2,3.22,3.22,0,0,0,.22,1.21,2.51,2.51,0,0,0,.6.85,2.47,2.47,0,0,0,.9.5,3.68,3.68,0,0,0,1.11.16,4.24,4.24,0,0,0,1.45-.23,6.56,6.56,0,0,0,1.19-.53,6.85,6.85,0,0,0,.89-.63c.24-.21.42-.37.53-.48Z"/><path class="cls-3" d="M321.68,81.21V58.59h2.42V81.21Z"/><path class="cls-3" d="M352.24,70.34a11.15,11.15,0,0,1-2.75,7.37l1.26,1.3,1,1.08.74.76.37.36h-3.08l-.61-.6-1.35-1.38A11.52,11.52,0,0,1,344.59,81a10.7,10.7,0,0,1-3.56.61,8.15,8.15,0,0,1-2.95-.47,5.8,5.8,0,0,1-2-1.23,4.7,4.7,0,0,1-1.14-1.74,5.73,5.73,0,0,1-.36-2,6,6,0,0,1,.35-2.14,5.78,5.78,0,0,1,.95-1.64,8,8,0,0,1,1.39-1.26c.52-.37,1.06-.71,1.62-1-.41-.39-.81-.79-1.18-1.18a9.26,9.26,0,0,1-1-1.24,6,6,0,0,1-.64-1.35,5.2,5.2,0,0,1,.18-3.61,4,4,0,0,1,1.18-1.52,5.18,5.18,0,0,1,1.82-1,8.31,8.31,0,0,1,2.36-.32,8.2,8.2,0,0,1,2.21.29,5.22,5.22,0,0,1,1.78.89,4.17,4.17,0,0,1,1.2,1.44,4.35,4.35,0,0,1,.44,2,4.87,4.87,0,0,1-.41,2,5.73,5.73,0,0,1-1.08,1.59,9,9,0,0,1-1.53,1.25c-.57.37-1.17.73-1.78,1.06l1.16,1.19,1.36,1.4,1.47,1.51,1.48,1.54a8.59,8.59,0,0,0,1.27-2.47,10.91,10.91,0,0,0,.51-3.31ZM341,79.54a8.06,8.06,0,0,0,1.25-.1,8.77,8.77,0,0,0,1.35-.32,10.52,10.52,0,0,0,1.38-.56,9,9,0,0,0,1.34-.83l-1.56-1.6-1.59-1.63c-.53-.53-1-1-1.51-1.54l-1.3-1.33a13.48,13.48,0,0,0-1.28.84,6.88,6.88,0,0,0-1,1,4.49,4.49,0,0,0-.7,1.14A3.73,3.73,0,0,0,337.1,76a3.77,3.77,0,0,0,.24,1.33,3.26,3.26,0,0,0,.71,1.14,3.52,3.52,0,0,0,1.23.79A4.66,4.66,0,0,0,341,79.54Zm-2.64-14.76a3.55,3.55,0,0,0,.17,1.09,4.57,4.57,0,0,0,.51,1,8.14,8.14,0,0,0,.82,1c.32.34.69.72,1.11,1.13.5-.26,1-.54,1.43-.82a7.6,7.6,0,0,0,1.2-.92,4,4,0,0,0,.81-1.12,3.27,3.27,0,0,0,.3-1.43,3,3,0,0,0-.24-1.25,2.31,2.31,0,0,0-.65-.86,3,3,0,0,0-1-.5,5.19,5.19,0,0,0-1.29-.15,3.44,3.44,0,0,0-2.31.72A2.56,2.56,0,0,0,338.38,64.78Z"/><path class="cls-3" d="M159.88,111v8.65h-2.54V98.71h5.41a21.84,21.84,0,0,1,2.33.1,10.84,10.84,0,0,1,1.76.32,6.21,6.21,0,0,1,3.34,2,5.53,5.53,0,0,1,1.16,3.57,6,6,0,0,1-.41,2.27,5.21,5.21,0,0,1-1.14,1.73,6.18,6.18,0,0,1-1.76,1.21,9.12,9.12,0,0,1-2.27.68v.07l6.19,8.93H169.4L163,111Zm0-10v7.66h2.52c.78,0,1.45,0,2-.08a6.83,6.83,0,0,0,1.48-.28,4,4,0,0,0,2.05-1.3,3.57,3.57,0,0,0,.72-2.32,3.37,3.37,0,0,0-.69-2.17,3.72,3.72,0,0,0-1.86-1.18,7.14,7.14,0,0,0-1.34-.25c-.52,0-1.19-.08-2-.08Z"/><path class="cls-3" d="M182.38,117.89a11.49,11.49,0,0,0,2.2-.19,12.9,12.9,0,0,0,2-.56v2a7.8,7.8,0,0,1-2,.62,13.43,13.43,0,0,1-2.52.22,10.7,10.7,0,0,1-3-.4,6.13,6.13,0,0,1-2.42-1.32,6,6,0,0,1-1.6-2.36,9.53,9.53,0,0,1-.58-3.53,9.89,9.89,0,0,1,.56-3.52,7.47,7.47,0,0,1,1.49-2.49,6.07,6.07,0,0,1,2.15-1.5,6.79,6.79,0,0,1,4.88-.09,4.75,4.75,0,0,1,1.87,1.31,6.43,6.43,0,0,1,1.26,2.29,11.18,11.18,0,0,1,.46,3.38v.32c0,.09,0,.29,0,.6H176.88a6.23,6.23,0,0,0,.43,2.42,4.29,4.29,0,0,0,1.17,1.6,4.49,4.49,0,0,0,1.75.9A7.77,7.77,0,0,0,182.38,117.89Zm-1.27-11.43a3.85,3.85,0,0,0-1.56.32,4,4,0,0,0-1.26.9,4.33,4.33,0,0,0-.87,1.32,5.09,5.09,0,0,0-.41,1.61h7.59a5.73,5.73,0,0,0-.23-1.63,4,4,0,0,0-.67-1.32,3.1,3.1,0,0,0-1.09-.88A3.28,3.28,0,0,0,181.11,106.46Z"/><path class="cls-3" d="M197,104.38a5.67,5.67,0,0,1,1.69.25,4.84,4.84,0,0,1,1.23.58,4.64,4.64,0,0,1,.82.7,3,3,0,0,1,.41.55h.07l.5-1.69h1.82v15.72a7.29,7.29,0,0,1-.56,3,5.68,5.68,0,0,1-1.58,2.12,6.73,6.73,0,0,1-2.44,1.26,11.59,11.59,0,0,1-3.17.41,12.17,12.17,0,0,1-2.62-.26,6.86,6.86,0,0,1-1.81-.62v-2a9,9,0,0,0,1,.36,8.16,8.16,0,0,0,1,.25,9.53,9.53,0,0,0,1.09.15c.36,0,.77,0,1.22,0a5.9,5.9,0,0,0,4-1.22,4.67,4.67,0,0,0,1.39-3.72v-2h0a5.37,5.37,0,0,1-1.86,1.32,6.06,6.06,0,0,1-2.41.44,6.43,6.43,0,0,1-1.34-.14,6.21,6.21,0,0,1-1.44-.47,6.47,6.47,0,0,1-1.38-.89,5.69,5.69,0,0,1-1.15-1.39,7.8,7.8,0,0,1-.81-2,11.82,11.82,0,0,1,.26-6.24,7.53,7.53,0,0,1,1.49-2.53,6,6,0,0,1,2.1-1.49A6.35,6.35,0,0,1,197,104.38Zm-4.08,7.9a8.19,8.19,0,0,0,.42,2.86,4.61,4.61,0,0,0,1.07,1.73,3.41,3.41,0,0,0,1.42.84,4.81,4.81,0,0,0,1.45.23,5,5,0,0,0,2.11-.45,5.72,5.72,0,0,0,1.73-1.24v-7.76a4.8,4.8,0,0,0-.56-.64,5.26,5.26,0,0,0-.84-.67,5.14,5.14,0,0,0-1.08-.51,4.08,4.08,0,0,0-1.33-.21,4,4,0,0,0-1.9.43,3.82,3.82,0,0,0-1.37,1.19,5.47,5.47,0,0,0-.84,1.84A9.15,9.15,0,0,0,192.93,112.28Z"/><path class="cls-3" d="M208.34,101.32V98.61h2.42v2.71Zm.06,18.29V104.77h2.42v14.84Z"/><path class="cls-3" d="M228.9,112.21a9.69,9.69,0,0,1-.5,3.18,7.4,7.4,0,0,1-1.42,2.47,6.17,6.17,0,0,1-2.21,1.58,7.11,7.11,0,0,1-2.9.56,7.3,7.3,0,0,1-3-.56,6.21,6.21,0,0,1-2.22-1.58,7,7,0,0,1-1.4-2.47,10,10,0,0,1-.49-3.18,9.83,9.83,0,0,1,.5-3.21,7.5,7.5,0,0,1,1.42-2.47,6.36,6.36,0,0,1,2.22-1.59,7.37,7.37,0,0,1,2.91-.56,7.46,7.46,0,0,1,3,.56,6.18,6.18,0,0,1,2.22,1.59,7.11,7.11,0,0,1,1.39,2.47A9.83,9.83,0,0,1,228.9,112.21Zm-2.53,0a8.33,8.33,0,0,0-.34-2.45,5.35,5.35,0,0,0-.94-1.81,3.9,3.9,0,0,0-1.43-1.13,4.5,4.5,0,0,0-3.62,0,4,4,0,0,0-1.43,1.13,5.53,5.53,0,0,0-.94,1.81,9.19,9.19,0,0,0,0,4.88,5.31,5.31,0,0,0,1,1.8,4.07,4.07,0,0,0,1.43,1.12,4.39,4.39,0,0,0,1.82.38,4.3,4.3,0,0,0,1.8-.38,4,4,0,0,0,1.42-1.12,5.3,5.3,0,0,0,.94-1.8A8.29,8.29,0,0,0,226.37,112.21Z"/><path class="cls-3" d="M235.07,106.83h.05a8.13,8.13,0,0,1,.9-1,5.19,5.19,0,0,1,1.1-.78,5.58,5.58,0,0,1,1.33-.52,6.19,6.19,0,0,1,1.59-.19,6.26,6.26,0,0,1,1.91.28,3.94,3.94,0,0,1,1.54.91,4.2,4.2,0,0,1,1,1.63,6.92,6.92,0,0,1,.38,2.48v9.93h-2.42v-9.54a4.18,4.18,0,0,0-.74-2.77,2.74,2.74,0,0,0-2.16-.84,4.75,4.75,0,0,0-2.43.69,6.43,6.43,0,0,0-2,1.92v10.54h-2.42V104.77h1.87Z"/><path class="cls-3" d="M258.29,118h-.06a4.79,4.79,0,0,1-.75.74,5.51,5.51,0,0,1-1.05.66,6.43,6.43,0,0,1-1.3.46,6,6,0,0,1-1.5.17,5.62,5.62,0,0,1-2-.32,4.25,4.25,0,0,1-1.55-.93,4.4,4.4,0,0,1-1-1.51,5.39,5.39,0,0,1-.36-2,4.64,4.64,0,0,1,.4-2,4.25,4.25,0,0,1,1.12-1.49,5,5,0,0,1,1.72-.93,7.19,7.19,0,0,1,2.23-.33,12.76,12.76,0,0,1,2.14.2,11.29,11.29,0,0,1,1.75.47h.06v-1a6.91,6.91,0,0,0-.07-1.08,2.89,2.89,0,0,0-.27-.83,3.13,3.13,0,0,0-1.3-1.24,4.93,4.93,0,0,0-2.4-.49,10.23,10.23,0,0,0-2.12.21,13.46,13.46,0,0,0-2,.58v-2a7.2,7.2,0,0,1,.89-.35,9.78,9.78,0,0,1,1.07-.28,10.42,10.42,0,0,1,1.18-.18c.42,0,.84-.06,1.25-.06a7.41,7.41,0,0,1,3.68.8,4.74,4.74,0,0,1,2.06,2.1,4.34,4.34,0,0,1,.33,1.11,7.66,7.66,0,0,1,.11,1.32v9.9h-2Zm-.13-4.87a15.21,15.21,0,0,0-1.58-.36,11.37,11.37,0,0,0-2-.19,3.93,3.93,0,0,0-2.42.66,2.35,2.35,0,0,0-.87,2,3.22,3.22,0,0,0,.22,1.21,2.51,2.51,0,0,0,.6.85,2.47,2.47,0,0,0,.9.5,3.68,3.68,0,0,0,1.11.16,4.24,4.24,0,0,0,1.45-.23,6.56,6.56,0,0,0,1.19-.53,6.85,6.85,0,0,0,.89-.63c.24-.21.42-.37.53-.48Z"/><path class="cls-3" d="M265.43,119.61V97h2.42v22.62Z"/><path class="cls-3" d="M282,111v8.65h-2.55V98.71h5.42a22.09,22.09,0,0,1,2.33.1,10.84,10.84,0,0,1,1.76.32,6.21,6.21,0,0,1,3.34,2,5.52,5.52,0,0,1,1.15,3.57A6,6,0,0,1,293,107a5.21,5.21,0,0,1-1.14,1.73,6.18,6.18,0,0,1-1.76,1.21,9.12,9.12,0,0,1-2.27.68v.07l6.18,8.93h-2.54L285,111Zm0-10v7.66h2.52c.78,0,1.44,0,2-.08a7,7,0,0,0,1.48-.28A4,4,0,0,0,290,107a3.57,3.57,0,0,0,.72-2.32,3.37,3.37,0,0,0-.69-2.17,3.72,3.72,0,0,0-1.86-1.18,7.3,7.3,0,0,0-1.34-.25c-.53,0-1.19-.08-2-.08Z"/><path class="cls-3" d="M310.65,112.21a9.69,9.69,0,0,1-.5,3.18,7.4,7.4,0,0,1-1.42,2.47,6.17,6.17,0,0,1-2.21,1.58,7.11,7.11,0,0,1-2.9.56,7.3,7.3,0,0,1-3-.56,6.21,6.21,0,0,1-2.22-1.58,7,7,0,0,1-1.4-2.47,10,10,0,0,1-.49-3.18,9.83,9.83,0,0,1,.5-3.21,7.5,7.5,0,0,1,1.42-2.47,6.36,6.36,0,0,1,2.22-1.59,7.37,7.37,0,0,1,2.91-.56,7.46,7.46,0,0,1,2.95.56,6.18,6.18,0,0,1,2.22,1.59,7.11,7.11,0,0,1,1.39,2.47A9.83,9.83,0,0,1,310.65,112.21Zm-2.53,0a8.33,8.33,0,0,0-.34-2.45,5.35,5.35,0,0,0-.94-1.81,3.9,3.9,0,0,0-1.43-1.13,4.5,4.5,0,0,0-3.62,0,4,4,0,0,0-1.43,1.13,5.53,5.53,0,0,0-.94,1.81,9.19,9.19,0,0,0,0,4.88,5.31,5.31,0,0,0,.95,1.8,4.07,4.07,0,0,0,1.43,1.12,4.39,4.39,0,0,0,1.82.38,4.3,4.3,0,0,0,1.8-.38,4,4,0,0,0,1.42-1.12,5.3,5.3,0,0,0,.94-1.8A8.29,8.29,0,0,0,308.12,112.21Z"/><path class="cls-3" d="M320.37,120a7.8,7.8,0,0,1-2.08-.25,5.44,5.44,0,0,1-1.62-.7,4.55,4.55,0,0,1-1.18-1.09,5.16,5.16,0,0,1-.76-1.38,5.53,5.53,0,0,1-.32-1.23,11.16,11.16,0,0,1-.09-1.47v-9.11h2.42v9.09a5.65,5.65,0,0,0,.33,2.07,3.06,3.06,0,0,0,1.21,1.47,3.87,3.87,0,0,0,2.13.54,3.76,3.76,0,0,0,2.21-.59,3.27,3.27,0,0,0,1.2-1.6,5.73,5.73,0,0,0,.27-1.89v-9.09h2.42v9.12a10.19,10.19,0,0,1-.09,1.4,6.83,6.83,0,0,1-.27,1.2,5.4,5.4,0,0,1-.78,1.41,4.64,4.64,0,0,1-1.21,1.12,6.14,6.14,0,0,1-1.66.73A8.19,8.19,0,0,1,320.37,120Z"/><path class="cls-3" d="M333.38,106.83h.05a8.13,8.13,0,0,1,.9-1,5.45,5.45,0,0,1,1.1-.78,5.66,5.66,0,0,1,1.34-.52,6.06,6.06,0,0,1,1.58-.19,6.26,6.26,0,0,1,1.91.28,3.87,3.87,0,0,1,1.54.91,4.2,4.2,0,0,1,1,1.63,6.9,6.9,0,0,1,.39,2.48v9.93H340.8v-9.54a4.12,4.12,0,0,0-.74-2.77,2.72,2.72,0,0,0-2.16-.84,4.68,4.68,0,0,0-2.42.69,6.46,6.46,0,0,0-2,1.92v10.54H331V104.77h1.87Z"/><path class="cls-3" d="M347.05,112.38a11.23,11.23,0,0,1,.31-2.74,8.51,8.51,0,0,1,.8-2.09,5.93,5.93,0,0,1,1.18-1.49,6.64,6.64,0,0,1,1.39-1,5.73,5.73,0,0,1,1.46-.54,6.4,6.4,0,0,1,1.4-.16,5.74,5.74,0,0,1,2.36.45,5.54,5.54,0,0,1,1.79,1.33h.05V97h2.42v22.62h-1.83l-.5-1.65h-.06a7.19,7.19,0,0,1-.66.72,4.34,4.34,0,0,1-.88.67,4.77,4.77,0,0,1-1.17.47,5.92,5.92,0,0,1-1.54.18,7,7,0,0,1-2.39-.41,5.6,5.6,0,0,1-2.09-1.33,6.6,6.6,0,0,1-1.47-2.36A9.61,9.61,0,0,1,347.05,112.38Zm2.54,0a8.78,8.78,0,0,0,.28,2.32,5.43,5.43,0,0,0,.84,1.76,3.61,3.61,0,0,0,1.34,1.12,4.17,4.17,0,0,0,1.83.39,4.62,4.62,0,0,0,1.39-.2,5,5,0,0,0,1.12-.52,5,5,0,0,0,1.4-1.31v-7.77a5.94,5.94,0,0,0-1.74-1.22,4.87,4.87,0,0,0-2.12-.46,4.56,4.56,0,0,0-1.45.25,3.73,3.73,0,0,0-1.4.93,5.17,5.17,0,0,0-1.07,1.81A8.43,8.43,0,0,0,349.59,112.35Z"/><path class="cls-3" d="M366.79,108.72a1.71,1.71,0,0,0,.26,1,2,2,0,0,0,.69.64,4.43,4.43,0,0,0,1,.39c.38.11.78.2,1.19.28s1.09.27,1.58.42a4.85,4.85,0,0,1,1.39.68,3.28,3.28,0,0,1,1,1.23,5,5,0,0,1-.05,4,4.08,4.08,0,0,1-1.23,1.45,5.71,5.71,0,0,1-1.91.89,9.32,9.32,0,0,1-2.44.3,13,13,0,0,1-1.47-.08,9.11,9.11,0,0,1-1.17-.22q-.51-.14-.87-.27c-.24-.1-.44-.19-.59-.27v-2a12,12,0,0,0,1.82.59,8.28,8.28,0,0,0,2,.22,6.62,6.62,0,0,0,1.54-.16,3.65,3.65,0,0,0,1.19-.46,2,2,0,0,0,1-1.83,1.89,1.89,0,0,0-.25-1,2,2,0,0,0-.66-.68,4,4,0,0,0-.95-.43c-.37-.12-.75-.22-1.15-.32s-1-.25-1.58-.4a5.78,5.78,0,0,1-1.47-.66,3.21,3.21,0,0,1-1.07-1.15,3.77,3.77,0,0,1-.4-1.86,4.57,4.57,0,0,1,.42-2,4,4,0,0,1,1.14-1.43,5.14,5.14,0,0,1,1.67-.84,7,7,0,0,1,2-.28,11,11,0,0,1,2.29.23,11.59,11.59,0,0,1,1.91.6v2.06a14.17,14.17,0,0,0-1.85-.59,8.87,8.87,0,0,0-1.93-.24,5.34,5.34,0,0,0-1.43.17,3,3,0,0,0-1,.48,1.86,1.86,0,0,0-.56.72A2.42,2.42,0,0,0,366.79,108.72Z"/></svg>