<svg id="Camada_1" data-name="Camada 1" xmlns="http://www.w3.org/2000/svg" viewBox="0 0 530.33 163.69"><defs><style>.cls-1{fill:#efa426;}.cls-2{fill:#e59e25;}.cls-3{fill:#fff;stroke:#feffff;stroke-miterlimit:10;stroke-width:0.5px;}</style></defs><title>pyramid</title><polygon class="cls-1" points="85.93 0.05 265.16 0.05 265.16 163.69 0 163.69 85.93 0.05"/><polygon class="cls-2" points="265.16 0.05 444.39 0.05 530.33 163.69 265.16 163.69 265.16 0.05"/><path class="cls-3" d="M171.66,71.69a6.64,6.64,0,0,1-.52,2.66,6,6,0,0,1-1.52,2.11,7,7,0,0,1-2.41,1.39,9.82,9.82,0,0,1-3.23.5,11.06,11.06,0,0,1-2.27-.23,7.18,7.18,0,0,1-1.94-.69V75.37a9.47,9.47,0,0,0,2.19.69,11.14,11.14,0,0,0,1.91.18,7,7,0,0,0,2.31-.35,5,5,0,0,0,1.64-1,3.94,3.94,0,0,0,1-1.42,4.39,4.39,0,0,0,.33-1.69A4.84,4.84,0,0,0,168.8,70a3.14,3.14,0,0,0-1.06-1.31,4.94,4.94,0,0,0-1.84-.78,12.48,12.48,0,0,0-2.72-.26,26.83,26.83,0,0,0-2.72.16l1.48-10.71h10v2.24h-7.56l-.88,6.2.88,0a10.61,10.61,0,0,1,3.12.42,6.34,6.34,0,0,1,2.29,1.22,5.18,5.18,0,0,1,1.4,2A6.83,6.83,0,0,1,171.66,71.69Z"/><path class="cls-3" d="M177.51,69.82v.06l2.31-.06h3.42V65.07h2.42v4.75h3.08V71.9h-3.08v6h-2.42v-6h-8.5V70.12l6.16-13.07h2.61Z"/><path class="cls-3" d="M201.44,51V69.6h10.21v2.3H198.9V51Z"/><path class="cls-3" d="M228.48,64.49a9.75,9.75,0,0,1-.5,3.19,7.26,7.26,0,0,1-1.42,2.46,6.26,6.26,0,0,1-2.21,1.58,7.13,7.13,0,0,1-2.91.57,7.34,7.34,0,0,1-3-.57,6.21,6.21,0,0,1-2.22-1.58,6.89,6.89,0,0,1-1.39-2.46,10.56,10.56,0,0,1,0-6.39,7.24,7.24,0,0,1,1.42-2.47,6.14,6.14,0,0,1,2.21-1.6,7.42,7.42,0,0,1,2.92-.56,7.5,7.5,0,0,1,2.95.56,6.09,6.09,0,0,1,2.22,1.6A7.18,7.18,0,0,1,228,61.29,10,10,0,0,1,228.48,64.49Zm-2.54,0a8.35,8.35,0,0,0-.33-2.45,5.64,5.64,0,0,0-.94-1.81,4,4,0,0,0-1.43-1.12,4.4,4.4,0,0,0-3.62,0,3.88,3.88,0,0,0-1.43,1.12,5.27,5.27,0,0,0-.94,1.81,8.33,8.33,0,0,0-.34,2.45,8.2,8.2,0,0,0,.34,2.43,5.21,5.21,0,0,0,.94,1.8,4.08,4.08,0,0,0,1.44,1.12,4.5,4.5,0,0,0,3.62,0,3.93,3.93,0,0,0,1.42-1.12,5.38,5.38,0,0,0,.94-1.8A8.21,8.21,0,0,0,225.94,64.49Z"/><path class="cls-3" d="M238.68,56.66a9.22,9.22,0,0,1,2.06.23,6.08,6.08,0,0,1,1.69.63v2a14.71,14.71,0,0,0-1.81-.57,8,8,0,0,0-1.69-.18,5.89,5.89,0,0,0-1.8.29,4.27,4.27,0,0,0-1.59,1,4.89,4.89,0,0,0-1.14,1.8,7.92,7.92,0,0,0-.42,2.77,7.18,7.18,0,0,0,.32,2.22,5,5,0,0,0,.95,1.76,4.28,4.28,0,0,0,1.58,1.15,5.45,5.45,0,0,0,2.21.42,8.91,8.91,0,0,0,1.83-.2,10.28,10.28,0,0,0,1.79-.55v2a4.14,4.14,0,0,1-.69.32A9.11,9.11,0,0,1,241,72c-.34.08-.71.14-1.09.19a11.28,11.28,0,0,1-1.16.07,8.53,8.53,0,0,1-2.83-.46,6.31,6.31,0,0,1-2.34-1.39A6.49,6.49,0,0,1,232,68.07a9.25,9.25,0,0,1-.58-3.41,10.63,10.63,0,0,1,.31-2.64,7.85,7.85,0,0,1,.83-2.06,6.47,6.47,0,0,1,1.25-1.52,7.43,7.43,0,0,1,1.51-1,6.76,6.76,0,0,1,1.67-.58A8.12,8.12,0,0,1,238.68,56.66Z"/><path class="cls-3" d="M255,70.26H255a5.27,5.27,0,0,1-.75.74,5.35,5.35,0,0,1-1.05.65,6.35,6.35,0,0,1-1.29.47,6.56,6.56,0,0,1-1.5.17,6,6,0,0,1-2-.32,4.42,4.42,0,0,1-1.55-.94,4.22,4.22,0,0,1-1-1.51,5.3,5.3,0,0,1-.35-2,4.84,4.84,0,0,1,.39-2A4.21,4.21,0,0,1,247,64a5.06,5.06,0,0,1,1.73-.94,7.09,7.09,0,0,1,2.22-.33,12.76,12.76,0,0,1,2.14.2,12.53,12.53,0,0,1,1.75.47h.07v-1a7,7,0,0,0-.08-1.08,2.55,2.55,0,0,0-.27-.82,3.18,3.18,0,0,0-1.29-1.25,5.12,5.12,0,0,0-2.41-.49,10.23,10.23,0,0,0-2.12.21,13,13,0,0,0-2,.59v-2a4.89,4.89,0,0,1,.88-.35,10.4,10.4,0,0,1,1.07-.29c.37-.07.77-.13,1.19-.18s.83-.06,1.25-.06a7.54,7.54,0,0,1,3.68.8,4.74,4.74,0,0,1,2,2.11,4.16,4.16,0,0,1,.34,1.1,8.86,8.86,0,0,1,.1,1.32V71.9h-2Zm-.12-4.88q-.68-.18-1.59-.36a12.28,12.28,0,0,0-2-.19,3.9,3.9,0,0,0-2.41.66,2.37,2.37,0,0,0-.87,2,3.17,3.17,0,0,0,.21,1.2,2.42,2.42,0,0,0,.6.85,2.6,2.6,0,0,0,.91.5,3.59,3.59,0,0,0,1.11.16,4.44,4.44,0,0,0,1.44-.22,5.7,5.7,0,0,0,1.19-.54,6.22,6.22,0,0,0,.89-.63c.24-.2.42-.37.54-.48Z"/><path class="cls-3" d="M262.16,71.9V49.27h2.42V71.9Z"/><path class="cls-3" d="M278.69,63.24V71.9h-2.54V51h5.41a22.17,22.17,0,0,1,2.34.1,11.9,11.9,0,0,1,1.75.32,6.22,6.22,0,0,1,3.34,2A5.49,5.49,0,0,1,290.15,57a6,6,0,0,1-.41,2.26A5.16,5.16,0,0,1,288.6,61a6,6,0,0,1-1.76,1.2,9.57,9.57,0,0,1-2.27.69V63l6.19,8.94h-2.55l-6.44-8.66Zm0-10v7.65h2.52c.78,0,1.45,0,2-.07a7.46,7.46,0,0,0,1.48-.29,4.08,4.08,0,0,0,2.05-1.29,3.6,3.6,0,0,0,.72-2.33,3.37,3.37,0,0,0-.69-2.17,3.71,3.71,0,0,0-1.86-1.17,6.41,6.41,0,0,0-1.34-.25,18.26,18.26,0,0,0-2-.08Z"/><path class="cls-3" d="M307.38,64.49a9.75,9.75,0,0,1-.5,3.19,7.08,7.08,0,0,1-1.41,2.46,6.26,6.26,0,0,1-2.21,1.58,7.2,7.2,0,0,1-2.91.57,7.34,7.34,0,0,1-3-.57,6.21,6.21,0,0,1-2.22-1.58,6.91,6.91,0,0,1-1.4-2.46,10,10,0,0,1-.48-3.19,9.51,9.51,0,0,1,.5-3.2,7.22,7.22,0,0,1,1.41-2.47,6.26,6.26,0,0,1,2.22-1.6,7.37,7.37,0,0,1,2.91-.56,7.55,7.55,0,0,1,3,.56,6.26,6.26,0,0,1,2.22,1.6,7.35,7.35,0,0,1,1.39,2.47A10,10,0,0,1,307.38,64.49Zm-2.53,0a8,8,0,0,0-.34-2.45,5.43,5.43,0,0,0-.93-1.81,4,4,0,0,0-1.43-1.12,4.25,4.25,0,0,0-1.82-.39,4.2,4.2,0,0,0-1.81.39,4,4,0,0,0-1.43,1.12,5.64,5.64,0,0,0-.94,1.81,8.35,8.35,0,0,0-.33,2.45,8.21,8.21,0,0,0,.33,2.43,5.22,5.22,0,0,0,1,1.8,4.08,4.08,0,0,0,1.44,1.12,4.17,4.17,0,0,0,1.81.38,4.09,4.09,0,0,0,1.8-.38,4,4,0,0,0,1.43-1.12,5.19,5.19,0,0,0,.93-1.8A7.88,7.88,0,0,0,304.85,64.49Z"/><path class="cls-3" d="M317.1,72.29A8.29,8.29,0,0,1,315,72a5.68,5.68,0,0,1-1.62-.71,4.65,4.65,0,0,1-1.17-1.08,5.43,5.43,0,0,1-1.08-2.62,9.61,9.61,0,0,1-.1-1.47V57.05h2.43v9.1a5.61,5.61,0,0,0,.32,2.06A3.14,3.14,0,0,0,315,69.69a4,4,0,0,0,2.14.53,3.73,3.73,0,0,0,2.21-.59A3.28,3.28,0,0,0,320.55,68a5.73,5.73,0,0,0,.27-1.89v-9.1h2.42v9.13a10.3,10.3,0,0,1-.09,1.4,5.32,5.32,0,0,1-.27,1.19,5.59,5.59,0,0,1-.77,1.42,4.77,4.77,0,0,1-1.21,1.11,5.64,5.64,0,0,1-1.67.73A8.17,8.17,0,0,1,317.1,72.29Z"/><path class="cls-3" d="M330.12,59.12h0a7.5,7.5,0,0,1,.9-1,6.79,6.79,0,0,1,1.1-.78,5.66,5.66,0,0,1,1.34-.52,6.06,6.06,0,0,1,1.58-.19,6.53,6.53,0,0,1,1.91.28,4,4,0,0,1,1.55.91,4.4,4.4,0,0,1,1,1.63A7.15,7.15,0,0,1,340,62V71.9h-2.42V62.35a4.21,4.21,0,0,0-.74-2.77,2.75,2.75,0,0,0-2.17-.84,4.63,4.63,0,0,0-2.42.7,6.53,6.53,0,0,0-2,1.91V71.9h-2.42V57.05h1.88Z"/><path class="cls-3" d="M343.79,64.66a11.32,11.32,0,0,1,.3-2.74,8.67,8.67,0,0,1,.81-2.09,5.69,5.69,0,0,1,1.17-1.49,6.85,6.85,0,0,1,1.39-1,6,6,0,0,1,1.46-.54,6.44,6.44,0,0,1,1.4-.17,5.55,5.55,0,0,1,2.36.46,5.65,5.65,0,0,1,1.8,1.32h0V49.27h2.42V71.9h-1.82l-.5-1.66h-.07a7,7,0,0,1-.65.73,4.78,4.78,0,0,1-.89.66,4.62,4.62,0,0,1-1.17.48,5.87,5.87,0,0,1-1.54.18,7,7,0,0,1-2.39-.42,5.44,5.44,0,0,1-2.08-1.33,6.71,6.71,0,0,1-1.48-2.35A9.9,9.9,0,0,1,343.79,64.66Zm2.53,0a8.32,8.32,0,0,0,.29,2.32,5.37,5.37,0,0,0,.83,1.77,3.8,3.8,0,0,0,1.35,1.11,4.1,4.1,0,0,0,1.83.39A4.36,4.36,0,0,0,352,70a4.88,4.88,0,0,0,2-1.18,4.23,4.23,0,0,0,.55-.65V60.43a6.06,6.06,0,0,0-1.73-1.23,4.94,4.94,0,0,0-2.13-.46,4.48,4.48,0,0,0-1.44.26,3.47,3.47,0,0,0-1.41.93,5.21,5.21,0,0,0-1.07,1.8A8.47,8.47,0,0,0,346.32,64.63Z"/><path class="cls-3" d="M363.52,61a1.81,1.81,0,0,0,.26,1,1.94,1.94,0,0,0,.7.63,4.72,4.72,0,0,0,1,.4c.38.1.77.2,1.18.28s1.09.26,1.59.41a4.68,4.68,0,0,1,1.38.68,3.28,3.28,0,0,1,1,1.23,4.44,4.44,0,0,1,.39,2,4.38,4.38,0,0,1-.43,2,4.12,4.12,0,0,1-1.24,1.45,5.75,5.75,0,0,1-1.9.89,9,9,0,0,1-2.44.31,11.1,11.1,0,0,1-1.48-.09,9.83,9.83,0,0,1-1.17-.22q-.51-.14-.87-.27a3.72,3.72,0,0,1-.59-.27v-2a13.34,13.34,0,0,0,1.82.6,8.9,8.9,0,0,0,2,.21,7.34,7.34,0,0,0,1.55-.15,4.28,4.28,0,0,0,1.19-.46,2.24,2.24,0,0,0,.76-.77,2.07,2.07,0,0,0,.27-1.07,2,2,0,0,0-.24-1,2.22,2.22,0,0,0-.66-.67,4.24,4.24,0,0,0-1-.44c-.36-.11-.75-.22-1.14-.31s-1-.25-1.59-.41a5.43,5.43,0,0,1-1.47-.65,3.26,3.26,0,0,1-1.06-1.15,3.84,3.84,0,0,1-.41-1.87,4.57,4.57,0,0,1,.42-2,4,4,0,0,1,1.14-1.42,4.93,4.93,0,0,1,1.68-.85,7.28,7.28,0,0,1,2-.28,10.32,10.32,0,0,1,2.29.24,10.72,10.72,0,0,1,1.91.59v2.06a13.66,13.66,0,0,0-1.85-.58,9.44,9.44,0,0,0-1.93-.25,5,5,0,0,0-1.43.18,2.8,2.8,0,0,0-1,.47,1.88,1.88,0,0,0-.55.72A2.29,2.29,0,0,0,363.52,61Z"/><path class="cls-3" d="M172.38,92V89.3h2.42V92Zm.06,18.3V95.45h2.43V110.3Z"/><path class="cls-3" d="M182.05,97.51h0a8.13,8.13,0,0,1,.9-1,6.38,6.38,0,0,1,1.1-.78,5.66,5.66,0,0,1,1.34-.52,6.06,6.06,0,0,1,1.58-.19,6.58,6.58,0,0,1,1.91.28,4,4,0,0,1,1.55.91,4.38,4.38,0,0,1,1,1.63,6.9,6.9,0,0,1,.39,2.48v9.94h-2.42v-9.55a4.15,4.15,0,0,0-.75-2.77,2.72,2.72,0,0,0-2.16-.84,4.71,4.71,0,0,0-2.42.69,6.58,6.58,0,0,0-2,1.92V110.3h-2.42V95.45h1.87Z"/><path class="cls-3" d="M207,108.16c1.2-.07,2.28-.1,3.24-.1h4.89v2.24H203.07v-1.61c1.2-.89,2.3-1.71,3.31-2.48A32.43,32.43,0,0,0,209,104a11.39,11.39,0,0,0,1.73-2.06,3.8,3.8,0,0,0,.62-2,2.54,2.54,0,0,0-.87-2.08,3.9,3.9,0,0,0-2.52-.72,8.61,8.61,0,0,0-2.37.36,17.49,17.49,0,0,0-2.36.91V96.34a10.22,10.22,0,0,1,5.06-1.28,8.07,8.07,0,0,1,2.26.31,5.32,5.32,0,0,1,1.77.92,4,4,0,0,1,1.15,1.48,4.86,4.86,0,0,1,.41,2,5.22,5.22,0,0,1-.53,2.31,9.11,9.11,0,0,1-1.46,2,18.41,18.41,0,0,1-2.18,2c-.83.64-1.73,1.3-2.69,2Z"/><path class="cls-3" d="M224,108.06V98L218.4,99.8V97.55l6-2.1h2.09v12.61h4.09v2.24h-11.5v-2.24Z"/><path class="cls-3" d="M246.46,95.06a9.16,9.16,0,0,1,2.06.23,6.08,6.08,0,0,1,1.69.63v2a14.71,14.71,0,0,0-1.81-.57,8,8,0,0,0-1.69-.18,5.94,5.94,0,0,0-1.8.29,4.27,4.27,0,0,0-1.59,1,4.75,4.75,0,0,0-1.13,1.8,7.68,7.68,0,0,0-.43,2.77,7.18,7.18,0,0,0,.32,2.22A5,5,0,0,0,243,107a4.23,4.23,0,0,0,1.59,1.15,5.4,5.4,0,0,0,2.2.42,8.91,8.91,0,0,0,1.83-.2,10.28,10.28,0,0,0,1.79-.55v2a4.14,4.14,0,0,1-.69.32,9.11,9.11,0,0,1-.95.27c-.34.08-.71.14-1.09.19a11.28,11.28,0,0,1-1.16.07,8.53,8.53,0,0,1-2.83-.46,6.31,6.31,0,0,1-2.34-1.39,6.49,6.49,0,0,1-1.58-2.37,9.26,9.26,0,0,1-.57-3.41,10.65,10.65,0,0,1,.3-2.64,7.53,7.53,0,0,1,.84-2.06,6,6,0,0,1,1.24-1.52,7,7,0,0,1,1.51-1,6.76,6.76,0,0,1,1.67-.58A8.12,8.12,0,0,1,246.46,95.06Z"/><path class="cls-3" d="M267.35,102.89a9.75,9.75,0,0,1-.5,3.19,7.08,7.08,0,0,1-1.41,2.46,6.26,6.26,0,0,1-2.21,1.58,7.2,7.2,0,0,1-2.91.57,7.3,7.3,0,0,1-3-.57,6.21,6.21,0,0,1-2.22-1.58,6.91,6.91,0,0,1-1.4-2.46,10,10,0,0,1-.48-3.19,9.51,9.51,0,0,1,.5-3.2,7.22,7.22,0,0,1,1.41-2.47,6.26,6.26,0,0,1,2.22-1.6,7.37,7.37,0,0,1,2.91-.56,7.55,7.55,0,0,1,3,.56,6.26,6.26,0,0,1,2.22,1.6,7.35,7.35,0,0,1,1.39,2.47A10,10,0,0,1,267.35,102.89Zm-2.53,0a8,8,0,0,0-.34-2.45,5.43,5.43,0,0,0-.93-1.81,4,4,0,0,0-1.43-1.12,4.25,4.25,0,0,0-1.82-.39,4.2,4.2,0,0,0-1.81.39,4,4,0,0,0-1.43,1.12,5.64,5.64,0,0,0-.94,1.81,8.35,8.35,0,0,0-.33,2.45,8.21,8.21,0,0,0,.33,2.43,5.31,5.31,0,0,0,.95,1.8,4,4,0,0,0,1.44,1.12,4.17,4.17,0,0,0,1.81.38,4.09,4.09,0,0,0,1.8-.38,4,4,0,0,0,1.43-1.12,5.28,5.28,0,0,0,.93-1.8A7.88,7.88,0,0,0,264.82,102.89Z"/><path class="cls-3" d="M277.07,110.69a8.29,8.29,0,0,1-2.08-.25,5.68,5.68,0,0,1-1.62-.71,4.87,4.87,0,0,1-1.18-1.08,5.52,5.52,0,0,1-.76-1.39,5,5,0,0,1-.31-1.23,9.61,9.61,0,0,1-.1-1.47V95.45h2.42v9.1a5.59,5.59,0,0,0,.33,2.06,3.07,3.07,0,0,0,1.21,1.47,3.88,3.88,0,0,0,2.14.54,3.73,3.73,0,0,0,2.21-.59,3.33,3.33,0,0,0,1.19-1.59,5.73,5.73,0,0,0,.27-1.89v-9.1h2.42v9.13a10.3,10.3,0,0,1-.09,1.4,5.32,5.32,0,0,1-.27,1.19,5.67,5.67,0,0,1-.77,1.41,4.79,4.79,0,0,1-1.21,1.12,5.91,5.91,0,0,1-1.67.73A8.17,8.17,0,0,1,277.07,110.69Z"/><path class="cls-3" d="M290.08,97.51h.05a8.13,8.13,0,0,1,.9-1,6.79,6.79,0,0,1,1.1-.78,5.66,5.66,0,0,1,1.34-.52,6.06,6.06,0,0,1,1.58-.19,6.53,6.53,0,0,1,1.91.28,4,4,0,0,1,1.55.91,4.53,4.53,0,0,1,1,1.63,7.15,7.15,0,0,1,.38,2.48v9.94h-2.42v-9.55a4.15,4.15,0,0,0-.75-2.77,2.72,2.72,0,0,0-2.16-.84,4.71,4.71,0,0,0-2.42.69,6.69,6.69,0,0,0-2,1.92V110.3h-2.42V95.45h1.88Z"/><path class="cls-3" d="M312.44,110.33a4.86,4.86,0,0,1-.95.23,10.67,10.67,0,0,1-1.53.13,6.45,6.45,0,0,1-2-.29,3.94,3.94,0,0,1-1.43-.83,3.24,3.24,0,0,1-.85-1.31,4.81,4.81,0,0,1-.28-1.7v-9h-2.86V95.45h2.86V91.39h2.42v4.06h4.44v2.08h-4.44v8.66a2.91,2.91,0,0,0,.15,1,1.92,1.92,0,0,0,.46.76,2.27,2.27,0,0,0,.83.5,3.53,3.53,0,0,0,1.2.18,7.47,7.47,0,0,0,1-.08,8.23,8.23,0,0,0,1-.2Z"/><path class="cls-3" d="M323.87,97.42h-.19a8.64,8.64,0,0,0-1.69.16,7,7,0,0,0-1.55.47,6.16,6.16,0,0,0-1.32.79,4.46,4.46,0,0,0-1,1.11V110.3h-2.42V95.45h1.87l.47,2.36h.05a5.87,5.87,0,0,1,.88-1.08,6.1,6.1,0,0,1,1.18-.87,6,6,0,0,1,1.44-.59,6.25,6.25,0,0,1,1.64-.21h.32l.29,0Z"/><path class="cls-3" d="M326.54,92V89.3H329V92Zm.06,18.3V95.45H329V110.3Z"/><path class="cls-3" d="M340.91,108.58a11.45,11.45,0,0,0,2.2-.2,12.86,12.86,0,0,0,2-.55v2a7.8,7.8,0,0,1-2,.62,13.41,13.41,0,0,1-2.52.23,10.69,10.69,0,0,1-3-.41,6.24,6.24,0,0,1-2.42-1.31,6.06,6.06,0,0,1-1.6-2.37,9.47,9.47,0,0,1-.58-3.52,9.91,9.91,0,0,1,.56-3.53,7.47,7.47,0,0,1,1.49-2.49,6.34,6.34,0,0,1,2.15-1.5,6.74,6.74,0,0,1,2.55-.5,6.42,6.42,0,0,1,2.33.42,4.73,4.73,0,0,1,1.87,1.3,6.4,6.4,0,0,1,1.26,2.3,10.76,10.76,0,0,1,.46,3.37v.32c0,.09,0,.29,0,.6H335.41a6.2,6.2,0,0,0,.43,2.42A4.33,4.33,0,0,0,337,107.4a4.77,4.77,0,0,0,1.75.9A8.16,8.16,0,0,0,340.91,108.58Zm-1.27-11.44a3.7,3.7,0,0,0-1.56.33,4,4,0,0,0-1.26.89,4.33,4.33,0,0,0-.87,1.32,5.08,5.08,0,0,0-.41,1.62h7.59a5.42,5.42,0,0,0-.23-1.64,3.92,3.92,0,0,0-.67-1.32,3.21,3.21,0,0,0-1.09-.88A3.41,3.41,0,0,0,339.64,97.14Z"/><path class="cls-3" d="M351.52,99.41a1.81,1.81,0,0,0,.26,1,1.94,1.94,0,0,0,.7.63,4.72,4.72,0,0,0,1,.4l1.18.28c.56.12,1.09.26,1.59.41a4.68,4.68,0,0,1,1.38.68,3.28,3.28,0,0,1,1,1.23,4.44,4.44,0,0,1,.39,2,4.38,4.38,0,0,1-.43,2,4.12,4.12,0,0,1-1.24,1.45,5.75,5.75,0,0,1-1.9.89,9.36,9.36,0,0,1-2.44.31,11.1,11.1,0,0,1-1.48-.09,9.83,9.83,0,0,1-1.17-.22q-.51-.13-.87-.27a4.91,4.91,0,0,1-.59-.27v-2a13.34,13.34,0,0,0,1.82.6,8.9,8.9,0,0,0,2,.21,7.34,7.34,0,0,0,1.55-.15,4.28,4.28,0,0,0,1.19-.46,2.24,2.24,0,0,0,.76-.77,2.07,2.07,0,0,0,.27-1.07,2,2,0,0,0-.24-1,2.22,2.22,0,0,0-.66-.67,4.24,4.24,0,0,0-1-.44c-.36-.11-.75-.22-1.14-.31s-1-.25-1.59-.41a5.43,5.43,0,0,1-1.47-.65,3.26,3.26,0,0,1-1.06-1.15,3.84,3.84,0,0,1-.41-1.87,4.57,4.57,0,0,1,.42-2,4,4,0,0,1,1.14-1.42,4.93,4.93,0,0,1,1.68-.85,7.28,7.28,0,0,1,2-.28,10.32,10.32,0,0,1,2.29.24,10.72,10.72,0,0,1,1.91.59V98a13.66,13.66,0,0,0-1.85-.58,8.79,8.79,0,0,0-1.93-.25,5,5,0,0,0-1.43.18,2.8,2.8,0,0,0-1,.47,1.88,1.88,0,0,0-.55.72A2.29,2.29,0,0,0,351.52,99.41Z"/></svg>