<svg id="Camada_1" data-name="Camada 1" xmlns="http://www.w3.org/2000/svg" viewBox="0 0 530.33 157.46"><defs><style>.cls-1{fill:#3c729e;}.cls-2{fill:#396c97;}.cls-3{fill:#fff;stroke:#feffff;stroke-miterlimit:10;stroke-width:0.5px;}</style></defs><title>pyramid</title><polygon class="cls-1" points="265.16 0.05 182.5 157.46 265.16 157.46 265.16 0.05"/><polygon class="cls-2" points="265.16 0.05 265.16 157.46 347.82 157.46 265.16 0.05"/><path class="cls-3" d="M265,76.52v-10l-5.64,1.76V66l6-2.09h2.09V76.52h4.09v2.23h-11.5V76.52Z"/><path class="cls-3" d="M238.6,117.15h-2.55V96.25h12.47v2.3H238.6v6.75h8.8v2.29h-8.8Z"/><path class="cls-3" d="M252,98.86V96.15h2.42v2.71Zm.06,18.29V102.31h2.42v14.84Z"/><path class="cls-3" d="M261.65,104.37h.05a9,9,0,0,1,.89-1,6.47,6.47,0,0,1,1.11-.78,5.58,5.58,0,0,1,1.33-.52,6.66,6.66,0,0,1,3.49.09,3.91,3.91,0,0,1,1.55.91,4.32,4.32,0,0,1,1,1.63,7.15,7.15,0,0,1,.38,2.48v9.93h-2.42v-9.54a4.19,4.19,0,0,0-.74-2.77,2.75,2.75,0,0,0-2.17-.84,4.71,4.71,0,0,0-2.42.69,6.55,6.55,0,0,0-2,1.92v10.54H259.3V102.31h1.88Z"/><path class="cls-3" d="M284.87,115.51h-.07a4.42,4.42,0,0,1-.75.75,5.58,5.58,0,0,1-1,.65,5.88,5.88,0,0,1-1.3.46,6,6,0,0,1-1.5.18,6,6,0,0,1-2-.32,4.37,4.37,0,0,1-1.54-.94,4.18,4.18,0,0,1-1-1.51,5.35,5.35,0,0,1-.36-2,4.64,4.64,0,0,1,.4-2,4.1,4.1,0,0,1,1.12-1.48,4.92,4.92,0,0,1,1.72-.94,7.15,7.15,0,0,1,2.23-.33,12.87,12.87,0,0,1,2.14.2,11.29,11.29,0,0,1,1.75.47h.06v-1a5.8,5.8,0,0,0-.08-1.08,2.89,2.89,0,0,0-.26-.83,3.13,3.13,0,0,0-1.3-1.24,5,5,0,0,0-2.4-.49,10.23,10.23,0,0,0-2.12.21,13.51,13.51,0,0,0-2,.59v-2a6.17,6.17,0,0,1,.88-.36c.34-.11.7-.2,1.07-.28a10.61,10.61,0,0,1,1.19-.18c.42,0,.83-.06,1.25-.06a7.52,7.52,0,0,1,3.68.8,4.76,4.76,0,0,1,2.06,2.11,4.56,4.56,0,0,1,.33,1.1,7.7,7.7,0,0,1,.1,1.32v9.9h-2Zm-.13-4.87a14.87,14.87,0,0,0-1.59-.36,12.28,12.28,0,0,0-2-.19,3.92,3.92,0,0,0-2.41.66,2.36,2.36,0,0,0-.87,2,3,3,0,0,0,.22,1.21,2.19,2.19,0,0,0,.6.85,2.47,2.47,0,0,0,.9.5,3.68,3.68,0,0,0,1.11.16,4.54,4.54,0,0,0,1.45-.22,6.21,6.21,0,0,0,1.19-.54,6.09,6.09,0,0,0,.88-.63q.38-.32.54-.48Z"/><path class="cls-3" d="M292,117.15V94.53h2.42v22.62Z"/></svg>